<svg id="レイヤー_1" data-name="レイヤー 1" xmlns="http://www.w3.org/2000/svg" xmlns:xlink="http://www.w3.org/1999/xlink" viewBox="0 0 419.63 242.67"><defs><style>.cls-1{fill:none;}.cls-2{clip-path:url(#clip-path);}.cls-3{fill:#2b2b2b;}.cls-4{fill:#f8dabd;}.cls-5{fill:#dfca30;}.cls-6{fill:#484848;}.cls-10,.cls-7{opacity:0.1;isolation:isolate;}.cls-8{fill:#f2f2f2;}.cls-9{fill:#979797;}.cls-10{fill:#040000;}.cls-11{fill:#474559;}.cls-12{fill:#7d7d7d;}.cls-13{fill:#565ea9;}.cls-14{fill:#777798;}</style><clipPath id="clip-path"><rect class="cls-1" x="26.65" y="5.89" width="368.12" height="231.54"/></clipPath></defs><title>アートボード 1</title><g class="cls-2"><path class="cls-3" d="M295.06,43.05a23.37,23.37,0,0,1-1.38,13.22,44.66,44.66,0,0,1-6.66,11c-1.3,1.7-2.72,3.48-3,5.74-.36,3,1.36,5.72,2.52,8.44a23.31,23.31,0,0,1,1.82,7.59c.16,2.28-.08,4.78-1.46,6.42s-3.34,2-5.2,2.16a56.65,56.65,0,0,1-15.49-.44c1.44-2.24.9-3.62.76-6.42-.26-5.48-3.68-10.43-4.34-15.85-.52-4.32,1.92-8.28,4.24-11.7l10.59-15.69a48.75,48.75,0,0,0,4.76-8.26c.9-2.13,1.08-6.13,3.34-6.83C289.86,31.1,294.22,39.24,295.06,43.05Z"/><path class="cls-4" d="M243,56s-7.31,25.21-11,26.91S254,115.36,254,115.36l18.65-10.67.74-20.51-7.32-.42s-1.1-8.54,2.56-12.82S243,56,243,56Z"/><path class="cls-5" d="M227.73,86c-.42,7-3.66,14.52-9.08,17.08l-.16-3.22A4.58,4.58,0,0,0,214.7,101a13.41,13.41,0,0,0-3.82,5.76,27.83,27.83,0,0,0-1.26,4.63,64.29,64.29,0,0,0-.9,9.7,63.44,63.44,0,0,0,.9,14.63,47.14,47.14,0,0,0,3.54,10.36c-1.58,6.52-3.16,15.43-1.18,19.29,1.5,2.94,2.72,10.83,3.58,18.49a52.8,52.8,0,0,1-12,7.58c-3.62,1.74-8.38,4-12.49,5.64l-5.16.18-3.24-.16a3.29,3.29,0,0,0-.18-1.38l23.05-9.2S198.8,173,193.69,175.6c0,0-14.86,7.47-22.71,8.15-1.3-1.3-2.16-2.48-2.16-3.46,0-4.28,17.61-7.67,21.65-13.37,2.74-3.88,5.23-11.7,6.91-19.65,1.72-8.24,3.08-16.16,5.18-39.31,1.16-12.67,6.92-19.65,17.09-23.34a38.6,38.6,0,0,0,8.1-3.5A44,44,0,0,1,227.73,86Z"/><path class="cls-5" d="M296.06,88v.18c0,.74-.14,3.68-.34,8-.06,1.42-.14,3-.22,4.66-1,19.19-3.2,54.21-7.12,64.89a29.35,29.35,0,0,0-1.6,10.73,49.77,49.77,0,0,0,.44,5.48v0a65.25,65.25,0,0,0,2.72,11.46c.24.72.46,1.38.68,2l.18.48c.22.58.42,1.14.62,1.64.12.34.26.64.36.94.78,1.93,1.34,3.07,1.34,3.07H217.07s0-.14,0-.4c0-.56-.1-1.66-.22-3.18,0-.59-.1-1.25-.13-2-.27-3.32-.64-7.76-1.17-12.28-.86-7.68-2.05-15.55-3.57-18.49-2-3.84-.4-12.76,1.18-19.29,1.06-4.34,2.1-7.62,2.1-7.62s-3-14.41-5.64-27.07a26,26,0,0,1,1.26-4.63,13.49,13.49,0,0,1,3.81-5.76,4.61,4.61,0,0,1,3.8-1.12l.16,3.22c5.44-2.56,8.66-10,9.08-17.08a44.32,44.32,0,0,0,0-4.89c3.76-2.36,7.26-5,7.26-5a11.43,11.43,0,0,0,.32,2c1.55,6.54,8.19,13.53,12.45,17.47,2.14,2,3.7,3.2,3.7,3.2l14.23-13.85,1.08-1h0c.32-.08,6.7-1.74,9.54-1.32a10.87,10.87,0,0,1,2.23.66h0c2.76,1.08,6.22,2.91,9.28,2.35a.47.47,0,0,0,.16,0C292,84.6,296.06,88,296.06,88Z"/><path class="cls-6" d="M394.77,201.18V220c0,6.87-4.74,12.49-10.64,12.57L45.62,237.43c-3.42.06-6.22-3.14-6.26-7.12V209.44c0-3.86,2.64-7,5.94-7.16l8-.28,91.08-3.28,3.1-.12,18.79-.68,11.69-.41,4.74-.19,3.26-.11,5.16-.18,25.6-.92,13.48-.48,3-.12.68,0,56.09-2,1.54-.06,4.06-.14,2.37-.08,7.66-.28,2.58-.1,21.69-.78,4.18-.14,4.84-.18,17.51-.62,26.6-1,2-.06a8.13,8.13,0,0,1,2.62.32,9.16,9.16,0,0,1,4.5,3,12,12,0,0,1,2.72,7.43A1.52,1.52,0,0,1,394.77,201.18Z"/><path class="cls-7" d="M394.77,214.88V220c0,6.87-4.74,12.49-10.64,12.57L45.62,237.43c-3.42,0-6.22-3.14-6.26-7.14v-.74Z"/><path class="cls-8" d="M328.22,201.64l-42.82-6.49-76.16,3.24,27.58,10.09Z"/><path class="cls-9" d="M214.51,198.65v5.13l-41.67,11.1-4-1.06-.12,0-.68-.18-23.75-14.89-6.24-3.9,4.78.24,22.65,1.14,13.93.7,3.22.16,3.24.16,4.18.22,19.27,1Z"/><path class="cls-10" d="M214.51,198.65v5.13l-41.67,11.1-4.08-1.1-.68-5.3Z"/><path class="cls-11" d="M166.62,206.76c.74-.42,16.09-3.84,16.09-3.84l-27.79-3Z"/><path class="cls-4" d="M262.77,77.78c13.13,0,23.77-12.43,23.77-27.77S275.9,22.24,262.77,22.24,239,34.67,239,50,249.64,77.78,262.77,77.78Z"/><path class="cls-4" d="M205.56,186.47l-23.05,9.2-3.06,1.22-1.54.62L175,198.65a7.22,7.22,0,0,1-4.34,3,6.34,6.34,0,0,1-1.22.14c-.54,0-1.12,0-1.76,0a83.24,83.24,0,0,1-10.76-.66,33.55,33.55,0,0,1-9.55-2.53,11,11,0,0,1-4.54-3.56,7.42,7.42,0,0,1-.76-6.66c3.08-10.24,10.62-10.62,16.93-8.8a36.84,36.84,0,0,1,8.3,3.68,6.36,6.36,0,0,0,3.62.48c7.83-.68,22.71-8.16,22.71-8.16C198.78,173,205.56,186.47,205.56,186.47Z"/><path class="cls-11" d="M253.64,155.94l2.55,2.56-23.76,39.3s-3.66.43-2.56-1.69Z"/><path class="cls-11" d="M255.1,158.5l2.55-3.86-1.1-.84L254,157.22Z"/><path class="cls-5" d="M185.91,197.21l5.16-.18-1,.4c-5.08,2-8.88,2.95-7.76.8a3.19,3.19,0,0,0,.32-.91,1.18,1.18,0,0,0,0-.27Z"/><path class="cls-5" d="M205.56,186.47l-23.05,9.2c-1.2-3.86-8-8.36-11.51-11.92,7.83-.68,22.71-8.15,22.71-8.15C198.78,173,205.56,186.47,205.56,186.47Z"/><path class="cls-5" d="M224.75,159.34a33.93,33.93,0,0,1-2.56,10.94c0,.1-.06.2-.1.28-.62,1.78-1,3.2-.56,4.57.28.86-2,1.8-2.3,3.18-.36,1.88-1.8,3.76-3.7,5.52-.86-7.68-2.05-15.55-3.57-18.49-2-3.84-.4-12.76,1.18-19.29a47.84,47.84,0,0,1-3.54-10.36,63.44,63.44,0,0,1-.9-14.63,64.53,64.53,0,0,1,.9-9.7,26,26,0,0,1,1.26-4.63,13.49,13.49,0,0,1,3.81-5.76c1.72,9,3.82,19.91,5.24,27,.5,2.45.9,4.47,1.18,5.75C222.93,142.27,225.11,150.81,224.75,159.34Z"/><path class="cls-12" d="M30.59,130.37l107.22,1.18a4,4,0,0,1,3.52,2.66l28.91,74a4.89,4.89,0,0,1-1.92,6,3.21,3.21,0,0,1-1.76.4L59,210.28a3.92,3.92,0,0,1-3.4-2.62L27,136.87a4.91,4.91,0,0,1,1.86-6.06A3.48,3.48,0,0,1,30.59,130.37Z"/><path class="cls-4" d="M283.62,175.57s-21.21,10.68-26.33,7.7-20.47-10.67-25.22,5.12c-3.84,12.75,18.55,13.55,27.34,13.37a7,7,0,0,0,5.56-3.11l31.09-3.84S288.74,173,283.62,175.57Z"/><path class="cls-10" d="M296.23,94.65s5.3-8.34,7.86-.64,2.2,37.58,2.2,37.58,4.38,15,2.92,24.77,1.46,11.12,1.46,11.12.74,4.28-1.46,6.4-3.66,11.53-2.92,12.81-1.1,9.4-2.56,9.4a33.38,33.38,0,0,1-4.58-.64s-7.49-16-23.2-17.3c0,0,2.55-4.27,1.09-12.81S296.23,94.65,296.23,94.65Z"/><path class="cls-5" d="M295.32,88.45s6-2.78,8.59,4.92,4.94,38.22,4.94,38.22,4.38,15,2.92,24.77,1.46,11.12,1.46,11.12.74,4.28-1.46,6.4-3.66,11.53-2.92,12.81-1.1,9.4-2.56,9.4-15,2.56-15,2.56,2.92-19.22-12.8-20.52c0,0,2.56-4.27,1.1-12.81S295.32,88.45,295.32,88.45Z"/><path class="cls-3" d="M295.08,43.17c-2.8,3.86-7.34,3.82-8.36-2.36a8.84,8.84,0,0,1-1.22,1.08,47.51,47.51,0,0,1-7,4.14c-2.44,1.18-4.75,2.06-5.89,2a7.63,7.63,0,0,1-4.3-.92,17.3,17.3,0,0,1-2.46-2.52c-1.82-1.9-4.58-2.88-6.74-1.56-2.91,1.78-3.73,6.94-6.91,7.92-1.38.42-2.86-.08-4.28-.12a3.82,3.82,0,0,0-1.82.32c-1.54.72-2.42,2.76-2.44,4.7v.36A13.82,13.82,0,0,0,245,61.41c.3.69.62,1.37,1,2.07,1.66,3.48,3.62,6.9,4.8,10.54a20.48,20.48,0,0,1,1.1,6.26,30.41,30.41,0,0,1-1.9,9.63,38.26,38.26,0,0,1-2.24,5.62,14,14,0,0,1-2,2.9,12,12,0,0,1-3.26,2.54,23.07,23.07,0,0,1-7.41,2.22,76.51,76.51,0,0,1-16.42.76c-.66,0-1.3-.08-2-.14a9.68,9.68,0,0,0,1.91-.68c5.44-2.56,8.66-10,9.08-17.08a44.32,44.32,0,0,0,0-4.89c-.34-6.16-1.78-12.26-2.5-18.4a162.53,162.53,0,0,1-.8-17.13c-.06-6.57-.08-13.47,2.58-19.25a32.88,32.88,0,0,1,7.4-9.62c3.55-3.45,7.35-6.67,11.65-8.65a24.08,24.08,0,0,1,20.49.28c5.26-2.6,11.51-1.5,16.47,1.86s8.9,9,11.78,15C298.69,33.24,297.57,39.75,295.08,43.17Z"/><path class="cls-4" d="M246.14,63.46c1.82,0,3.3-3.06,3.3-6.83s-1.48-6.84-3.3-6.84-3.3,3.06-3.3,6.84S244.32,63.46,246.14,63.46Z"/><path class="cls-5" d="M278.5,83.12s20.29,3.41,21.39,5.11-1.1,12-1.1,12l-14.63,3-11.25-2.84Z"/><path class="cls-5" d="M219.91,128l2.1,41.3a56,56,0,0,0-2.08-8.3c-1.86-5.36-4.53-10-6.79-14.91a47.84,47.84,0,0,1-3.54-10.36,63.44,63.44,0,0,1-.9-14.63,64.53,64.53,0,0,1,.9-9.7,26,26,0,0,1,1.26-4.63,13.49,13.49,0,0,1,3.81-5.76,4.61,4.61,0,0,1,3.8-1.12l.16,3.22,0,.82Z"/><path class="cls-5" d="M222.71,183.05l-.64-12.49-.06-1.3c.06.34.12.68.16,1A56.76,56.76,0,0,1,222.71,183.05Z"/><path class="cls-13" d="M336,195.29l35.36,16.53,22.11-4.66-1.92-18.49-.28-2.68-37.14-13.43-2.66,3.1Z"/><path class="cls-10" d="M356.35,175.85v17.88l37.14,13.43-1.92-18.49Z"/><path class="cls-14" d="M322.16,199.14l2.5,1.08,29.85,12.92,2.32,1a.44.44,0,0,0,.44-.06l2.73-2.14,28.45-22.29,2.68-2.1a.67.67,0,0,0,.14-.8.5.5,0,0,0-.26-.24L386.73,185l-30.1-10.77-2.64-.94a.41.41,0,0,0-.42.08L351.49,175l-26.83,21.12-2.6,2a.67.67,0,0,0-.14.8A.46.46,0,0,0,322.16,199.14Z"/><path class="cls-8" d="M383.75,189.47l-26.64,21.17a.84.84,0,0,1-.88.12l-28.29-12.08a1.18,1.18,0,0,1-.58-1.47,1,1,0,0,1,.38-.56L353.53,177a.84.84,0,0,1,.82-.13l29.14,10.55a1.18,1.18,0,0,1,.64,1.44A1,1,0,0,1,383.75,189.47Z"/><path class="cls-13" d="M386.73,185v4.68h1.72l2.68-2.1a.67.67,0,0,0,.14-.8.5.5,0,0,0-.26-.24Z"/><path class="cls-13" d="M354.53,211.68v1.46l2.32,1a.44.44,0,0,0,.44-.06l2.73-2.14v-.26Z"/><path class="cls-13" d="M322.16,199.14l2.5,1.08v-4.13l-2.6,2a.67.67,0,0,0-.14.8A.46.46,0,0,0,322.16,199.14Z"/><path class="cls-13" d="M351.49,175h5.12v-.75l-2.64-.94a.41.41,0,0,0-.42.08Z"/><path class="cls-8" d="M340.29,185.39a.42.42,0,0,0,0-.84.43.43,0,0,0,0,.84Z"/></g></svg>