<svg id="レイヤー_1" data-name="レイヤー 1" xmlns="http://www.w3.org/2000/svg" viewBox="0 0 899.37 233.99"><defs><style>.cls-1{fill:#e8d125;}.cls-2{fill:#231815;}</style></defs><title>アートボード 12</title><path class="cls-1" d="M7.41,66.59l32.36.16-.5,100.64c-.11,22.77,11.61,34.07,35.15,34.19,24.2.12,40-12.73,41.35-31.56l.52-102.89,32.37.16-.77,154.61-26.49-.13-5.15-15.48h-1.31c-6.9,7.27-22.65,18.44-50.44,18.3-37.28-.18-57.14-17.15-57.62-52.86Z"/><path class="cls-1" d="M317.75,222.75l-32.38-.16.5-100.64c.11-21.08-11.93-33.23-34.49-33.34-19.95-.1-35.37,10.79-41.32,24.81l-.55,108.79-32.37-.16.77-154.61,24.85.12,6.46,15.78h1.31c6.9-7.27,25.27-19,50.45-18.86,35.64.18,56.81,17.15,57.3,51.45Z"/><path class="cls-2" d="M496,127.26l-26.57,95.88L445.78,223,414,110.3l18,.09,16.79,62.16c3.31,12,6.4,23.83,9,36.26h.9c2.52-10.95,5.05-21.5,8-31.82l18.77-66.33,22.49.11,17.66,66.51c2.64,10.36,5.29,20.51,7.71,31.9h.9c3-12.2,6.19-24.6,9.63-36.37L561.48,111l16.87.09L545,223.52l-23.61-.12-24.49-96.13Z"/><path class="cls-2" d="M588.84,167.66c.17-34.76,15.45-58.48,55.16-58.28,40,.2,53.55,23.44,53.38,57.78-.17,34.77-15.69,58.9-55.4,58.7S588.66,202.21,588.84,167.66Zm54.65,44.14c25.27.13,34.49-14.11,34.63-43.49.15-30.21-10.36-44.95-35.63-45.08-24.79-.12-34.25,14.11-34.39,43.28C607.94,196.72,618.46,211.68,643.49,211.8Z"/><path class="cls-2" d="M786.38,128.08a59.22,59.22,0,0,0-14.67-1.72c-12.76-.07-26,4.21-32.33,14.32l-.41,83.8-18.53-.09L721,111.83l14.2.07,4,12.43h1c5.81-8,17.88-14.19,33-14.12a66.76,66.76,0,0,1,13.24,1.1Z"/><rect class="cls-2" x="738.18" y="136.71" width="163.87" height="18.77" transform="translate(669.93 965.47) rotate(-89.71)"/><polygon class="cls-2" points="827.03 158.09 821.97 164.16 822.06 145.68 826.09 158.09 827.03 158.09"/><polygon class="cls-2" points="892.48 228.39 868.68 228.27 821.94 170.66 819.62 167.79 819.63 166.93 821.97 164.16 827.03 158.09 829.46 155.24 829.5 155.2 838.1 144.98 866.86 110.81 890.21 110.93 841.55 166.63 841.54 167.49 892.48 228.39"/><path class="cls-1" d="M375.68,79.53v-.08c0-.41,0-.78,0-1.18a11.67,11.67,0,0,0-11.81-10c-6.5,0-11.8,4.85-11.91,10.94v.2c-1.56,33.94-5,102.67-5.18,144.13l32.68.17C379.62,182.2,376.9,113.48,375.68,79.53Z"/><path class="cls-1" d="M375.68,79.45v.08c-.08,6.1-5.42,11-12,11s-11.79-5-11.8-11.15v-.2c.11-6.09,5.41-11,11.91-10.94a11.67,11.67,0,0,1,11.81,10C375.64,78.67,375.68,79,375.68,79.45Z"/><circle class="cls-1" cx="364.05" cy="28.37" r="22.77"/><rect class="cls-2" x="450.72" y="205.28" width="16.15" height="17.66" transform="translate(242.4 671.83) rotate(-89.71)"/><rect class="cls-2" x="526.12" y="205.66" width="16.15" height="17.66" transform="translate(317.06 747.61) rotate(-89.71)"/></svg>