<svg id="レイヤー_1" data-name="レイヤー 1" xmlns="http://www.w3.org/2000/svg" viewBox="0 0 595.28 595.28"><defs><style>.cls-1{fill:#231815;}.cls-2{fill:#30304a;}.cls-3{fill:#fff;}.cls-4{fill:#ecbe55;}</style></defs><title>アートボード 1</title><path class="cls-1" d="M472.84,527.74v2.09h-2.78C471,529.15,471.92,528.44,472.84,527.74Z"/><path class="cls-1" d="M529.83,470.05v2.78h-2.08C528.45,471.91,529.14,471,529.83,470.05Z"/><path class="cls-2" d="M297.63,0C133.26,0,0,133.25,0,297.64S133.26,595.28,297.63,595.28H419.28V536.6h55.81c1-.7,1.91-1.42,2.86-2.14V478h56.51c.73-1,1.43-1.91,2.15-2.86V419.28h58.65V297.64C595.26,133.25,462,0,297.63,0ZM574.38,398.4H515.72v58.65H457.06v58.67H398.39v58.66H297.63A276.82,276.82,0,0,1,189.93,42.63a276.66,276.66,0,0,1,384.45,255Z"/><path class="cls-3" d="M574.38,297.64V398.4H515.72v58.65H457.06v58.67H398.39v58.66H297.63A276.82,276.82,0,0,1,189.93,42.63a276.66,276.66,0,0,1,384.45,255Z"/><polygon class="cls-4" points="595.26 485.74 595.26 595.27 485.73 595.27 595.26 485.74"/></svg>