<svg id="レイヤー_1" data-name="レイヤー 1" xmlns="http://www.w3.org/2000/svg" viewBox="0 0 918 506"><defs><style>.cls-1{fill:#f0efef;}.cls-2{fill:#9fa0a0;}.cls-3{fill:#e9c242;}.cls-4{fill:#090a24;}.cls-5{fill:#fff;}</style></defs><title>アートボード 43 のコピー</title><path class="cls-1" d="M918,0H0V506H918Z"/><path class="cls-2" d="M879.89,29.25V55.41H853.72V29.25Zm.85-.85H852.87V56.26h27.87Z"/><path class="cls-3" d="M465.52,415.17a10.44,10.44,0,0,1-.57,3,5.14,5.14,0,0,1-3,2.89,18.25,18.25,0,0,1-3,.65,2.22,2.22,0,0,1-1.37-.33,10,10,0,0,1-4.29-6.24,5.47,5.47,0,0,1,3-6.13,3.33,3.33,0,0,0,.46-.24,4.33,4.33,0,0,1,3.56-.53,8,8,0,0,1,3.14,1.68c1.56,1.26,1.81,2.92,1.92,4.7a4.38,4.38,0,0,1,0,.51Z"/><path class="cls-3" d="M580.93,419.65a9.85,9.85,0,0,1-3.47,4.41,3.67,3.67,0,0,1-.81.42,7.58,7.58,0,0,1-8.17-2.77A11.34,11.34,0,0,1,567,419a9.74,9.74,0,0,1,1-7.4,5.26,5.26,0,0,1,3.33-2.64c1.06-.3,2.16-.43,3.24-.64a5.89,5.89,0,0,1,4.61,2.29,7.51,7.51,0,0,1,2,5,4.85,4.85,0,0,0,.14.82A5.64,5.64,0,0,1,580.93,419.65Z"/><path d="M473,420c-.09-1.58-.17-3.15-.28-4.73-.13-2-.3-3.92-.43-5.88-.1-1.34-.15-2.68-.27-4a1.73,1.73,0,0,0-1.83-1.72c-.83-.05-1.66-.1-2.48-.18s-1.5-.22-2.25-.31a1.62,1.62,0,0,0-2,1.12c0,.08-.14.13-.17.17a15.14,15.14,0,0,0-2.93-1.12c-2.78-.45-5.51-.34-7.93,1.39a7.42,7.42,0,0,1-1.26.71,9.33,9.33,0,0,0-3.91,3.71,11.64,11.64,0,0,0-1.65,6.32,10.22,10.22,0,0,0,.88,5.06c.1.21.07.48.15.69.33.82.38,1.76,1.09,2.41a11.93,11.93,0,0,1,1.54,1.47,6.66,6.66,0,0,0,4.07,2.93c.14,0,.26.11.39.15a6.6,6.6,0,0,0,3.43.53c1.94-.46,4-.55,5.8-1.48,0,0,.12,0,.26.05a4.8,4.8,0,0,1-2.48,3.77,14.89,14.89,0,0,1-3.13,1,1.08,1.08,0,0,1-.86-.18,10.39,10.39,0,0,1-1.79-1.84,1.71,1.71,0,0,0-1.53-.84,8.6,8.6,0,0,1-1.24,0,13.34,13.34,0,0,0-4.32.24,1.79,1.79,0,0,0-1.53,2.33,8.26,8.26,0,0,0,1.26,2.79,9,9,0,0,0,4.93,3.86,8.55,8.55,0,0,0,1.61.22c.62.07,1.24.1,1.85.18a6.24,6.24,0,0,0,1.73.25c1.41-.26,2.88,0,4.28-.57a25.36,25.36,0,0,0,5.38-2.58,17.72,17.72,0,0,0,3.61-3.52,8.55,8.55,0,0,0,2-4.28,42.16,42.16,0,0,0,.25-4.64C473.2,422.32,473.07,421.16,473,420Zm-9.9-.58a5.18,5.18,0,0,1-3,2.89,18.25,18.25,0,0,1-3,.65,2.18,2.18,0,0,1-1.36-.33,10,10,0,0,1-4.3-6.25,5.46,5.46,0,0,1,3-6.12,5,5,0,0,0,.46-.24,4.34,4.34,0,0,1,3.57-.53,8,8,0,0,1,3.13,1.68c1.57,1.26,1.82,2.92,1.92,4.7a4.38,4.38,0,0,1,0,.51l.17,0A10.79,10.79,0,0,1,463.11,419.41Z"/><path d="M523.24,405.51a12.82,12.82,0,0,1,13,1.33l2.16-1.51a8.32,8.32,0,0,1,7.09-1.22,16.36,16.36,0,0,1,3.08.78,7.61,7.61,0,0,1,4,4.35,26.85,26.85,0,0,1,1.72,5.62c.26,1.8.58,3.59.76,5.4.1,1.05-.1,2.12,0,3.18.12,1.68.37,3.35.55,5a2.41,2.41,0,0,1,0,.71c-.11.8-.22.91-1,1.08a13,13,0,0,1-3.79.35,8.49,8.49,0,0,0-1.33.09c-1.1.11-1.81-.27-2-1.31a18.14,18.14,0,0,1-.32-3.28c0-1.62.26-3.24.16-4.84-.17-2.9-.59-5.77-2.24-8.28a6.16,6.16,0,0,0-.68-.91,2.75,2.75,0,0,0-4.61.68,14.89,14.89,0,0,0-1.24,3.6,24.47,24.47,0,0,0-.25,6.39c.09,2,.26,4.06.39,6.09a3,3,0,0,1,0,.42c-.07.77-.44,1-1.18.87A5.71,5.71,0,0,0,536,430c-1,0-1.91.15-2.87.2a1.48,1.48,0,0,1-1.54-1.42,39.09,39.09,0,0,1,0-8,2.9,2.9,0,0,0,0-.72c-.13-2-.27-3.92-.39-5.89a3.14,3.14,0,0,0-3.88-2.89,4,4,0,0,0-3.19,2.48,1.29,1.29,0,0,1-.22.35,4.32,4.32,0,0,0-1,3.45c0,2.51,0,5,0,7.55,0,1.06.21,2.12.32,3.18a5.81,5.81,0,0,1,.06.93,1.07,1.07,0,0,1-.86,1,10.25,10.25,0,0,1-3.9.12,1.48,1.48,0,0,1-1.46-1.58c0-.55-.1-1.1-.15-1.65-.14-1.92-.32-3.85-.41-5.77-.08-1.61-.05-3.23-.1-4.84,0-1.17-.16-2.34-.22-3.52-.1-2-.24-3.92-.26-5.89s.16-2.28,2.14-2.54a11.21,11.21,0,0,1,3.79-.15C522.51,404.54,523.08,404.73,523.24,405.51Z"/><path d="M383.22,404.65c2.22-.76,4.36-1.42,6.72-1s4.45.86,6.15,2.48a16.73,16.73,0,0,1,4.18-2.63,8.5,8.5,0,0,1,5-.23c.93.24,1.89.36,2.79.69a6.86,6.86,0,0,1,3,2.08,12.25,12.25,0,0,1,2.14,4.4,27.2,27.2,0,0,1,1.15,4.17c.28,2,.81,3.94.54,6a22.56,22.56,0,0,0,.26,4.62c.08.86.27,1.7.38,2.55.14,1.1-.23,1.42-1.3,1.71-1.7.45-3.43.16-5.14.38a1.45,1.45,0,0,1-1.7-1.18,16.42,16.42,0,0,1-.39-3.28c0-1.64.27-3.3.18-4.94-.16-2.93-.59-5.83-2.27-8.37a5.81,5.81,0,0,0-.54-.76,2.77,2.77,0,0,0-4.74.63,15.28,15.28,0,0,0-1.24,3.71,24.89,24.89,0,0,0-.21,6.39c.1,2,.26,4,.38,6,.07,1.12-.28,1.37-1.42,1.12a3.55,3.55,0,0,0-1-.05l-3,.21a1.46,1.46,0,0,1-1.59-1.46,39.08,39.08,0,0,1,0-8,4.17,4.17,0,0,0,0-.93c-.12-1.83-.27-3.65-.36-5.48a3.41,3.41,0,0,0-2.83-3.19,4.38,4.38,0,0,0-3.07,1,2.9,2.9,0,0,0-1.12,1.45,1.24,1.24,0,0,1-.31.53,4.11,4.11,0,0,0-1,3.25c0,2.59,0,5.18,0,7.76,0,1.07.22,2.13.33,3.19a2.69,2.69,0,0,1,0,1c-.09.3-.33.7-.58.77a7.78,7.78,0,0,1-4.68.06,1.19,1.19,0,0,1-.88-1.15c-.06-1-.16-2-.24-3-.11-1.48-.26-2.95-.32-4.43-.08-1.72-.07-3.43-.13-5.15-.05-1.14-.16-2.27-.22-3.41-.11-2-.25-4-.27-6s.14-2.24,2.1-2.49a10.59,10.59,0,0,1,3.89-.13C382.75,403.82,382.76,403.78,383.22,404.65Z"/><path d="M371.26,407.11c0,1.2,0,2.33,0,3.46,0,.93.13,1.85.16,2.78a36.75,36.75,0,0,1-1,9.11,4.63,4.63,0,0,1-.64,1.5c-1.13,1.74-2.29,3.53-4.16,4.51a8.85,8.85,0,0,1-3.65,1.2c-.37,0-.72.23-1.09.27a12,12,0,0,1-5.24-.15,6.61,6.61,0,0,1-4.37-3.68,8.89,8.89,0,0,0-.9-1.62,11.89,11.89,0,0,1-1.67-5.46c-.2-1.74-.37-3.48-.45-5.23a25.21,25.21,0,0,1,0-5.76,24.27,24.27,0,0,0,.11-3.2c.05-.94.16-.84,1-1.27a4.76,4.76,0,0,1,2.28-.33,19.58,19.58,0,0,0,3.9-.12c.48-.12.85.26.87.9,0,.86-.05,1.73-.05,2.59,0,2.3-.15,4.61,0,6.91a38.61,38.61,0,0,0,.8,5.32,7.12,7.12,0,0,0,1.64,3.19c1,1.2,2.41,1.07,3.48-.32a5,5,0,0,0,1-3.08c0-.69.1-1.38.13-2.06s.08-1.45.09-2.17c0-1.72.05-3.45.09-5.17,0-1.48.09-3,.13-4.43,0-.24,0-.48,0-.72.12-1,.22-1,1.16-1.27a10.38,10.38,0,0,1,4.8.06A1.48,1.48,0,0,1,371,404.3C371.12,405.25,371.18,406.21,371.26,407.11Z"/><path d="M485.59,407.85c0,1.79-.11,3.82,0,5.84a43.24,43.24,0,0,0,.82,5.42,7,7,0,0,0,1.67,3.18c1,1.15,2.35,1,3.41-.34a5.1,5.1,0,0,0,1-3.08c0-.72.11-1.44.14-2.16s0-1.52.06-2.28c0-1.65,0-3.3.1-5,0-1.47.08-3,.14-4.43a4.12,4.12,0,0,1,.12-1.22,1.2,1.2,0,0,1,.63-.72,7.69,7.69,0,0,1,3.66-.25c.43.12.9.11,1.34.19,1.21.22,1.47.43,1.65,1.64.13.91.14,1.84.18,2.77.08,2.2.17,4.39.21,6.59a35.86,35.86,0,0,1-.91,8,11.27,11.27,0,0,1-3.14,5.22c-.39.43-.91.73-1.33,1.13a3.73,3.73,0,0,1-1.76.8c-.49.12-.94.41-1.42.53a14.1,14.1,0,0,1-6.82.38,6.6,6.6,0,0,1-4.79-3.74,11.44,11.44,0,0,0-.95-1.71,12.47,12.47,0,0,1-1.66-5.89c-.15-1.6-.37-3.2-.43-4.81a23.81,23.81,0,0,1,0-5.66,19.93,19.93,0,0,0,.09-3.1,1.28,1.28,0,0,1,1.07-1.46,8.68,8.68,0,0,1,2.08-.28,20.58,20.58,0,0,0,4-.11c.5-.12.87.22.9.87,0,.82,0,1.65,0,2.48C485.65,407,485.62,407.3,485.59,407.85Z"/><path d="M442,407.2c0,1.27,0,2.51,0,3.74,0,1,.11,1.92.15,2.88a37.12,37.12,0,0,1-1,8.91,4.43,4.43,0,0,1-.56,1.31,12.59,12.59,0,0,1-4.48,4.9,9.66,9.66,0,0,1-2.89,1,23.92,23.92,0,0,1-5.22.46c-2.11,0-5.46-2.11-6.07-4.06a24.35,24.35,0,0,0-1.49-2.92,7.88,7.88,0,0,1-.69-1.92c-.25-1.39-.45-2.8-.58-4.21s-.07-3-.23-4.51a17.46,17.46,0,0,1-.11-3.39c.11-1.41.15-2.82.23-4.22.06-1,.13-.88,1.05-1.33a4,4,0,0,1,2.18-.31c1,.06,2,.08,3,.09a3.57,3.57,0,0,0,.71-.14c.69-.15,1.08.1,1.12.8s0,1.59,0,2.38c0,1.65,0,3.31-.07,4.95a32.28,32.28,0,0,0,.74,7.27,7.17,7.17,0,0,0,1.73,3.48c1,1.14,2.26,1.07,3.35-.24a4.73,4.73,0,0,0,1.07-3.35,16.41,16.41,0,0,1,.12-1.85c.05-.73.12-1.45.13-2.17,0-1.65,0-3.3,0-4.94s.12-3.17.18-4.76c0-.31,0-.62,0-.93a1,1,0,0,1,.86-1,13.94,13.94,0,0,1,2.55-.29,20,20,0,0,1,2.86.44,1.07,1.07,0,0,1,1,1C441.78,405.24,441.89,406.23,442,407.2Z"/><path d="M585.4,413.1c-.35-.9-.74-1.78-1.14-2.66a28.38,28.38,0,0,0-1.27-2.67,7.05,7.05,0,0,0-3.92-3.13c-.84-.3-1.69-.57-2.5-.94a3.8,3.8,0,0,0-1.8-.39l-3.51.17a2.43,2.43,0,0,0-.61.1c-1.09.3-2.19.59-3.26.94a8.19,8.19,0,0,0-4.1,2.48,31.15,31.15,0,0,0-2.81,4.21,15.2,15.2,0,0,0-1.77,7.29,28.07,28.07,0,0,1,.44,2.85,7.52,7.52,0,0,0,1.81,4.53,14.55,14.55,0,0,0,4.56,3.51c.79.41,1.66.69,2.41,1.17a5.37,5.37,0,0,0,3.89.58,7.65,7.65,0,0,1,2.57,0,2.25,2.25,0,0,0,2.12-.48,1.58,1.58,0,0,1,.65-.27,9.55,9.55,0,0,0,4.25-2.95A26.41,26.41,0,0,0,583.2,425a11.22,11.22,0,0,0,2.55-6.19,9,9,0,0,1,.18-1.74A6.29,6.29,0,0,0,585.4,413.1Zm-6.32,7.78a9.85,9.85,0,0,1-3.47,4.41,3.46,3.46,0,0,1-.81.42,7.58,7.58,0,0,1-8.17-2.77,11.34,11.34,0,0,1-1.51-2.7,9.73,9.73,0,0,1,1-7.4,5.26,5.26,0,0,1,3.33-2.64c1.06-.3,2.16-.43,3.24-.64a5.89,5.89,0,0,1,4.61,2.29,7.46,7.46,0,0,1,2,5,4.85,4.85,0,0,0,.14.82A5.64,5.64,0,0,1,579.08,420.88Z"/><path d="M318,403.59h3.28a11.33,11.33,0,0,1,1.65.09c.85.13,1,.3,1,1.16,0,1.31,0,2.62-.06,3.93,0,.55,0,1.1,0,1.64.07,1-.4,1.45-1.4,1.34s-1.84-.06-2.76-.07h-1.4a4.55,4.55,0,0,0-.12.69c0,2.68,0,5.36,0,8s0,5.31,0,8c0,.93-.36,1.32-1.26,1.4a16.92,16.92,0,0,0-3.73.51,1.81,1.81,0,0,1-2.3-1.58,32.28,32.28,0,0,1-.56-6c0-1.47-.06-2.94-.06-4.42,0-1.95,0-3.91,0-5.86a12.08,12.08,0,0,0-.14-1.33l-2.08.15c-.72.06-1.44.16-2.16.15a1.58,1.58,0,0,1-1.85-1.54,21.27,21.27,0,0,1-.24-2.77c0-.45,0-.9.05-1.35,0-.9.25-1.18,1.08-1.31l5.05-.7a4.41,4.41,0,0,0,.13-.89c-.06-1.31-.19-2.62-.22-3.92a29.77,29.77,0,0,1,.11-3c.06-.75.32-1,1.1-1.14a5.68,5.68,0,0,1,2.46.1c1,.22,2,.43,3,.6s1.07.3,1.08,1.24c0,2.06.1,4.13.16,6.19C317.85,403.11,317.9,403.27,318,403.59Z"/><path d="M599.9,416.92c.31-.71.65-1.42.92-2.14.55-1.42,1-2.87,1.59-4.26.72-1.72,1.53-3.39,2.32-5.08a8,8,0,0,1,.91-1.71,2,2,0,0,1,1.16-.57,13,13,0,0,1,2.07-.11,21.62,21.62,0,0,1,2.79.06,9.45,9.45,0,0,1,2.15.69c.43.17.46.58.28,1-.37.81-.75,1.62-1.17,2.42-.9,1.74-1.89,3.45-2.72,5.22-1,2.18-1.92,4.42-2.87,6.63s-1.75,4.2-2.67,6.27c-.47,1.07-1,2.11-1.57,3.15a1.62,1.62,0,0,1-1.59,1,6.23,6.23,0,0,0-1.55.16,1.79,1.79,0,0,1-2.08-.92,45.69,45.69,0,0,1-3.09-6.18c-1.21-2.74-2.37-5.5-3.55-8.26-.84-2-1.69-3.93-2.52-5.9a27.44,27.44,0,0,1-1.09-2.77c-.59-2.09-.14-2.67,1.88-2.73,1.24,0,2.48.08,3.73.11a1.88,1.88,0,0,1,1.9,1.31q.93,2.58,1.87,5.15c.17.49.39,1,.55,1.45.43,1.23.83,2.48,1.26,3.71.28.8.58,1.59.88,2.39Z"/><path d="M344.32,407.45c-.23.29-.37.48-.53.67l-1.47,1.66c-.17.18-.3.4-.47.57-.71.7-1.15.72-2,.1a5.13,5.13,0,0,0-2.74-1.31,2.75,2.75,0,0,0-2.05,1.23c-.17.45.17.92.8,1.2a12.32,12.32,0,0,1,1.8.84,12.53,12.53,0,0,1,4,3.9,6.29,6.29,0,0,0,.66,1,4.54,4.54,0,0,1,1.09,3.65c-.08.92-.05,1.85-.2,2.75a9,9,0,0,1-1.68,3.4,4.35,4.35,0,0,1-.62.84,6.1,6.1,0,0,1-1.33,1c-.76.37-1.61.56-2.36,1a4.61,4.61,0,0,1-4-.08c-1.29-.49-2.55-1.05-3.86-1.46a4.84,4.84,0,0,1-2.89-2.64,1.09,1.09,0,0,1,0-.9,15.73,15.73,0,0,1,3.11-3.74.8.8,0,0,1,1.16,0c.72.63,1.49,1.2,2.14,1.88a4,4,0,0,0,1.91,1.08,2.39,2.39,0,0,0,2.57-1.3,1.7,1.7,0,0,0-.19-2.06c-.71-1.12-1.91-1.53-3-2.09a11,11,0,0,0-1.36-.59,7.12,7.12,0,0,1-2.78-2.23,10.85,10.85,0,0,1-1.55-2.25,5.26,5.26,0,0,1-.66-3.67c.15-.69.2-1.4.34-2.08.48-2.24,2-3.44,4-4.31a12.81,12.81,0,0,1,4.76-.86,2.83,2.83,0,0,1,1.51.38q2.29,1.44,4.49,3A9.21,9.21,0,0,1,344.32,407.45Z"/><path d="M503.76,425c-.4-2,2.12-4.35,4.7-3.61a4.87,4.87,0,0,1,2.8,2,3.82,3.82,0,0,1,.16,4.3,2.84,2.84,0,0,1-2.85,1.5c-1.29-.25-2.64-.38-3.61-1.53A3.46,3.46,0,0,1,503.76,425Z"/><path class="cls-4" d="M550.78,222.09c.76-2,1.54-3.92,2.3-5.87a10.19,10.19,0,0,1,.43-.95,41.16,41.16,0,0,0,2.31-4,57.31,57.31,0,0,0,2.21-6.21,32.31,32.31,0,0,0,.86-4.36c.22-1.36.32-2.74.47-4.11q.36-3.14.71-6.27a8.66,8.66,0,0,1,.16-1,42.84,42.84,0,0,0,1.2-4.47,57.78,57.78,0,0,0,.53-6.58,33,33,0,0,0-.3-4.43c-.14-1.37-.4-2.72-.61-4.08q-.46-3.12-.94-6.24c0-.35-.1-.69-.11-1a39.74,39.74,0,0,0,0-4.63,57.24,57.24,0,0,0-1.2-6.48,31,31,0,0,0-1.43-4.2c-.49-1.29-1.09-2.53-1.65-3.79l-2.52-5.79a8.78,8.78,0,0,1-.37-1,41.38,41.38,0,0,0-1.2-4.47,56.81,56.81,0,0,0-2.83-6,32.18,32.18,0,0,0-2.47-3.7c-.81-1.11-1.71-2.15-2.57-3.23l-3.93-4.93a9.4,9.4,0,0,1-.61-.84,39.5,39.5,0,0,0-2.32-4,58.33,58.33,0,0,0-4.27-5,33.19,33.19,0,0,0-3.34-2.93c-1.08-.86-2.22-1.64-3.33-2.46-2.41-1.77-4.81-3.56-7.23-5.33-.44-.32-.94-.57-1.41-.86-2.14-1.33-4.25-2.71-6.44-4-2-1.16-4.13-2.21-6.24-3.24a79.45,79.45,0,0,0-11.19-4.59q-2.46-.76-4.93-1.44c-1.92-.54-3.85-1.08-5.8-1.53a28.12,28.12,0,0,0-3.66-.56c-1.54-.15-3.09-.21-4.64-.31-.64,0-1.29-.09-1.93-.17-.93-.11-1.84-.29-2.77-.39-1.19-.13-2.39-.23-3.59-.29a37.53,37.53,0,0,0-6.09.07,33.14,33.14,0,0,1-6.38.35,42.33,42.33,0,0,0-9.05.8c-1.23.19-2.46.42-3.68.67a30.56,30.56,0,0,0-4,.85l-1.22.26a60.44,60.44,0,0,0-10.17,3.15c-.54.21-1.08.45-1.64.63a16.42,16.42,0,0,0-1.9.77l-2,.77c-.87.31-1.79.5-2.65.84a31.36,31.36,0,0,0-5.89,3c-1.26.83-2.58,1.57-3.86,2.37-1,.62-2,1.25-3,1.91l-.59.41c-.91.55-1.78,1.13-2.66,1.71-1.33.87-2.56,1.87-3.85,2.79-.76.53-1.6.94-2.34,1.49a31.73,31.73,0,0,0-4.92,4.42c-1,1.13-2.08,2.19-3.11,3.28-.82.87-1.64,1.74-2.43,2.64-.15.18-.31.36-.46.55-.73.75-1.43,1.54-2.13,2.33-1.05,1.18-2,2.47-3,3.69-.6.71-1.3,1.33-1.87,2a31.23,31.23,0,0,0-3.62,5.54c-.67,1.35-1.44,2.65-2.15,4-.57,1.05-1.14,2.1-1.66,3.17-.11.21-.21.43-.31.65-.51.92-1,1.86-1.45,2.8-.71,1.42-1.27,2.91-1.94,4.34-.39.84-.9,1.62-1.27,2.47a31.29,31.29,0,0,0-2.06,6.29c-.3,1.47-.71,2.93-1.05,4.4-.27,1.16-.55,2.32-.78,3.49,0,.23-.09.47-.13.71-.25,1-.47,2.05-.68,3.08-.32,1.55-.47,3.13-.75,4.69-.15.91-.45,1.8-.59,2.72a31.64,31.64,0,0,0-.36,6.6c.1,1.5.08,3,.12,4.52,0,1.2.07,2.39.15,3.58l.06.71c0,1.06.09,2.11.15,3.16.09,1.58.35,3.15.49,4.73.08.92,0,1.85.13,2.77a31.18,31.18,0,0,0,1.36,6.47c.48,1.43.86,2.89,1.29,4.34.34,1.14.68,2.28,1.07,3.41l.24.68c.29,1,.63,2,1,3,.5,1.5,1.15,3,1.7,4.44.31.87.5,1.78.84,2.64a31.15,31.15,0,0,0,3,5.9c.83,1.26,1.57,2.58,2.37,3.86.62,1,1.25,2,1.91,3l.41.59c.55.9,1.13,1.78,1.71,2.66.87,1.32,1.87,2.55,2.79,3.85.53.75.94,1.59,1.49,2.33a31.34,31.34,0,0,0,4.42,4.93c1.13,1,2.19,2.08,3.28,3.11.87.82,1.74,1.64,2.64,2.42a24.05,24.05,0,0,0,2.11,1.66c1.37,1,2.73,2,4.15,2.86,1.18.73,2.39,1.41,3.61,2.09a54.49,54.49,0,0,0,4.21,3.49,50.23,50.23,0,0,0,10,5.54l.05,0a53.71,53.71,0,0,0,7.15,3.89c2.29,1,4.58,2,6.89,3,3.18,1.35,6.32,2.16,9.53,3.42A54,54,0,0,0,450.86,279a45,45,0,0,0,5.79.65,34,34,0,0,0,4.62.22c1.37-.14,2.58-.11,3.94-.32l6.24-.94c.34,0,.69-.1,1-.11a39.75,39.75,0,0,0,4.63,0,57.41,57.41,0,0,0,6.49-1.2,32,32,0,0,0,4.2-1.43c1.28-.49,2.53-1.09,3.79-1.65l5.78-2.52a9.62,9.62,0,0,1,1-.37,41.56,41.56,0,0,0,4.48-1.2,56.81,56.81,0,0,0,5.95-2.83,31.22,31.22,0,0,0,3.69-2.47c1.11-.81,2.64-1.51,3.72-2.37l4.93-3.94c.28-.21.55-.43.84-.61a35.2,35.2,0,0,0,3.53-2.51,58.33,58.33,0,0,0,5-4.27,31.88,31.88,0,0,0,2.92-3.34c.87-1.08,1.64-2.22,2.46-3.33l3.75-5.07a7.29,7.29,0,0,1,.66-.81,43.86,43.86,0,0,0,3.27-3.27,56.21,56.21,0,0,0,3.74-5.43,32.07,32.07,0,0,0,2-4C549.82,224.68,550.27,223.37,550.78,222.09Z"/><path class="cls-5" d="M448.09,136.92c-4.33-1.37-6.7-.61-4.7,4.33-2.24-.09-2.7-2.1-4.39-2.75-1.52.88-1.49,3-3,4.5-.14-4.9-2.23-6.23-7.06-2.59l2.7-5.52c-1.45-1.29-3.28-.69-4.81-1.48.55-1.95,3.1-1.48,3.95-3.37L427.09,126c3.65.47,7.53,1.63,4.89-5.28,4.36,4.7,6.4,3.22,7.66-1.23.52,4.57,1.18,7.88,7.17,2.14-2.61,5.1-3.54,8.24,3.52,7.45l-5.4,3.27C445.16,134.16,447.35,134.7,448.09,136.92Z"/><path class="cls-5" d="M465.19,227.46c-2.29-1.46-3.78-1.38-3.38,1.78-1.28-.4-1.23-1.63-2.12-2.27-1,.27-1.32,1.5-2.45,2.13.68-2.85-.32-3.94-3.68-2.58l2.42-2.78c-.65-1-1.8-.9-2.56-1.59.62-1,2-.38,2.8-1.34-.38-.76-.8-1.59-1.48-2.92,2,.83,4.11,2.1,3.64-2.3,1.8,3.39,3.21,2.84,4.62.47-.4,2.72-.53,4.73,3.81,2.34-2.29,2.55-3.31,4.22.89,4.85l-3.62,1.06C463.93,225.41,465.11,226.06,465.19,227.46Z"/><path class="cls-5" d="M406.9,153.86c-10.87.78-11.6,1.94-11.26,10.06-2-6.76-5.45-10.47-13.23-7.63,6.6-3.89,9.31-7.46,3.54-15,5.65,5.45,10.31,4.81,15-1.09C398.79,146.54,398.33,151.85,406.9,153.86Z"/><path class="cls-5" d="M385.9,188.55c-2.56-1.23-4.47-1.27-5.73,1.7.42-2.77-.18-4.67-3.44-5,3-.27,4.3-1.71,3.81-4.77,1.09,2.9,2.87,3.46,5.55,2.14C384.24,184.56,383.18,186.38,385.9,188.55Z"/><path class="cls-5" d="M448.62,99.79c1.66-2.3,2.05-4.17-.64-5.94,2.64.91,4.62.66,5.5-2.49-.27,3,.91,4.54,4,4.6-3.05.56-3.92,2.21-3.11,5.08C452.84,98.87,451.24,97.5,448.62,99.79Z"/><path class="cls-5" d="M455.38,196.28c-2,1.19-5.11-3-5.47,1.88-.08,1-1.32.82-1.61.34-2.52-4.21-3.38.81-5.35.78.14-2.68.82-6.24-5.66-2.91,3.45-3.89,4-6.33-1.05-7.47,3-1,6.53-1,3.67-4.68,1.3-1.34,5.79,3.29,4.68-2.52,2.32.34,4.92,2.37,6.48-1.71.74,5,.74,5,5.43,4.74-2.69,2.63-3.31,4.92,2.63,6.19C454,191.87,451.4,193,455.38,196.28Z"/><path class="cls-5" d="M425.6,242.58c-1.27-.07-1.67-3.05-3.14-.87-.31.45-.86,0-.87-.36-.09-2.8-1.85-.71-2.79-1.36.79-1.22,2.07-2.68-1.95-3.2,2.7-.72,3.64-1.68,1.49-3.86,1.72.49,3.42,1.64,3-1,1-.22,1.92,3.42,2.93.32,1,.9,1.74,2.7,3.58,1.28-1,2.62-1,2.62,1.35,4-2,.37-2.91,1.25-.38,3.76C426.13,240.07,424.56,239.76,425.6,242.58Z"/><path class="cls-5" d="M501.7,147.7c.3-1.24,3.3-1.09,1.43-2.93-.39-.38.19-.83.51-.79,2.77.42,1-1.68,1.84-2.49,1,1,2.26,2.51,3.5-1.35.22,2.79,1,3.89,3.53,2.16-.79,1.61-2.23,3.07.46,3.16,0,1-3.71,1.27-.85,2.83-1.07.84-3,1.22-1.91,3.29-2.39-1.45-2.39-1.45-4.16.6,0-2-.71-3.08-3.64-1.06C504.07,148.68,504.67,147.19,501.7,147.7Z"/><path class="cls-5" d="M469.32,160.47c-1.55,3.61-4.78,4.51-8.56,3.63-3.37-1.94-5-5-3.62-8.53,1.5-3.93,5-5.35,8.91-3.63C469.6,153.52,470.87,156.88,469.32,160.47Z"/><path class="cls-5" d="M517.7,193.64a1.46,1.46,0,1,1-2.71-1.09,1.38,1.38,0,0,1,2-.81A1.36,1.36,0,0,1,517.7,193.64Z"/><path class="cls-5" d="M481.11,177.46a1.47,1.47,0,0,1-2.72-1.09,1.39,1.39,0,0,1,2-.81A1.37,1.37,0,0,1,481.11,177.46Z"/><path class="cls-5" d="M479.22,251.49a1.47,1.47,0,0,1-2.72-1.09,1.38,1.38,0,0,1,2-.81A1.36,1.36,0,0,1,479.22,251.49Z"/><path class="cls-5" d="M408.16,199a1.47,1.47,0,0,1-2.72-1.09,1.38,1.38,0,0,1,2-.81A1.36,1.36,0,0,1,408.16,199Z"/><path class="cls-5" d="M522.35,120.15a1.47,1.47,0,0,1-2.72-1.09,1.39,1.39,0,0,1,2-.81A1.36,1.36,0,0,1,522.35,120.15Z"/><path class="cls-5" d="M484.79,112.3a1.47,1.47,0,0,1-2.72-1.1,1.38,1.38,0,0,1,2-.8A1.36,1.36,0,0,1,484.79,112.3Z"/><path class="cls-5" d="M502.57,247.74c-2.07-6.75-2.07-6.75-8.69-7.53,4.81-1.94,7.33-4.49,4.53-9.59,3.34,3.59,6.62,4.75,10.56.28-1.84,6.34-1.84,6.34,2.41,11.22C506.44,240.42,503.37,241.76,502.57,247.74Z"/><path class="cls-5" d="M536.76,183.2c-.75-3.89-.75-3.89-4.39-4.71,2.79-.8,4.35-2.07,3.1-5.08,1.64,2.2,3.4,3,5.86.79-1.4,3.42-1.4,3.42.68,6.4C539.36,179.36,537.56,179.92,536.76,183.2Z"/><path class="cls-3" d="M599.79,88.35a8.11,8.11,0,0,0-.93,2.3,9.87,9.87,0,0,1-2,3.21,7.84,7.84,0,0,1-2,1.94c-1,.66-2.2,1-3.27,1.63-2.77,1.48-5.57,1.18-8.37.18-1.08-.39-2.11-.91-3.21-1.38A5.14,5.14,0,0,0,578,98a2.31,2.31,0,0,1-.73.61,61.36,61.36,0,0,1-6.07,3.56,31.36,31.36,0,0,0-3.4,2.32c-1.09.84-1.14,1.35-.33,2.46a43.23,43.23,0,0,1,3.69,6.12c1.2,2.33,2.28,4.72,3.46,7.06.49,1,1.2,1.82,1.67,2.79.6,1.26,1.08,2.58,1.57,3.9.83,2.23,1.63,4.47,2.44,6.71,1,2.77,2.08,5.53,3,8.33a27.38,27.38,0,0,1,.82,4.24c.36,2.21.67,4.42,1,6.64.15,1.1.21,2.22.32,3.33,0,.32.15.64.17,1,.12,2.34.22,4.68.36,7,.06,1.12.24,2.23.3,3.34.07,1.26,0,2.53.09,3.79s.15,2.67.18,4,0,2.73,0,4.1c0,1.7,0,3.4-.12,5.09-.15,3.39-.32,6.78-.53,10.17-.06,1-.28,2.06-.37,3.1-.08.85,0,1.74-.12,2.58-.36,1.87-.18,3.82-.92,5.64-.12.31,0,.72,0,1.06-.39,1.64-.83,3.27-1.24,4.9-.17.66-.26,1.34-.46,2-.44,1.45-.92,2.89-1.38,4.33a13,13,0,0,1-.62,1.85c-1.3,2.65-2.68,5.27-4,7.94-.64,1.36-1.12,2.8-1.67,4.2-.35.87-.68,1.75-1.07,2.6-.64,1.37-1.36,2.71-2,4.08a31.23,31.23,0,0,1-2.83,4.84,28.42,28.42,0,0,0-1.41,2.54,2.85,2.85,0,0,1-.58.9c-1.18.85-1.42,2.23-2,3.41a22.08,22.08,0,0,0-.86,2.39c1.05.78,1.79.8,2.64.16.14-.11.26-.29.42-.33A10.5,10.5,0,0,0,571,250.7c1.76-1.31,3.63-2.47,5.39-3.79,2.6-1.95,5.12-4,7.72-6a28.78,28.78,0,0,0,4.15-3.64c.7-.78,1.4-1.56,2.15-2.29.56-.55,1.21-1,1.85-1.54a9.43,9.43,0,0,1,1.63,2.45,19.3,19.3,0,0,0,4.07,6.32c-.44.32-.85.65-1.29,1-1.94,1.37-3.88,2.75-5.83,4.1-.59.41-1.26.72-1.83,1.15q-3.69,2.81-7.34,5.66c-.3.24-.46.67-.75.92a18.74,18.74,0,0,1-1.85,1.48c-1.62,1.15-3.26,2.27-4.9,3.38-3.23,2.2-6.48,4.36-9.69,6.58-1.84,1.27-3.59,2.66-5.42,3.95s-3.58,2.44-5.36,3.69c-1.41,1-2.79,2-4.2,3s-2.82,2-4.22,3c-2,1.5-4,3.08-6.1,4.48-1.1.74-2,1.8-3.34,2.15a.58.58,0,0,0-.26.18c-1.65,1.82-3.84,2.91-5.76,4.36-2.11,1.59-4.37,3-6.52,4.49-2.35,1.67-4.64,3.43-7,5.13-.76.55-1.6,1-2.36,1.54a9.46,9.46,0,0,0-1.6,1.43,2.54,2.54,0,0,1-1.07.85,7.25,7.25,0,0,0-2.71,1.93,9.71,9.71,0,0,1-1.17.95l-2.35,1.72a85.55,85.55,0,0,0-7,5.18,31.87,31.87,0,0,1-2.9,2.09,7,7,0,0,0-.7.52,10.2,10.2,0,0,1-2.59,1.92,4.54,4.54,0,0,0-1,.79c-1.83,1.51-3.68,3-5.51,4.55-.63.53-1.22,1.11-1.82,1.68a11.5,11.5,0,0,1-2.26,2.14,1.63,1.63,0,0,0-.7,2,8.12,8.12,0,0,1,0,3.22c-.24,1.68-.32,3.37-.49,5.06-.2,1.87-.51,3.73-.62,5.6-.15,2.41-.15,4.83-.21,7.24,0,.51,0,1-.05,1.52a35.41,35.41,0,0,0,.46,6.25c.1.75.21,1.5.25,2.26a.7.7,0,0,0,.84.75c.47,0,.93-.14,1.4-.17a17.71,17.71,0,0,1,1.93,0c1.55.08,3.1.21,4.65.29a3.17,3.17,0,0,1,1.38.48,5.74,5.74,0,0,0,2.16.59c2.16.2,4.33.29,6.5.47.85.08,1.69.35,2.55.44a18.39,18.39,0,0,1,3.49.95,73.59,73.59,0,0,0,11,2.44,39.27,39.27,0,0,1,10.64,3.58c.06,0,.09.1.22.26l-.85,0a7.74,7.74,0,0,0-1.08.09c-3.14.66-6.32.46-9.49.6-1.44.06-2.89.11-4.33.14-.69,0-1.37,0-2.06,0-.36,0-.72,0-1.08,0-1.77,0-3.54,0-5.3.17s-3.67-.1-5.5.36a12.28,12.28,0,0,1-2.58.07c-1.77,0-3.53.12-5.3.19l-4.44.16-3.79.17c-.28,0-.57,0-.86,0a25.67,25.67,0,0,0-4.54-.18,37.51,37.51,0,0,1-4,.09c-3.54.1-7.09.14-10.64.15-1.29,0-2.58-.14-3.87-.19-.87,0-1.73,0-2.6,0-2.88-.14-5.77-.26-8.65-.48a23,23,0,0,0-4.76.09,1.24,1.24,0,0,1-.43,0,22.13,22.13,0,0,0-5.08-.1,15.83,15.83,0,0,1-2.37-.22,1.59,1.59,0,0,0-.43,0c-1.87.5-3.71-.19-5.58-.15a41,41,0,0,1-4.09-.4c-2.62-.2-5.25-.38-7.88-.56a4.85,4.85,0,0,1-1.44-.25c.37-.2.71-.44,1.09-.6,2.23-.93,4.46-1.86,6.71-2.75a17.7,17.7,0,0,1,2.36-.69c2.88-.69,5.78-1.31,8.65-2a81.85,81.85,0,0,1,9.16-1.55c3.62-.46,7.25-.78,10.88-1.06s7.13-.4,10.69-.67c1.29-.09,2.56-.41,3.85-.62a.68.68,0,0,0,.61-.64,8.22,8.22,0,0,0,.07-3,27,27,0,0,1-.29-3.12c-.17-1.94-.39-3.88-.49-5.83-.08-1.65,0-3.3,0-5,0-1.47,0-2.95-.09-4.42-.07-2-.16-4-.25-6,0-.32-.11-.64-.14-1,0-.49-.06-1-.09-1.48-.06-1-.11-2-.18-3s-.13-2.3-.24-3.44a1.45,1.45,0,0,1,.35-1.09c.47-.64.89-1.31,1.39-1.93a4.67,4.67,0,0,1,1.05-.93,30.62,30.62,0,0,0,3.37-2.15c1-.84,2.16-1.29,3.14-2.05,3.92-3.05,8.25-5.49,12.27-8.38.56-.4,1.08-.84,1.66-1.2s1.17-.55,1.74-.86a17.27,17.27,0,0,0,2-1.23,1.77,1.77,0,0,0,.08-2.2,3.42,3.42,0,0,0-1.42-1.09,6.45,6.45,0,0,0-2.35-.31c-2.12.12-4.25.32-6.37.54a29.43,29.43,0,0,0-3.82.69,10.56,10.56,0,0,1-3.65.32c-1.72-.21-3.46-.19-5.19-.26h-.77c-2.41,0-4.83,0-7.24-.13-2.7-.17-5.4-.41-8.07-.8-2.92-.43-5.79-1.12-8.7-1.62-1.27-.22-2.58-.21-3.87-.36s-2.34-.35-3.51-.56-2.49-.44-3.71-.74c-2.45-.58-4.89-1.21-7.34-1.83a35.77,35.77,0,0,1-4-1.08c-1.91-.74-3.93-1.15-5.81-2-2.8-1.24-5.64-2.4-8.36-3.78s-5.37-3-8-4.55c-1.27-.75-2.44-1.66-3.65-2.5-3-2.1-6-4.18-8.94-6.3-1.08-.77-2.11-1.61-3.16-2.42-1.37-1.06-2.77-2.09-4.1-3.19s-2.51-2.17-3.71-3.31c-1.6-1.51-3.19-3-4.73-4.62s-3.15-3.29-4.67-5-2.89-3.24-4.26-4.92c-1.78-2.19-3.48-4.43-5.22-6.65-.13-.17-.28-.32-.51-.57-.52.42-2.46,1.61-4.21,3a4.74,4.74,0,0,1-1.53.79,6.43,6.43,0,0,0-2.72,1.71c-.37.37-.61,0-.58.82a37,37,0,0,1-.66,7.19,7.5,7.5,0,0,1-1.44,3.11,9.72,9.72,0,0,1-4.15,3.48,33.56,33.56,0,0,1-3.73,1.15c-.76.21-1.54.35-2.32.5a9.78,9.78,0,0,1-5.69-1,7.47,7.47,0,0,1-2-1.79,11.45,11.45,0,0,1-.8-1c-.93-1.2-1.89-2.36-2.79-3.58-1.76-2.38-1.61-4.81-.17-7.29.41-.71.75-1.47,1.1-2.22a8.75,8.75,0,0,1,3.23-3.56,22.63,22.63,0,0,1,3.44-2.05,13.37,13.37,0,0,1,8-1.15,7.44,7.44,0,0,1,4.37,2.43c.35.41.73.79,1.11,1.2,1.21-.08,1.83-1,2.52-1.76a10.76,10.76,0,0,1,1-.89c.9-.76-.85.48-.46,0a11.57,11.57,0,0,1,1.52-1.81,6.71,6.71,0,0,0,2.07-3.1,1.39,1.39,0,0,0-.33-1.31l-2.77-4c-2.08-3-2.57-2.74-4.19-6.05-.52-1.07-.95-2.18-1.41-3.29a1.29,1.29,0,0,1,.36-1.62c1.43-1.37,2.75-2.86,4.13-4.28.34-.36,2.69-2.46,3.45-.69s1.13,4.38,2.52,5.75a3.2,3.2,0,0,1,.33.42c.85,1.26,1.7,2.52,2.52,3.79s1.44,2.43,2.27,3.57c1.44,2,2.81,4,4.41,5.89,1.35,1.59,2.49,3.37,3.76,5a59.68,59.68,0,0,0,7.89,8.91c.76.67,1.53,1.34,2.22,2.08s1.1,1.41,1.68,2.09,1,1.09,1.56,1.63c.2.21.4.41.61.61l2.55,2.35,3.34,3.07a20.48,20.48,0,0,0,4.56,3.46c.1.05.23.09.28.17.43.74,1.24,1.08,1.81,1.67a16.68,16.68,0,0,0,4,2.73c1.56.89,3,1.93,4.53,3s2.75,2,4.12,3c.82.59,1.63,1.2,2.49,1.73,1.16.72,2.38,1.36,3.56,2.06.59.34,1.12.8,1.74,1.08,2,.9,4,1.73,6,2.6.66.29,1.31.6,1.95.94,1.12.58,2.33.93,3.49,1.4,3.32,1.35,6.86,1.71,10.29,2.56,2.41.6,4.91.84,7.35,1.33s5,.68,7.44,1.17a3.45,3.45,0,0,0,1.05-.09,9.59,9.59,0,0,1,1.58-.19,28.25,28.25,0,0,1,4.32.28c1.25.25,2.48-.07,3.74.19a25.35,25.35,0,0,0,4,.09c2.08.07,4.17.2,6.25.28.61,0,1.22-.06,1.83-.1.14,0,.28-.08.42-.06a50,50,0,0,0,6.48-.08,43.71,43.71,0,0,0,6-1c.32-.06.63-.14.95-.19,1.59-.28,3.18-.54,4.77-.83,1.38-.25,2.77-.47,4.13-.8,2-.49,4.05-1.06,6.07-1.6,1.08-.29,2.17-.52,3.22-.9,1.28-.46,2.52-1.06,3.79-1.56s2.77-1,4.16-1.58,2.56-.95,3.81-1.52a14.73,14.73,0,0,0,1.58-1.08c.67-.41,1.39-.75,2.06-1.17s1.53-1.08,2.33-1.58,1.6-1,2.43-1.41c.57-.31,1.16-.58,1.75-.86a21.1,21.1,0,0,0,4.46-3.22,7.94,7.94,0,0,0,.94-1.31,3.63,3.63,0,0,1,.63-.67,17.93,17.93,0,0,0,1.48-1.06c2.64-2.51,5.24-5.07,7.7-7.76,1.38-1.51,3-2.8,4.46-4.23,1-.94,1.83-1.95,2.71-2.95a6.78,6.78,0,0,0,1.19-3,3.44,3.44,0,0,1,.85-1.45,14.18,14.18,0,0,0,2.2-3.17,7.15,7.15,0,0,1,1.42-2.13,27.56,27.56,0,0,0,3.8-5c1-1.57,2.18-3,3.19-4.51a34.08,34.08,0,0,0,1.59-3.06c.22-.41.54-.77.74-1.18,1.36-2.87,3.23-5.48,4.16-8.57a21.62,21.62,0,0,1,1.2-2.41,39.51,39.51,0,0,0,2.56-8.72c.35-1.8.84-3.58,1.18-5.39a20.1,20.1,0,0,0,.58-4.84c0-.69.36-1.4.39-2.11.12-2.69.93-5.25,1.28-7.9.25-1.9.48-3.8.63-5.71.22-2.84.48-5.69.52-8.54,0-3.39-.14-6.79-.21-10.18,0-1.66,0-3.32,0-5s-.1-3.17-.24-4.75c-.1-1.1-.37-2.19-.56-3.29a2,2,0,0,0-.11-.42c-1.31-2.65-1.76-5.57-2.69-8.33-.61-1.82-1.39-3.57-2.07-5.36a17.75,17.75,0,0,1-.55-1.75c-.46-1.63-.89-3.27-1.38-4.9-.41-1.37-.92-2.72-1.34-4.09s-.86-3-1.33-4.47a6.76,6.76,0,0,0-.7-1.46c-.85-1.42-1.71-2.84-2.59-4.24s-1.75-2.64-2.57-4-1.68-2.92-2.55-4.37c-.49-.84-1.08-1.62-1.57-2.46-2.25-3.88-4.84-7.53-7.45-11.16a9.16,9.16,0,0,0-1-1.15,6.41,6.41,0,0,1-1.54-1.93c-.1-.21-.37-.34-.53-.53-1-1.12-1.14-2.06.36-3,1.23-.75,2.39-1.61,3.59-2.42s1.45-.63,2.34.24a64,64,0,0,1,6.15,7.3,5.31,5.31,0,0,1,.58.9,2.46,2.46,0,0,0,3.32,1.35A12.57,12.57,0,0,0,567,96.49c.26-.22.69-.22,1-.39A8.92,8.92,0,0,0,571.49,93,4.35,4.35,0,0,1,573.6,91a1.13,1.13,0,0,0,.74-1.4c-.06-.32-.13-.63-.2-1a23.4,23.4,0,0,1-.63-2.85c-.16-1.75-.21-3.52-.22-5.29a15.37,15.37,0,0,1,.38-1.56,8,8,0,0,1,2.56-4.76,15,15,0,0,1,8-4.29,10.39,10.39,0,0,1,4.17.39A13.6,13.6,0,0,1,595.18,74a23.34,23.34,0,0,1,4,5,7,7,0,0,1,1,3.92,17.84,17.84,0,0,0,.35,2A5.25,5.25,0,0,1,599.79,88.35Z"/><path d="M357.85,252.5l-5.36,2.57c0,.29,0,.53,0,.76,0,1.1-.07,2.19-.09,3.28s0,2.39-.08,3.58a10.48,10.48,0,0,1-1.27,4.12c-.45.84-.89,1.69-1.39,2.49a4.89,4.89,0,0,1-1,1.1,21.13,21.13,0,0,1-4.42,3.28,34.89,34.89,0,0,1-5.48,2.21,15.8,15.8,0,0,1-7.73.46c-.34-.08-.71-.07-1.06-.13a17.32,17.32,0,0,1-6.6-2.72,37.55,37.55,0,0,1-3.18-2.28,6.75,6.75,0,0,1-2.45-3.75,8.11,8.11,0,0,0-.59-1.36L315.85,263a1.7,1.7,0,0,0-.13-.4c-1-1.44-.83-3.09-.92-4.71a17.57,17.57,0,0,1,.88-5.62,3.56,3.56,0,0,1,.56-1.14c.75-1,1.49-2.07,2.33-3,1-1.1,2.05-2.1,3.09-3.14.37-.38.75-.74,1.13-1.11a8.45,8.45,0,0,1,4.11-2,21.78,21.78,0,0,0,2.21-.7,23.74,23.74,0,0,1,5.39-1.5,13.6,13.6,0,0,1,2.85.09c1.3.14,2.59.32,3.87.57a9.41,9.41,0,0,1,2,.67c1,.44,1.06.45,1.82-.35.24-.25.53-.46.78-.7l2-2c-.4-.69-.76-1.28-1.1-1.88-.86-1.49-1.69-3-2.57-4.48-.68-1.15-1.41-2.28-2.11-3.42a6.75,6.75,0,0,1-.48-.82c-.77-1.74-1.48-3.51-2.32-5.23a6,6,0,0,1-.17-3.93A2,2,0,0,1,340,217a15.27,15.27,0,0,0,3.1-2.85c.89-.85,1.72-1.77,2.65-2.58s1.87-1.26,2.66-2a8.25,8.25,0,0,1,2.74-1.72c.91-.36,1.8-.84,2.76-.32a2.89,2.89,0,0,1,.7.55,3.66,3.66,0,0,1,.56,1l.5,1.07c.43.91.86,1.82,1.2,2.76a12.08,12.08,0,0,0,1,2.68c.82,1.23,1.24,3.25,2.14,4.43.19.25,2.6,4.75,2.75,5a77,77,0,0,0,4.83,8c2.56,3.64,5.08,6.08,7.73,9.65,1.07,1.45,2.39,1.67,3.63,3,1.78,1.86,3.67,3.61,5.49,5.44,1,1.05,2,2.18,3.05,3.21s2.15,2.05,3.29,3c2,1.64,4,3.25,6,4.84a70.57,70.57,0,0,0,11.06,7.27c1.85,1,3.62,2.07,5.49,3,3.7,1.81,7.33,3.79,11.2,5.25,2,.77,4,1.71,6.05,2.48,1.55.59,3.14,1.08,4.73,1.54,2.65.75,5.34,1.36,8,2.17a41.07,41.07,0,0,0,4.61,1.08,58.9,58.9,0,0,0,9.48.71c2.32.06,4.64.23,7,.29a7.8,7.8,0,0,0,2.3-.28,34.29,34.29,0,0,1,5.15-.6c2-.25,4-.57,6-.85,1.36-.18,2.73-.3,4.09-.52,1.7-.28,3.4-.6,5.08-1s3.64-.87,5.46-1.27c.59-.13,1.21,0,1.79-.16a12.1,12.1,0,0,0,2.54-.71c1.82-.8,3.74-1.26,5.62-1.88,1.5-.51,2.94-1.19,4.44-1.73,1.66-.6,3.35-1.11,5-1.7.49-.17.93-.51,1.41-.71.94-.4,1.92-.71,2.84-1.13s1.55-.82,2.32-1.23c1.4-.75,2.81-1.48,4.2-2.24a22.51,22.51,0,0,0,2-1.2,15.69,15.69,0,0,0,4-3.57,11,11,0,0,1,1.87-1.87,37,37,0,0,0,3.67-3.63c.65-.69,1.39-1.29,2.09-1.94a2.08,2.08,0,0,0,.35-.38,17.32,17.32,0,0,1,3.8-4.11c1-.81,1.77-1.77,2.69-2.62s1.77-1.62,2.64-2.43a3.33,3.33,0,0,0,.54-.65c.68-1,1.34-2.07,2-3.09,1-1.5,2-3,3-4.5a55,55,0,0,0,3.91-7.5,24.44,24.44,0,0,1,1.55-2.9,9.19,9.19,0,0,0,.92-2.11c.67-2,1.42-4.06,2.14-6.09.26-.73.49-1.47.79-2.18s.79-1.58,1.13-2.39a16.76,16.76,0,0,0,.67-2c.48-1.8.95-3.61,1.38-5.43.25-1,.4-2.08.62-3.12.34-1.55.71-3.09,1-4.65.14-.65.19-1.32.31-2,.15-.86.33-1.72.5-2.58.3-1.48.63-3,.88-4.46.13-.79.1-1.61.16-2.41,0-.32.07-.63.11-.94a3.92,3.92,0,0,0,.15-1.25,11.21,11.21,0,0,1,.24-3.37c.15-1.47.41-2.92.52-4.4s.18-3,.16-4.55c0-2-.17-4.08-.25-6.13-.11-2.67-.21-5.35-.32-8a30.78,30.78,0,0,0-.22-3.47,18.84,18.84,0,0,0-.81-2.72c-.45-1.41-.89-2.82-1.36-4.23-.35-1-.74-2.1-1.09-3.16-.28-.83-.47-1.69-.78-2.52-.67-1.82-1.36-3.64-2.11-5.42-.67-1.6-1.47-3.13-2.17-4.71-1.19-2.72-2.34-5.46-3.52-8.18-.18-.42-.45-.8-.61-1.23-.67-1.71-1.32-3.43-2-5.14A6,6,0,0,0,553,120c-.86-1.57-1.75-3.14-2.58-4.72-.55-1-1-2.13-1.56-3.14s-1.46-2.23-2.23-3.32-1.52-2-2.29-3c-.17-.23-.39-.41-.56-.63-.48-.61-.94-1.23-1.4-1.86-.2-.28-.36-.6-.56-.89-.52-.75-1.06-1.49-1.57-2.25s-1.14-1.76-1.71-2.65a4.63,4.63,0,0,1-.73-2.73c0-.26.1-.66.27-.75.88-.42,1.1-1.31,1.38-2.05a8.48,8.48,0,0,1,2.45-3.4,24.38,24.38,0,0,1,3.48-2.7,34.08,34.08,0,0,1,3.52-1.43,5.42,5.42,0,0,1,3.62.05,2.67,2.67,0,0,1,1.18.66A23.08,23.08,0,0,1,557.29,89a19.27,19.27,0,0,0,3.21,3.36c.36.33.71.68,1.06,1,.67.67.86.73,1.66.24a14.41,14.41,0,0,0,1.66-1.28,1,1,0,0,0,.21-1.25,4.53,4.53,0,0,1-.43-3c.05-.22-.11-.48-.11-.73,0-.77,0-1.54,0-2.31,0-.27,0-.55,0-.83a4.84,4.84,0,0,1-.07-.84,15.23,15.23,0,0,1,1.12-5.24,1.56,1.56,0,0,0,.19-.49c.27-2,1.66-3.22,2.91-4.56.63-.66,1.21-1.36,1.84-2a12.94,12.94,0,0,1,5.18-3.22,13.61,13.61,0,0,1,5-1,24.08,24.08,0,0,1,6.8,1.18,7.41,7.41,0,0,1,1.2.66c.83.44,1.59,1,2.45,1.39a12.41,12.41,0,0,1,4,2.9,20.64,20.64,0,0,1,2.68,3.51,22.43,22.43,0,0,1,2.67,7.1c.19,1.11.41,2.22.57,3.34a13,13,0,0,1-.65,5.31c-.24.9-.42,1.83-.59,2.75A8,8,0,0,1,598.74,98c-.55.86-1.21,1.64-1.82,2.46a1.15,1.15,0,0,1-.22.22c-1.51,1.1-3,2.26-4.54,3.26a11.53,11.53,0,0,1-4.69,1.6c-1,.13-2,.3-2.92.49a21.6,21.6,0,0,1-5.39-.11,4.36,4.36,0,0,1-.89-.33,1.41,1.41,0,0,0-1.62.36c-1,1-2.07,2-3.14,3-.49.43-1,.8-1.6,1.23a10.89,10.89,0,0,0,.76,1.53,24.49,24.49,0,0,1,2.35,4.62c.78,1.68,1.25,3.53,2.12,5.16s1.59,3.53,2.43,5.27a63.59,63.59,0,0,1,3.72,9.57c.93,3.09,1.76,6.21,2.57,9.33.56,2.16,1.08,4.32,1.48,6.51.51,2.74.9,5.5,1.29,8.26.15,1.08.15,2.18.26,3.26s.27,2.16.4,3.25.27,2.23.34,3.35c.21,3.1.39,6.2.75,9.29a29,29,0,0,1,0,3c0,.73.11,1.46.11,2.19a36.93,36.93,0,0,1-.84,9.37c-.42,1.7-.8,3.42-1.12,5.15-.22,1.13-.27,2.29-.44,3.44s-.36,2.15-.59,3.21c-.32,1.51-.65,3-1,4.52s-.89,3.19-1.3,4.79c-.22.85-.39,1.71-.53,2.57a42.41,42.41,0,0,1-2.72,9.3c-.27.67-.65,1.31-1,2a3.15,3.15,0,0,0-.13.61,9.06,9.06,0,0,0,.79-.52c.9-.79,1.77-1.61,2.7-2.36.64-.53,1.36-1,2-1.47a5.16,5.16,0,0,1,2.93-1c.22,0,.44-.21.67-.29a1.21,1.21,0,0,1,.6-.15,3.89,3.89,0,0,1,3,1.73,12.93,12.93,0,0,0,1,1.33,2.13,2.13,0,0,1,.25.34,58.08,58.08,0,0,0,3.57,4.95,46.36,46.36,0,0,0,4,4.64c.91,1,2,1.93,2.31,3.36a2.72,2.72,0,0,1,.18.72,1.21,1.21,0,0,0,.46,1c.49.41.45.91.3,1.53a2.32,2.32,0,0,1-2.4,2,5.38,5.38,0,0,0-2.4,1c-1.59.9-3.09,2-4.59,3s-3.24,2.34-4.86,3.52c-.91.66-1.84,1.3-2.73,2-1.27,1-2.51,2-3.78,3.07-2.44,2-4.88,3.94-7.34,5.88-1.8,1.42-3.62,2.8-5.44,4.19l-3.13,2.36c-1,.74-2,1.49-3,2.2-1.52,1.09-3.06,2.13-4.58,3.21-1,.76-2.08,1.54-3.12,2.32a3.12,3.12,0,0,1-.41.33c-1.74.73-3,2.21-4.65,3.06A32.71,32.71,0,0,0,549.7,284a25.59,25.59,0,0,1-3.62,2.37c-1.2.56-2.14,1.45-3.28,2.08-2.06,1.12-4.14,2.24-6.08,3.55a30.53,30.53,0,0,0-5.35,4,46.73,46.73,0,0,1-3.64,3.06c-2,1.7-4.05,3.42-6.09,5.11-1.13.94-2.3,1.83-3.43,2.79-.5.43-.89,1-1.4,1.42-1,.83-2,1.64-3.1,2.4-.8.58-1.7,1-2.5,1.6-1,.69-1.9,1.44-2.83,2.19s-2.16,1.7-3.19,2.6-2.05,1.93-3.08,2.9l-3,2.81a4.19,4.19,0,0,0-.52.51,13.53,13.53,0,0,1-2.79,2.55c-1.44,1.2-2.82,2.46-4.23,3.7A15.77,15.77,0,0,1,490,331a1.47,1.47,0,0,0-.6,1.38c0,1.13,0,2.27,0,3.4,0,1.45-.11,2.89-.12,4.34,0,1.16,0,2.33.07,3.49.09,1.83.23,3.66.35,5.49.06.94.23,1,1.14,1.16,2,.31,3.88.74,5.83,1.07,1.14.19,2.16.79,3.35.9a15.39,15.39,0,0,1,2.75.75l.71.22c2.44.7,4.9,1.35,7.33,2.09s4.61,1.6,7,2.23a54.24,54.24,0,0,1,6.36,2.58,34.78,34.78,0,0,1,4.25,2.37q2.35,1.41,4.68,2.88a18.54,18.54,0,0,1,5,4.36,8.19,8.19,0,0,1,1.42,5.52.64.64,0,0,1-.59.65,13.55,13.55,0,0,1-3.86.56c-1-.06-1.91.05-2.87,0-.56,0-1.11-.21-1.67-.21-1.06,0-2.11.09-3.17.15-1.38.08-2.76.14-4.13.25-1.12.1-2.23.3-3.35.4-.91.08-1.83.08-2.74.11a3.7,3.7,0,0,0-.74,0,43.1,43.1,0,0,1-7.18.47c-1.58.07-3.16.21-4.74.2-1.37,0-2.76.32-4.11-.13a1,1,0,0,0-.42,0c-.88.08-1.75.19-2.63.23s-1.61-.05-2.42,0c-.55,0-1.1.21-1.66.25-2.18.14-4.37.24-6.55.39-2.51.17-5,.18-7.53.14-3.17-.05-6.35.15-9.53.21-2.22,0-4.45.06-6.67,0-1.94,0-3.88-.08-5.82-.2-1.15-.07-2.3-.28-3.45-.42a.45.45,0,0,0-.11,0c-1.26,0-2.53,0-3.8,0-.63,0-1.27.07-1.9.06-3.67-.07-7.34-.13-11-.24-1.38,0-2.75-.2-4.12-.32a17,17,0,0,1-3.13-.35,16.39,16.39,0,0,0-3.87-.38c-.78-.05-1.56,0-2.33,0-2.19-.09-4.37-.21-6.56-.31a33,33,0,0,1-4-.15,12.25,12.25,0,0,0-3.42,0,9.42,9.42,0,0,1-2.84-.23,16.88,16.88,0,0,0-2.82-.3,9.7,9.7,0,0,1-3.34-1,1,1,0,0,1-.5-.38c-.6-1-1.35-2-.6-3.32.37-.63.73-1.28,1.12-1.91a18.92,18.92,0,0,1,6.85-6.3,3.37,3.37,0,0,1,.38-.19c3.12-1.08,5.94-2.81,9-4,4.56-1.83,9.07-3.83,13.92-4.82,3.83-.79,7.68-1.51,11.54-2.19,1.18-.21,2.4-.12,3.59-.24,1.4-.15,2.79-.38,4.19-.55s2.53-.25,3.8-.37l1.61-.16a6.56,6.56,0,0,0,.48-2.49,11.48,11.48,0,0,1,.15-1.75c.08-.88.19-1.75.23-2.63s0-1.47,0-2.21c0-.1-.06-.22,0-.31.37-1.12-.23-2.14-.31-3.21-.19-2.46-.55-4.92,0-7.38a4.47,4.47,0,0,0,0-1.59,34.89,34.89,0,0,1-.15-7.08,2.85,2.85,0,0,1,1.16-2.06c.21-.18.54-.33.61-.55.38-1.24,1.46-1.89,2.26-2.76a31.8,31.8,0,0,1,2.46-2.32c1-.86,2-1.72,3-2.54,1.23-1,2.5-1.95,3.84-3l-1.34-.18c-1.58-.17-3.16-.36-4.74-.5s-3.16-.25-4.73-.38a11.11,11.11,0,0,1-1.16-.12c-.87-.16-1.73-.33-2.58-.53s-1.42-.41-2.12-.62c-.17-.05-.34-.19-.5-.17-1.51.18-2.8-.59-4.19-.92a25.64,25.64,0,0,0-3-.48c-2.31-.26-4.65-.39-6.95-.73a51.16,51.16,0,0,1-6.63-1.32,55.13,55.13,0,0,1-9.09-3.44c-1.49-.72-2.92-1.57-4.43-2.24-1.8-.8-3.67-1.43-5.48-2.21-2.14-.92-4.27-1.85-6.34-2.9s-4.24-2.27-6.3-3.51a97.44,97.44,0,0,1-10-6.78c-2.54-2-5.17-3.94-7.67-6-3-2.48-5.9-5.05-8.77-7.66-2.56-2.32-5-4.76-7.52-7.15-.92-.87-1.86-1.71-2.73-2.63s-1.57-1.85-2.36-2.77Zm203.55-.19a23.24,23.24,0,0,1,.84-2.33c.56-1.16.79-2.51,1.94-3.34a2.73,2.73,0,0,0,.57-.88,27.12,27.12,0,0,1,1.38-2.48,31.16,31.16,0,0,0,2.76-4.74c.62-1.34,1.33-2.65,2-4,.39-.83.7-1.69,1-2.54.55-1.37,1-2.78,1.64-4.11,1.25-2.61,2.6-5.17,3.88-7.76a16,16,0,0,0,.6-1.81c.45-1.41.92-2.81,1.35-4.23.19-.64.29-1.3.45-1.95.4-1.6.82-3.19,1.21-4.79.08-.33-.07-.74,0-1,.72-1.77.55-3.69.9-5.51.15-.82,0-1.69.12-2.53.09-1,.3-2,.36-3,.2-3.31.37-6.63.52-9.94.08-1.66.09-3.32.11-5,0-1.34,0-2.67,0-4s-.13-2.61-.17-3.91,0-2.47-.09-3.7-.23-2.18-.3-3.27c-.13-2.28-.22-4.57-.35-6.86,0-.31-.13-.62-.16-.93-.11-1.09-.17-2.18-.31-3.26q-.44-3.25-1-6.5a27.28,27.28,0,0,0-.8-4.14c-.89-2.74-1.93-5.43-2.92-8.15-.79-2.19-1.57-4.38-2.39-6.56-.48-1.28-.95-2.58-1.53-3.81-.46-1-1.16-1.79-1.63-2.73-1.16-2.29-2.22-4.62-3.39-6.91a44.32,44.32,0,0,0-3.6-6c-.8-1.08-.75-1.59.32-2.4a30.07,30.07,0,0,1,3.33-2.27,63,63,0,0,0,5.93-3.48,2.51,2.51,0,0,0,.72-.6,5,5,0,0,1,2-1.77c1.07.47,2.08,1,3.14,1.35,2.74,1,5.47,1.27,8.18-.18,1-.56,2.2-1,3.2-1.59a7.86,7.86,0,0,0,2-1.9,9.94,9.94,0,0,0,1.91-3.13,7.93,7.93,0,0,1,.91-2.25,5.08,5.08,0,0,0,.75-3.44,17.12,17.12,0,0,1-.34-2,7,7,0,0,0-1-3.84,22.86,22.86,0,0,0-3.91-4.85A13.33,13.33,0,0,0,585,73.76a10.24,10.24,0,0,0-4.07-.38,14.74,14.74,0,0,0-7.82,4.2,7.81,7.81,0,0,0-2.5,4.65c-.05.52-.38,1-.38,1.53,0,1.73.07,3.46.22,5.18a22.69,22.69,0,0,0,.62,2.78c.07.31.13.62.2.93a1.1,1.1,0,0,1-.74,1.36,4.28,4.28,0,0,0-2,1.91A8.87,8.87,0,0,1,565,99c-.31.16-.73.16-1,.37a11.82,11.82,0,0,1-3.49,1.53,2.39,2.39,0,0,1-3.24-1.32,5.51,5.51,0,0,0-.57-.88,62.13,62.13,0,0,0-6-7.14c-.86-.85-1.23-.94-2.28-.23s-2.31,1.63-3.51,2.37c-1.46.9-1.32,1.83-.36,2.92.17.18.43.31.52.51a6.34,6.34,0,0,0,1.51,1.9,7.35,7.35,0,0,1,1,1.12A130.23,130.23,0,0,1,554.84,111c.48.82,1.06,1.59,1.54,2.41.85,1.41,1.63,2.86,2.49,4.27s1.69,2.59,2.51,3.9,1.71,2.76,2.54,4.15a6.9,6.9,0,0,1,.69,1.42c.45,1.45.84,2.92,1.29,4.37s.91,2.66,1.32,4c.47,1.59.89,3.19,1.34,4.79.16.57.33,1.15.54,1.7.66,1.75,1.42,3.47,2,5.24.91,2.71,1.36,5.57,2.63,8.16a1.38,1.38,0,0,1,.11.41c.19,1.07.45,2.13.55,3.21.14,1.55.2,3.1.24,4.64s0,3.25,0,4.88c.06,3.32.24,6.63.2,9.95,0,2.79-.29,5.57-.51,8.35-.14,1.87-.37,3.73-.61,5.59-.34,2.58-1.14,5.09-1.25,7.72a19.28,19.28,0,0,0-.39,2.07,20.26,20.26,0,0,1-.56,4.73c-.33,1.77-.81,3.5-1.16,5.27a38.24,38.24,0,0,1-2.5,8.52,19.16,19.16,0,0,0-1.17,2.36c-.91,3-2.74,5.58-4.07,8.38-.2.41-.51.76-.72,1.16-.53,1-.95,2.05-1.56,3-1,1.51-2.19,2.88-3.12,4.41a26.76,26.76,0,0,1-3.72,4.86,7.2,7.2,0,0,0-1.39,2.09,13.34,13.34,0,0,1-2.15,3.1,3.43,3.43,0,0,0-.83,1.41,6.62,6.62,0,0,1-1.16,2.93c-.86,1-1.72,2-2.65,2.88-1.43,1.41-3,2.67-4.36,4.14-2.41,2.64-5,5.13-7.53,7.59-.43.4-1,.68-1.45,1a3.48,3.48,0,0,0-.62.65,8.15,8.15,0,0,1-.91,1.28,21.25,21.25,0,0,1-4.37,3.16c-.57.27-1.15.53-1.71.83-.8.44-1.6.89-2.38,1.38s-1.5,1.06-2.27,1.55-1.36.74-2,1.14a14.07,14.07,0,0,1-1.54,1.06c-1.22.55-2.48,1-3.73,1.49s-2,.31-3.33.84-2.45,1.09-3.71,1.54c-1,.36-2.09.59-3.15.87-2,.53-3.94,1.09-5.93,1.57-7.28,1.75-15,4.25-22.53,3.55a2.93,2.93,0,0,0-.41.07c-.6,0-1.2.11-1.79.09-2-.07-4.07-.2-6.11-.28a24.2,24.2,0,0,1-3.91-.08c-1.23-.25-2.44.06-3.67-.18a25.73,25.73,0,0,0-4.22-.28,10.1,10.1,0,0,0-1.54.18,3.26,3.26,0,0,1-1,.09c-2.41-.48-4.87-.66-7.28-1.14s-4.83-.71-7.19-1.3c-3.35-.83-6.82-1.18-10.06-2.5-1.13-.46-2.32-.8-3.42-1.38-.62-.32-1.26-.63-1.9-.92-1.94-.85-3.9-1.66-5.83-2.53-.6-.28-1.12-.73-1.7-1.07-1.16-.68-2.34-1.3-3.48-2-.84-.51-1.63-1.11-2.43-1.68-1.35-1-2.67-2-4-2.91s-2.9-2-4.43-2.89a16.63,16.63,0,0,1-3.93-2.67c-.55-.57-1.34-.9-1.77-1.63,0-.08-.17-.11-.27-.16a20.21,20.21,0,0,1-4.46-3.39c-1.08-1-2.18-2-3.27-3l-2.49-2.3-.59-.59c-.52-.53-1.05-1-1.53-1.6s-1.05-1.41-1.65-2-1.42-1.37-2.16-2a57.56,57.56,0,0,1-7.72-8.71c-1.24-1.63-2.35-3.36-3.68-4.92-1.56-1.83-2.9-3.82-4.31-5.76-.81-1.11-1.47-2.33-2.21-3.49s-1.65-2.47-2.47-3.7c-.1-.15-.87-2.12-1-2.24-1.36-1.34-1.06-2.11-1.79-3.82a12.35,12.35,0,0,0-1.7-3.31c-1.38-1.61-2-.5-3.14.68-1.35,1.39-2.64,2.85-4,4.19a1.27,1.27,0,0,0-.36,1.59c.45,1.08.87,2.17,1.38,3.22a75.75,75.75,0,0,0,5.55,9.23l2.71,3.93a1.33,1.33,0,0,1,.32,1.28,6.61,6.61,0,0,1-2,3,11.09,11.09,0,0,0-1.49,1.76c-.38.47-.72,1-1.12,1.4a30.06,30.06,0,0,1-2.45,2.47,9.12,9.12,0,0,0-1,.87c-.68.74-1.28,1.63-2.46,1.71-.37-.39-.74-.77-1.09-1.17a7.31,7.31,0,0,0-4.27-2.38,13.13,13.13,0,0,0-7.81,1.13,22.9,22.9,0,0,0-3.36,2,8.66,8.66,0,0,0-3.16,3.49c-.34.73-.67,1.47-1.07,2.17-1.41,2.42-1.56,4.8.16,7.12.88,1.19,1.82,2.34,2.73,3.5a10.84,10.84,0,0,0,.79,1,7.47,7.47,0,0,0,2,1.75,9.51,9.51,0,0,0,5.56,1c.76-.15,1.53-.28,2.28-.49a32.58,32.58,0,0,0,3.64-1.12,9.56,9.56,0,0,0,4.06-3.4,7.4,7.4,0,0,0,1.41-3.05,35.3,35.3,0,0,0,.64-7,1.41,1.41,0,0,1,.86-1.39,7.19,7.19,0,0,0,1.28-.9,6.1,6.1,0,0,1,2.65-1.66,4.62,4.62,0,0,0,1.49-.78c1.72-1.35,3.4-2.75,5.1-4.14l1.49-1.18c.22.25.36.39.49.56,1.7,2.17,3.37,4.36,5.11,6.5,1.34,1.64,2.74,3.24,4.16,4.81s3,3.28,4.57,4.87,3.06,3.05,4.63,4.53q1.76,1.67,3.63,3.23c1.3,1.08,2.66,2.08,4,3.11,1,.8,2,1.62,3.09,2.38,2.91,2.06,5.83,4.1,8.75,6.15,1.18.83,2.33,1.71,3.56,2.45,2.58,1.53,5.15,3.09,7.82,4.45s5.45,2.49,8.18,3.69c1.84.81,3.82,1.22,5.69,1.94a33.59,33.59,0,0,0,3.88,1.05c2.39.61,4.77,1.23,7.17,1.8,1.2.29,2.42.5,3.63.72s2.28.4,3.43.54,2.55.14,3.79.36c2.84.48,5.65,1.16,8.5,1.58,2.62.39,5.26.62,7.9.78,2.35.14,4.72.09,7.08.13h.74c1.7.07,3.4.06,5.08.26a10.1,10.1,0,0,0,3.57-.32,29.92,29.92,0,0,1,3.74-.67c2.07-.21,4.15-.41,6.23-.53a6.14,6.14,0,0,1,2.29.31,3.26,3.26,0,0,1,1.39,1.06,1.73,1.73,0,0,1-.07,2.15,17.39,17.39,0,0,1-2,1.2c-.56.31-1.16.52-1.7.85s-1.08.78-1.62,1.17c-3.94,2.83-8.17,5.21-12,8.19-1,.75-2.12,1.18-3.08,2a28.76,28.76,0,0,1-3.29,2.11,4.71,4.71,0,0,0-1,.91c-.48.6-.9,1.26-1.35,1.89a1.4,1.4,0,0,0-.35,1.06c.11,1.12.17,2.25.24,3.37l.18,3c0,.48,0,1,.08,1.45,0,.31.12.62.14.94q.14,2.94.24,5.9.08,2.16.09,4.32c0,1.62-.07,3.24,0,4.86.09,1.9.32,3.79.48,5.69a27.87,27.87,0,0,0,.28,3.05,7.84,7.84,0,0,1-.07,2.94.67.67,0,0,1-.59.64c-1.26.2-2.5.51-3.77.6-3.48.26-7,.38-10.44.66s-7.11.58-10.65,1a75.66,75.66,0,0,0-8.95,1.51c-2.81.69-5.64,1.3-8.46,2a16.57,16.57,0,0,0-2.31.68c-2.2.87-4.38,1.78-6.56,2.69a9.11,9.11,0,0,0-1.06.58,4.55,4.55,0,0,0,1.4.25c2.57.18,5.14.35,7.71.55a38.9,38.9,0,0,0,4,.38c1.82,0,3.62.64,5.45.15a1.22,1.22,0,0,1,.42,0,16.53,16.53,0,0,0,2.32.21,21.2,21.2,0,0,1,5,.1,1.48,1.48,0,0,0,.42,0,22.58,22.58,0,0,1,4.65-.08c2.82.21,5.64.33,8.46.47.85,0,1.69,0,2.54,0,1.26,0,2.53.19,3.79.19,3.47,0,6.93-.06,10.4-.16a35.81,35.81,0,0,0,3.87-.08,25.49,25.49,0,0,1,4.44.17,8,8,0,0,0,.85,0l3.7-.16,4.34-.16,5.18-.19a11.82,11.82,0,0,0,2.53-.06c1.78-.45,3.59-.19,5.37-.36s3.46-.12,5.19-.16c.35,0,.7,0,1.05,0,.67,0,1.34.05,2,0,1.42,0,2.83-.08,4.24-.14,3.1-.13,6.22.06,9.28-.59a7.34,7.34,0,0,1,1.06-.08l.83,0c-.12-.16-.16-.23-.21-.26a38.49,38.49,0,0,0-10.41-3.5,71.92,71.92,0,0,1-10.75-2.39,18.88,18.88,0,0,0-3.41-.93c-.84-.08-1.66-.35-2.5-.42-2.11-.18-4.23-.27-6.35-.47a5.48,5.48,0,0,1-2.11-.57,3.08,3.08,0,0,0-1.35-.47c-1.52-.08-3-.21-4.55-.28a14.91,14.91,0,0,0-1.89,0c-.46,0-.91.14-1.37.16a.7.7,0,0,1-.82-.74c0-.73-.14-1.47-.24-2.2a33.84,33.84,0,0,1-.45-6.11c0-.5,0-1,0-1.48.07-2.37.07-4.73.22-7.09.11-1.83.41-3.65.6-5.48.17-1.64.24-3.3.48-4.94a8,8,0,0,0,0-3.15,1.61,1.61,0,0,1,.68-1.95,11,11,0,0,0,2.22-2.09c.58-.56,1.16-1.13,1.78-1.65,1.78-1.49,3.59-3,5.39-4.44a4.53,4.53,0,0,1,1-.77,9.86,9.86,0,0,0,2.54-1.88,8,8,0,0,1,.68-.51,32.47,32.47,0,0,0,2.84-2,83.47,83.47,0,0,1,6.81-5.07l2.31-1.69a8.4,8.4,0,0,0,1.13-.92,7.33,7.33,0,0,1,2.66-1.89,2.48,2.48,0,0,0,1-.83,10,10,0,0,1,1.57-1.4c.74-.54,1.56-1,2.31-1.51,2.28-1.65,4.52-3.37,6.83-5,2.1-1.5,4.31-2.84,6.36-4.39,1.88-1.42,4-2.48,5.64-4.26a.51.51,0,0,1,.26-.18c1.31-.34,2.19-1.38,3.26-2.1,2-1.37,4-2.92,6-4.38,1.36-1,2.75-2,4.13-3s2.72-2,4.1-3c1.74-1.22,3.51-2.38,5.24-3.6s3.5-2.63,5.3-3.87c3.14-2.17,6.32-4.28,9.48-6.43q2.4-1.63,4.79-3.31a20.77,20.77,0,0,0,1.81-1.44c.28-.26.43-.67.73-.9q3.57-2.81,7.18-5.54c.56-.43,1.21-.72,1.79-1.13,1.91-1.32,3.8-2.66,5.7-4,.43-.3.83-.63,1.26-.95a24.9,24.9,0,0,1-2-2.43,26.74,26.74,0,0,1-2-3.74,8.86,8.86,0,0,0-1.6-2.39c-.62.51-1.26,1-1.81,1.5-.73.71-1.41,1.48-2.1,2.24a28.6,28.6,0,0,1-4.05,3.56c-2.55,1.9-5,3.92-7.55,5.83-1.72,1.28-3.55,2.42-5.27,3.7a10.13,10.13,0,0,1-3.56,2c-.16,0-.28.22-.42.32C563.15,253.1,562.43,253.07,561.4,252.31Z"/><path class="cls-5" d="M403.92,145.75l-.35-1a106.53,106.53,0,0,1,21.2-8.55c.64-.19,1.21-.22,1.35.49.1.5-.47.71-.94.85C416.9,140,412,142.93,403.92,145.75Z"/><path class="cls-5" d="M453.54,179.43c-.63.8-1.16.28-.93-.4A108,108,0,0,1,459,165.46c.31-.59.69-1,1.29-.63.43.27.18.82-.05,1.25C456.15,173.59,457.18,171.76,453.54,179.43Z"/><path class="cls-5" d="M447,140.88c-.31-.47.23-1.2.73-.7,6.62,5.36,5.12,4.31,10.5,10.1.43.51.68,1,.1,1.43-.42.29-.83-.14-1.14-.52C451.71,144.61,452.71,147.15,447,140.88Z"/><path class="cls-5" d="M450.88,200.76c-.14-.42.32-1.32.79-.75,3.33,8.21,2.28,6.7,4.86,13.8.2.63.23,1.2-.46,1.36-.49.11-.71-.45-.85-.92C452.71,206.09,453.79,208.75,450.88,200.76Z"/><path class="cls-5" d="M469.13,226.16c-.45-.36-.17-.88.4-.93a130.42,130.42,0,0,1,23.24,9.58c.59.3,1,.67.65,1.28-.27.43-.82.19-1.25,0C484.61,232.08,476.85,229.72,469.13,226.16Z"/><path class="cls-4" d="M796.48,28.4H768.61V56.25h27.87Z"/><path class="cls-3" d="M838.77,28.4H810.9V56.25h27.87Z"/><path class="cls-5" d="M880.32,28.83h-27v27h27Z"/></svg>