<?xml version="1.0" encoding="utf-8"?>
<!-- Generator: Adobe Illustrator 23.1.1, SVG Export Plug-In . SVG Version: 6.00 Build 0)  -->
<svg version="1.1" id="レイヤー_1" xmlns="http://www.w3.org/2000/svg" xmlns:xlink="http://www.w3.org/1999/xlink" x="0px"
	 y="0px" viewBox="0 0 419.63 242.67" style="enable-background:new 0 0 419.63 242.67;" xml:space="preserve">
<style type="text/css">
	.st0{fill:#434965;}
	.st1{opacity:0.4;fill:#060001;enable-background:new    ;}
	.st2{opacity:0.1;fill:#060001;enable-background:new    ;}
	.st3{fill:#E5B1B2;}
	.st4{fill:#FFFFFF;}
	.st5{fill:#4EADB2;}
	.st6{opacity:0.1;}
	.st7{opacity:0.08;fill:#060001;enable-background:new    ;}
	.st8{fill:#9B9AA0;}
	.st9{fill:#929397;}
	.st10{fill:#3D3B53;}
</style>
<path class="st0" d="M399.14,215.33c-1.49,3.85-3.32,7.53-5.46,11.02c-1.01,1.65-2.12,3.26-3.3,4.78H20.49
	c0.34-0.27,2.29-1.93,5.32-4.78c2.19-2.04,4.91-4.69,7.99-7.87l38.98-8.46c0.51-0.11,1.01-0.16,1.54-0.16l41.56-0.07h0.05
	l20.57-0.02h0.05l17.37-0.02h11.38h11.65l47.74-0.07h0.07h3.71h6.5h8.11h2.17l8.21-0.09h2.72l23.85-0.04h7.58h3.66l27.55-0.04H327
	l26.08-0.05l22.02-0.02c0.6,0,1.23,0.07,1.83,0.23L399.14,215.33z"/>
<path class="st1" d="M25.8,226.34h367.85c-1.01,1.65-2.12,3.26-3.3,4.78H20.49C20.82,230.81,22.77,229.15,25.8,226.34z"/>
<path class="st0" d="M248.34,116.86c-3.37-3.38-8.18-5.64-10.06-9.91c-2.96-6.69,2.82-13.67,5.2-20.58
	c2.07-6.14,1.4-12.83-1.85-18.5c-1.97-3.35-4.81-6.32-6.06-10c-2.45-7.25,1.2-11.72-1.52-18.93c-2.5-6.66-8.76-16.84-18.89-21.28
	c-2.96-1.29-15.11-6.12-24.62-6.12c-22.55,0-42.38,16.68-40.81,37.13c0.53,6.89-1.3,6.69-3.46,12.58
	c-1.37,3.67-1.76,7.14-0.43,10.86c0.48,1.34,0.87,2.72,1.15,4.1c1.32,6.17,0.89,12.58,0.15,18.84c-0.77,6.37-4.07,15.66-2.05,21.96
	c1.47,4.56,6.04,4.99,10.35,6.1c7.63,1.95,15.06,4.17,23,4.71c10.97,0.75,21.92-1.22,32.73-3.17l37.2-6.73l0.82-0.16
	C248.92,117.45,248.65,117.16,248.34,116.86z"/>
<path class="st2" d="M248.36,116.88v1.02l-37.2,6.73c-10.8,1.95-21.75,3.92-32.73,3.17c-7.94-0.54-15.38-2.76-23-4.71
	c-4.31-1.11-8.9-1.54-10.35-6.1c-2.02-6.28,1.28-15.59,2.05-21.96c0.75-6.26,12.15-29.06,10.83-35.25l68.2,2.79
	c0.46,3.4,18.48,20.54,17.35,23.8c-2.36,6.89-8.16,13.89-5.2,20.58C240.18,111.24,245,113.51,248.36,116.88z"/>
<path class="st3" d="M178.68,99.61c0.41,2.15,0.62,4.53-0.55,6.41c-1.56,2.54-4.96,3.33-8.01,3.9l-10.56,1.99
	c-0.72,0.14-1.49,0.29-2.02,0.75c-0.63,0.54-0.84,1.38-0.94,2.18c-0.43,3.6,0.94,7.16,2.17,10.58c2.5,6.96,4.6,14.05,7.75,20.76
	c3.15,6.71,7.48,13.1,13.67,17.59c6.18,4.49,14.37,6.87,21.92,5.12c6.59-1.52,11.98-5.92,16.65-10.56
	c3.85-3.83,7.43-8.03,9.31-13.01c1.28-3.42,1.71-7.07,2.12-10.68c0.62-5.53,1.25-11.06,1.88-16.61c0.29-2.61,0.48-5.53-1.3-7.5
	c-0.79-0.88-1.85-1.45-2.93-1.99c-4.04-2.02-8.33-3.69-12.1-6.14c-3.78-2.45-7.12-5.8-8.25-9.97c-0.67-2.52-0.55-5.24-1.73-7.57
	c-1.3-2.63-4.07-4.4-7.05-5.17c-2.96-0.77-6.09-0.68-9.14-0.34c-3.06,0.32-14.82,1.16-16.1,4.4c-0.67,1.75,2.14,5.49,2.79,7.21
	C177.31,93.74,178.15,96.64,178.68,99.61z"/>
<path class="st2" d="M178.68,99.61c0.41,2.15,0.62,4.53-0.55,6.41c-1.56,2.54-4.96,3.33-8.01,3.9l-10.56,1.99
	c-0.72,0.14-1.49,0.29-2.02,0.75c-0.63,0.54-0.84,1.38-0.94,2.18c-0.43,3.6,0.94,7.16,2.17,10.58c2.5,6.96,4.6,14.05,7.75,20.76
	c3.15,6.71,7.48,13.1,13.67,17.59c6.18,4.49,14.37,6.87,21.92,5.12c6.59-1.52,11.98-5.92,16.65-10.56
	c3.85-3.83,7.43-8.03,9.31-13.01c1.28-3.42,1.71-7.07,2.12-10.68c0.62-5.53,1.25-11.06,1.88-16.61c0.29-2.61,0.48-5.53-1.3-7.5
	c-0.79-0.88-1.85-1.45-2.93-1.99c-4.04-2.02-8.33-3.69-12.1-6.14c-3.78-2.45-7.12-5.8-8.25-9.97c-0.67-2.52-0.55-5.24-1.73-7.57
	c-1.3-2.63-4.07-4.4-7.05-5.17c-2.96-0.77-6.09-0.68-9.14-0.34c-3.06,0.32-14.82,1.16-16.1,4.4c-0.67,1.75,2.14,5.49,2.79,7.21
	C177.31,93.74,178.15,96.64,178.68,99.61z"/>
<path class="st4" d="M204.11,137.58l6.18-12.35c2.91-5.78,5.87-11.88,5.56-18.27c-0.05-1.27-0.07-2.86,1.11-3.45
	c0.51-0.2,1.08-0.27,1.64-0.2c6.52,0.32,12.95,1.54,19.08,3.63c1.18,0.41,2.41,0.88,3.25,1.77c0.84,0.88,1.18,2.09,1.47,3.24
	c0.96,3.9,1.68,7.84,2.12,11.83c1.11,9.86,0.55,19.79,0,29.67l-1.64,30.17c0,0.43-0.07,0.86-0.26,1.25
	c-0.41,0.7-1.32,0.93-2.14,1.06c-3.18,0.52-6.45,0.41-9.67,0.3c-22.69-0.82-45.48-2.06-68.03,0.54c0.1-3.15,0.05-6.28-0.17-9.43
	c-0.89-13.58-4.62-26.82-8.3-39.98c-2.14-7.68-4.21-16.05-0.77-23.3c0.51-1.13,1.23-2.18,2.14-3.08c1.47-1.36,3.46-2.06,5.44-2.58
	c3.42-0.88,6.95-1.25,10.49-1.11l23.37,47.92c1.06,2.2,1.95,4.51,3.01,6.66c0.96-3.74-0.19-8.12,0.96-12.17
	C200.19,145.53,202.14,141.5,204.11,137.58z"/>
<path class="st5" d="M201.66,170.54c4.19,0.25,8.25-1.77,11.12-4.62c2.89-2.86,4.76-6.46,6.38-10.13
	c2.31-5.21,4.14-10.59,5.49-16.09c1.11-4.67,1.9-9.52,1.13-14.26c-1.06-6.55-4.98-12.49-5.65-19.09c-0.12-1.16-0.05-2.49,0.94-3.2
	c0.6-0.43,1.42-0.5,2.17-0.52c6.98-0.39,14.68-0.32,20.09,3.85c1.66,1.27,2.98,2.86,4.6,4.17c3.85,3.15,9.26,4.74,11.72,8.91
	c0.87,1.45,1.27,3.11,1.88,4.67c1.42,3.69,5.29,10.43,7.72,13.62c-2.36,9.38-6.5,15.3-8.86,24.68c-1.37,5.51-2.77,11.04-4.96,16.3
	c-1.42,3.45-3.22,6.98-2.77,10.68c0.17,1.45,0.7,2.86,1.13,4.26c1.56,4.92,2.31,10.06,2.19,15.19l-105.76,0.25
	c5.08-6.85,6.54-15.23,6.04-23.55c-0.24-3.99-1.2-8-3.35-11.45c-3.37-5.42-9.27-8.93-15.09-11.97c-4.07-2.08-9.72,15.69-14.12,14.35
	c0.72-4.74,2.31-29.04,2-33.82c-0.1-1.56-0.24-3.17,0.26-4.67c0.34-1.02,0.99-1.93,1.42-2.92c1.73-3.99,0.07-9.07,2.89-12.47
	c1.95-2.36,5.34-3.04,8.11-4.49c2.84-1.5,5.03-3.83,7.51-5.85c4.86-3.88,10.81-6.39,17.11-7.19c1.85,2.74,2.96,5.85,3.27,9.07
	c0.19,2.02,0.05,4.08,0.36,6.1c0.41,2.74,1.61,5.3,2.79,7.82c4.96,10.54,9.94,21.1,16.22,31.01c1.78,2.79,3.71,5.58,6.28,7.75
	C194.49,169.11,198.22,170.69,201.66,170.54z"/>
<path class="st2" d="M201.66,170.54c4.19,0.25,8.25-1.77,11.12-4.62c2.89-2.86,4.76-6.46,6.38-10.13
	c2.31-5.21,4.14-10.59,5.49-16.09c1.11-4.67,1.9-9.52,1.13-14.26c-1.06-6.55-4.98-12.49-5.65-19.09c-0.12-1.16-0.05-2.49,0.94-3.2
	c0.6-0.43,1.42-0.5,2.17-0.52c6.98-0.39,14.68-0.32,20.09,3.85c1.66,1.27,2.98,2.86,4.6,4.17c3.85,3.15,9.26,4.74,11.72,8.91
	c0.87,1.45,1.27,3.11,1.88,4.67c1.42,3.69,5.29,10.43,7.72,13.62c-2.36,9.38-6.5,15.3-8.86,24.68c-1.37,5.51-2.77,11.04-4.96,16.3
	c-1.42,3.45-3.22,6.98-2.77,10.68c0.17,1.45,0.7,2.86,1.13,4.26c1.56,4.92,2.31,10.06,2.19,15.19l-105.76,0.25
	c5.08-6.85,6.54-15.23,6.04-23.55c-0.24-3.99-1.2-8-3.35-11.45c-3.37-5.42-9.27-8.93-15.09-11.97c-4.07-2.08-9.72,15.69-14.12,14.35
	c0.72-4.74,2.31-29.04,2-33.82c-0.1-1.56-0.24-3.17,0.26-4.67c0.34-1.02,0.99-1.93,1.42-2.92c1.73-3.99,0.07-9.07,2.89-12.47
	c1.95-2.36,5.34-3.04,8.11-4.49c2.84-1.5,5.03-3.83,7.51-5.85c4.86-3.88,10.81-6.39,17.11-7.19c1.85,2.74,2.96,5.85,3.27,9.07
	c0.19,2.02,0.05,4.08,0.36,6.1c0.41,2.74,1.61,5.3,2.79,7.82c4.96,10.54,9.94,21.1,16.22,31.01c1.78,2.79,3.71,5.58,6.28,7.75
	C194.49,169.11,198.22,170.69,201.66,170.54z"/>
<path class="st3" d="M199.81,108.91c17.45-1.65,29.94-18.62,27.88-37.89c-2.06-19.27-17.88-33.55-35.33-31.9
	c-17.46,1.65-29.94,18.62-27.88,37.89S182.35,110.56,199.81,108.91z"/>
<path class="st0" d="M179.4,108.77c0.87-7.75-2.55-15.32-6.42-22.19c-1.85-3.29-3.85-6.57-4.76-10.18
	c-0.94-3.6-0.67-7.71,1.71-10.68c2.02-2.54,5.22-3.9,8.2-5.37c8.37-4.19,16.05-10.36,19.73-18.59c-2.09,1.07-1.54,4.26,0.29,5.67
	c1.83,1.41,4.35,1.68,6.59,2.36c8.25,2.45,13.19,10.18,17.16,17.43c0.65,1.18,1.3,2.43,1.3,3.76c0,1.34-0.65,2.52-1.32,3.65
	c-1.95,3.29-4.35,6.44-5.25,10.11c-1.01,4.19,0.05,8.59,1.44,12.69c1.49,4.37,3.44,8.77,7,11.92c3.56,3.13,9.07,4.69,13.45,2.67
	c-4.38-7.07-8.9-14.98-7.19-23.01c0.82-3.83,3.03-7.32,3.97-11.15c1.8-7.28-1.2-14.78-4.12-21.74l-8.76-20.76
	c-1.35-3.17-2.86-6.55-5.92-8.36c-2.07-1.2-4.6-1.52-7.03-1.75c-7.82-0.66-15.93-0.43-23.22,2.31
	c-13.28,4.99-21.61,17.32-28.2,29.26c-1.97,3.58-3.92,7.39-3.85,11.42c0.05,2.22,0.7,4.37,1.23,6.53
	c2.17,8.79,2.29,17.88,2.41,26.91c0.1,6.91-0.29,13.44-3.51,19.74c4.4,0.82,10.78,3.04,15.13,1.43
	C175.19,120.67,178.68,114.16,179.4,108.77z"/>
<g class="st6">
	<path class="st2" d="M157.86,101.47c0.02-0.97,0.02-1.97,0-2.99c-0.12-9.02-0.24-18.11-2.41-26.91c-0.48-1.7-0.87-3.45-1.13-5.19
		c-0.07,0.61-0.12,1.2-0.1,1.81c0.05,2.22,0.7,4.37,1.23,6.53C157.62,83.47,157.74,92.52,157.86,101.47z"/>
	<path class="st2" d="M235.35,77.81c0.48-2.04,0.65-4.13,0.48-6.21c-0.07,1.04-0.24,2.06-0.48,3.08c-0.94,3.83-3.15,7.3-3.97,11.15
		c-0.36,1.7-0.46,3.45-0.29,5.17c0.05-0.68,0.17-1.36,0.29-2.02C232.19,85.1,234.41,81.64,235.35,77.81z"/>
	<path class="st2" d="M222.93,69.33c0.19-0.5,0.29-1.02,0.29-1.54c0-1.34-0.65-2.58-1.3-3.76c-3.97-7.23-8.9-14.96-17.16-17.43
		c-2.26-0.68-4.76-0.95-6.59-2.36c-0.96-0.77-1.54-1.88-1.61-3.08c-4.02,6.94-10.93,12.26-18.41,16c-2.96,1.47-6.18,2.86-8.21,5.37
		c-1.9,2.38-2.45,5.46-2.12,8.45c0.19-1.93,0.92-3.76,2.12-5.3c2.02-2.54,5.22-3.9,8.21-5.37c7.48-3.74,14.39-9.04,18.41-16
		c0.07,1.18,0.67,2.29,1.61,3.08c1.85,1.41,4.35,1.68,6.59,2.36c8.25,2.45,13.19,10.18,17.16,17.43
		C222.3,67.88,222.66,68.6,222.93,69.33z"/>
	<path class="st2" d="M225.12,106.16c-3.56-3.15-5.51-7.55-7-11.92c-0.89-2.45-1.49-4.99-1.78-7.57c-0.34,3.58,0.6,7.25,1.78,10.72
		c1.49,4.37,3.44,8.77,7,11.92c3.56,3.13,9.07,4.69,13.45,2.67c-0.53-0.84-1.06-1.7-1.56-2.58
		C232.94,110.47,228.25,108.93,225.12,106.16z"/>
	<path class="st2" d="M179.4,105.62c-0.72,5.39-4.21,11.9-9.91,14.03c-3.95,1.47-9.58-0.23-13.88-1.16
		c-0.36,0.97-0.79,1.95-1.27,2.88c4.4,0.82,10.78,3.04,15.13,1.43c5.7-2.13,9.19-8.66,9.91-14.03c0.15-1.34,0.17-2.7,0.07-4.06
		C179.47,105.01,179.42,105.32,179.4,105.62z"/>
</g>
<path class="st4" d="M224.3,192.18c-5.73-0.86-11.53-2.52-17.21-1.4c-3.3,0.63-6.3,2.18-9.05,4.06c1.52,1.13,3.27,2.15,4.21,3.72
	c0.6,1.09,1.03,2.24,1.32,3.44c0.6,2.09,1.2,4.24,1.3,6.42c0.1,2.18-0.36,4.44-1.76,6.21c7.22,0.68,14.22-1,21.25-2.65
	c0.79-0.14,1.56-0.43,2.24-0.86c1.11-0.82,1.44-2.29,1.44-3.63c0-2.38-0.72-4.71-1.44-7C225.82,197.74,225.17,194.9,224.3,192.18z"
	/>
<path class="st5" d="M262.97,133.29c2.84,0.34,5.05,2.52,6.67,4.74c4.55,6.19,6.52,13.67,8.71,20.9c2.72,9,5.92,17.86,9.58,26.56
	c0.8,2.02,1.76,3.97,2.89,5.83c0.91,1.45,2.02,2.83,2.43,4.46c0.99,3.97-2.48,7.68-6.11,9.88c-1.92,1.22-4.02,2.18-6.26,2.83
	c-2.17,0.61-4.4,0.84-6.64,1.07l-20.57,2.08c-9.48,0.98-19.03,1.95-28.49,1c-0.6-1.95,0.58-3.33,0.48-5.37
	c-0.05-1.45-0.75-2.81-1.35-4.15c-1.13-2.38-1.85-4.92-2.19-7.5c-0.1-0.95-0.15-1.93-0.53-2.81s-1.2-1.68-2.21-1.74
	c5.56-0.52,9.77-1.52,15.33-2.04c2.07-0.2,4.21-0.41,5.97-1.45c2.19-1.29,3.42-3.58,4.38-5.83c2.41-5.55,3.95-11.67,2.69-17.54
	c-1.04-4.83-3.92-9.32-3.92-14.23c0-2.92,1.06-5.76,2.31-8.46c1.32-2.83,3.06-5.74,5.97-7.16
	C255.03,132.95,259.7,132.89,262.97,133.29z"/>
<path class="st7" d="M262.97,133.29c2.84,0.34,5.05,2.52,6.67,4.74c4.55,6.19,6.52,13.67,8.71,20.9c2.72,9,5.92,17.86,9.58,26.56
	c0.8,2.02,1.76,3.97,2.89,5.83c0.91,1.45,2.02,2.83,2.43,4.46c0.99,3.97-2.48,7.68-6.11,9.88c-1.92,1.22-4.02,2.18-6.26,2.83
	c-2.17,0.61-4.4,0.84-6.64,1.07l-20.57,2.08c-9.48,0.98-19.03,1.95-28.49,1c-0.6-1.95,0.58-3.33,0.48-5.37
	c-0.05-1.45-0.75-2.81-1.35-4.15c-1.13-2.38-1.85-4.92-2.19-7.5c-0.1-0.95-0.15-1.93-0.53-2.81s-1.2-1.68-2.21-1.74
	c5.56-0.52,9.77-1.52,15.33-2.04c2.07-0.2,4.21-0.41,5.97-1.45c2.19-1.29,3.42-3.58,4.38-5.83c2.41-5.55,3.95-11.67,2.69-17.54
	c-1.04-4.83-3.92-9.32-3.92-14.23c0-2.92,1.06-5.76,2.31-8.46c1.32-2.83,3.06-5.74,5.97-7.16
	C255.03,132.95,259.7,132.89,262.97,133.29z"/>
<path class="st3" d="M134.14,128.76c1.35-3.01,2.72-6.12,2.74-9.38c0.05-3.54-1.49-6.89-2.65-10.22c-1.44-4.1-2.41-8.34-2.86-12.63
	c-0.1-0.41-0.02-0.84,0.19-1.2c0.31-0.41,0.89-0.5,1.42-0.59c2.57-0.54,4.5-2.49,6.11-4.47c2.48-3.04,4.57-6.32,6.26-9.84
	c1.23-2.58,2.89-5.71,5.87-5.73c-1.2,5.33-2.7,10.61-4.48,15.8c3.13-0.75,6.11-1.86,9.24-2.61c0.6-0.18,1.25-0.27,1.9-0.23
	c1.88,0.18,3.03,2.58,1.93,4.03c1.54,1.7,4.07,2.15,6.09,3.31c2,1.16,3.44,4.03,1.66,5.49c-0.34,0.27-0.79,0.48-1.04,0.84
	c-0.87,1.25,1.25,2.67,1.08,4.17c-0.14,1.2-1.78,1.77-3.03,1.45c-1.25-0.32-2.21-1.2-3.35-1.84c-1.11-0.63-2.57-1.04-3.63-0.39
	c-0.29,3.29-0.6,6.64-2.12,9.63c-0.55,1.09-1.25,2.11-1.71,3.24c-0.43,1.25-0.7,2.52-0.79,3.81L151.63,133
	C145.21,134.18,139.45,132.36,134.14,128.76z"/>
<path class="st4" d="M132.57,139.14l-1.18-7.55c-0.12-0.61-0.17-1.22-0.19-1.86c0-1.75,0.82-3.4,1.61-5.01
	c6.54,2.88,13.62,3.9,20.84,3.9c0.96,0,2.05-0.09,2.62-0.79c1.23,1.34,1.28,3.47,0.75,5.17c-0.53,1.7-1.52,3.22-2.19,4.85
	c-0.34,0.84-0.6,1.75-1.25,2.38c-1.01,1.02-2.62,1.2-4.09,1.18c-1.54,0-3.1-0.16-4.62-0.41
	C140.87,140.37,136.52,138.48,132.57,139.14z"/>
<path class="st5" d="M156.97,138.85c-5.08-0.54-10.13-1.32-15.14-2.31c-2.45-0.48-4.93-1.02-7.44-0.93
	c-1.64,0.07-3.39,0.36-4.81-0.39c1.4,4.49,1.49,9.2-0.19,13.6c-0.99,2.63-2.5,5.05-3.22,7.75c-1.52,5.64,0.55,11.79-1.32,17.32
	c-0.19,0.73-0.6,1.38-1.13,1.93c-0.58,0.5-1.37,0.75-1.9,1.29c-0.79,0.79-0.84,1.99-0.84,3.08l-0.02,9.61
	c-0.02,6.12,0.07,12.63,3.49,17.82c3.92,5.94,12.15,9.02,19.32,7.21c1.9-0.45,3.68-1.29,5.25-2.43c2.5-1.86,4.07-4.56,5.63-7.18
	c1.85-3.15,3.7-6.35,4.31-9.88c0.43-2.49,0.19-5.06-0.12-7.57c-1.68-13.96-5.32-27.81-4.52-41.82
	C154.4,143.36,155.34,140.89,156.97,138.85z"/>
<path class="st3" d="M178.2,196.81c-2.57,0.14-5.17,0.27-7.72,0c-1.85-0.2-3.66-0.63-5.51-0.93c-10.15-1.54-20.53,1.18-28.4,7.43
	c-1.42,1.16-2.86,2.9-2.07,4.51c0.84,1.72,3.42,1.68,5.41,1.36c-2.14,0.97-4.04,2.36-5.56,4.1c-0.55,0.63-1.08,1.4-0.99,2.22
	c0.22,1.72,2.72,2.04,4.55,1.88c-0.6,0.61-0.19,1.68,0.58,2.09c0.77,0.41,1.71,0.32,2.58,0.18c1.9-0.34,3.75-0.93,5.46-1.79
	c-0.34,0.86,0.26,1.86,1.11,2.29c0.87,0.43,1.9,0.39,2.86,0.25c4.52-0.7,8.3-3.67,12.73-4.83c7.07-1.86,14.46,1.11,21.8,1.32
	c2.29,0.07,4.64-0.16,6.74-1.04c2.57-1.11,4.64-3.17,7.36-3.9c3.01-0.82,6.47,0.11,9.24-1.27c2-1.02,0.19-8.84-0.31-10.36
	c-0.94-2.77-1.88-4.58-5.01-4.87C195.16,194.7,186.16,196.35,178.2,196.81z"/>
<path class="st4" d="M197.9,194.65c0,0,11.96,9.54,5.05,19.95l13.33-4.33v-9.11c0-0.43-5.08-6.94-5.08-6.94l-5.99-0.86L197.9,194.65
	z"/>
<path class="st8" d="M319.09,217.28l-53.42,6.66l-2.67,0.34l-26.11-13.15v-3.08l81.62-8.39L319.09,217.28z"/>
<path class="st9" d="M252.02,212.54l57.87-6.44l-0.6,10.06l-45.07,3.1L252.02,212.54z"/>
<path class="st1" d="M265.67,220.63v3.31l-2.67,0.34l-26.13-13.15v-3.08l24.93,12.56C261.82,220.63,265.06,220.9,265.67,220.63z"/>
<path class="st10" d="M275.92,168.22l-11.98,52.38c-0.41,1.81,0.79,3.58,2.72,3.99c0.41,0.09,0.82,0.09,1.23,0.04l75.87-9.45
	c1.35-0.16,2.48-1.04,2.91-2.27l16.36-46.51c0.62-1.77-0.38-3.65-2.26-4.24c-0.41-0.14-0.84-0.18-1.28-0.16l-80.25,3.58
	C277.62,165.66,276.28,166.73,275.92,168.22z"/>
</svg>
