<svg id="レイヤー_1" data-name="レイヤー 1" xmlns="http://www.w3.org/2000/svg" viewBox="0 0 224.07 121.99"><defs><style>.cls-1{fill:#4fbec6;}.cls-2{fill:#9fa0a0;}</style></defs><title>アートボード 1</title><rect class="cls-1" x="98.81" y="60.31" width="15.5" height="5.87"/><polygon class="cls-1" points="112.09 70.85 125.26 63.25 112.09 55.64 112.09 70.85"/><path class="cls-2" d="M85,109.73v9.86H2.35v-9.86H85m2.35-2.35H0v14.56H87.39Z"/><path class="cls-2" d="M85,91.84v9.87H2.35V91.84H85m2.35-2.35H0v14.57H87.39Z"/><path class="cls-2" d="M85,73.91v9.87H2.35V73.91H85m2.35-2.35H0V86.17H87.39Z"/><path class="cls-2" d="M85,56.07v9.86H2.35V56.07H85m2.35-2.35H0V68.28H87.39Z"/><path class="cls-2" d="M85,38.18V48.1H2.35V38.18H85m2.35-2.35H0V50.45H87.39Z"/><path class="cls-2" d="M85,20.28v9.87H2.35V20.28H85m2.35-2.34H0V32.5H87.39Z"/><path class="cls-2" d="M85,2.35v9.87H2.35V2.35H85M87.39,0H0V14.62H87.39Z"/><path class="cls-2" d="M221.72,2.35V25.68H139V2.35h82.69M224.07,0H136.68V28h87.39Z"/><path class="cls-2" d="M221.72,33.71V57H199.5V33.71h22.22m2.35-2.35H197.16v28h26.91Z"/><path class="cls-2" d="M191.48,33.71V57H169.29V33.71H191.5m2.35-2.35H167v28h26.9Z"/><path class="cls-2" d="M161.25,33.71V57H139V33.71h22.22m2.34-2.35H136.68v28h26.91Z"/><path class="cls-2" d="M221.72,65v54.58H139V65h82.69m2.35-2.35H136.68v59.28h87.39Z"/><path class="cls-2" d="M176.15,93v20H145.41V93h30.74m2.34-2.35H143.06v24.72h35.43Z"/><path class="cls-2" d="M215.35,93v20H184.16V93h31.19m2.35-2.35H181.81v24.72H217.7Z"/></svg>