<svg id="レイヤー_1" data-name="レイヤー 1" xmlns="http://www.w3.org/2000/svg" viewBox="0 0 224.07 121.99"><defs><style>.cls-1{fill:#231815;}.cls-2{fill:#f0efef;}.cls-3{fill:#4fbec6;}</style></defs><title>アートボード 2</title><rect class="cls-1" x="143.34" y="5.55" width="1.17" height="7.5"/><rect class="cls-1" x="147.18" y="5.55" width="1.17" height="7.5"/><rect class="cls-1" x="151.02" y="5.55" width="1.17" height="7.5"/><rect class="cls-1" x="154.85" y="5.55" width="1.17" height="7.5"/><rect class="cls-1" x="158.69" y="5.55" width="1.17" height="7.5"/><rect class="cls-1" x="162.53" y="5.55" width="1.17" height="7.5"/><rect class="cls-1" x="166.36" y="5.55" width="1.17" height="7.5"/><rect class="cls-1" x="170.2" y="5.55" width="1.17" height="7.5"/><rect class="cls-1" x="174.03" y="5.55" width="1.17" height="7.5"/><rect class="cls-1" x="177.87" y="5.55" width="1.17" height="7.5"/><rect class="cls-1" x="181.71" y="5.55" width="1.17" height="7.5"/><rect class="cls-1" x="185.54" y="5.55" width="1.17" height="7.5"/><rect class="cls-1" x="189.38" y="5.55" width="1.17" height="7.5"/><rect class="cls-1" x="193.22" y="5.55" width="1.17" height="7.5"/><rect class="cls-1" x="197.05" y="5.55" width="1.17" height="7.5"/><rect class="cls-1" x="200.89" y="5.55" width="1.17" height="7.5"/><rect class="cls-1" x="204.72" y="5.55" width="1.17" height="7.5"/><rect class="cls-1" x="208.56" y="5.55" width="1.17" height="7.5"/><rect class="cls-1" x="212.4" y="5.55" width="1.17" height="7.5"/><rect class="cls-1" x="216.23" y="5.55" width="1.17" height="7.5"/><rect class="cls-1" x="143.34" y="19.08" width="1.17" height="7.5"/><rect class="cls-1" x="147.18" y="19.08" width="1.17" height="7.5"/><rect class="cls-1" x="151.02" y="19.08" width="1.17" height="7.5"/><rect class="cls-1" x="154.85" y="19.08" width="1.17" height="7.5"/><rect class="cls-1" x="158.69" y="19.08" width="1.17" height="7.5"/><rect class="cls-1" x="162.53" y="19.08" width="1.17" height="7.5"/><rect class="cls-1" x="166.36" y="19.08" width="1.17" height="7.5"/><rect class="cls-1" x="170.2" y="19.08" width="1.17" height="7.5"/><rect class="cls-1" x="174.03" y="19.08" width="1.17" height="7.5"/><rect class="cls-1" x="177.87" y="19.08" width="1.17" height="7.5"/><rect class="cls-1" x="181.71" y="19.08" width="1.17" height="7.5"/><rect class="cls-1" x="185.54" y="19.08" width="1.17" height="7.5"/><rect class="cls-1" x="189.38" y="19.08" width="1.17" height="7.5"/><rect class="cls-1" x="193.22" y="19.08" width="1.17" height="7.5"/><rect class="cls-1" x="197.05" y="19.08" width="1.17" height="7.5"/><rect class="cls-1" x="200.89" y="19.08" width="1.17" height="7.5"/><rect class="cls-1" x="204.72" y="19.08" width="1.17" height="7.5"/><rect class="cls-1" x="208.56" y="19.08" width="1.17" height="7.5"/><rect class="cls-1" x="212.4" y="19.08" width="1.17" height="7.5"/><rect class="cls-1" x="216.23" y="19.08" width="1.17" height="7.5"/><path class="cls-2" d="M221.72,2.35V43.78H139V2.35h82.69M224.07,0H136.68V46.13h87.39Z"/><path class="cls-2" d="M177.59,51v68.6H139V51h38.56m2.35-2.35H136.68v73.3h43.26Z"/><path class="cls-2" d="M221.72,51v68.6H184.57V51h37.15m2.35-2.35H182.22v73.3h41.85Z"/><rect class="cls-1" x="143.34" y="32.6" width="1.17" height="7.5"/><rect class="cls-1" x="147.18" y="32.6" width="1.17" height="7.5"/><rect class="cls-1" x="151.02" y="32.6" width="1.17" height="7.5"/><rect class="cls-1" x="154.85" y="32.6" width="1.17" height="7.5"/><rect class="cls-1" x="158.69" y="32.6" width="1.17" height="7.5"/><rect class="cls-1" x="162.53" y="32.6" width="1.17" height="7.5"/><rect class="cls-1" x="166.36" y="32.6" width="1.17" height="7.5"/><rect class="cls-1" x="170.2" y="32.6" width="1.17" height="7.5"/><rect class="cls-1" x="144.29" y="54.4" width="1.17" height="7.5"/><rect class="cls-1" x="148.13" y="54.4" width="1.17" height="7.5"/><rect class="cls-1" x="151.97" y="54.4" width="1.17" height="7.5"/><rect class="cls-1" x="155.8" y="54.4" width="1.17" height="7.5"/><rect class="cls-1" x="159.64" y="54.4" width="1.17" height="7.5"/><rect class="cls-1" x="163.48" y="54.4" width="1.17" height="7.5"/><rect class="cls-1" x="167.31" y="54.4" width="1.17" height="7.5"/><rect class="cls-1" x="171.15" y="54.4" width="1.17" height="7.5"/><rect class="cls-1" x="144.29" y="67.93" width="1.17" height="7.5"/><rect class="cls-1" x="148.13" y="67.93" width="1.17" height="7.5"/><rect class="cls-1" x="151.97" y="67.93" width="1.17" height="7.5"/><rect class="cls-1" x="155.8" y="67.93" width="1.17" height="7.5"/><rect class="cls-1" x="159.64" y="67.93" width="1.17" height="7.5"/><rect class="cls-1" x="163.48" y="67.93" width="1.17" height="7.5"/><rect class="cls-1" x="167.31" y="67.93" width="1.17" height="7.5"/><rect class="cls-1" x="171.15" y="67.93" width="1.17" height="7.5"/><rect class="cls-1" x="144.29" y="81.45" width="1.17" height="7.5"/><rect class="cls-1" x="148.13" y="81.45" width="1.17" height="7.5"/><rect class="cls-1" x="151.97" y="81.45" width="1.17" height="7.5"/><rect class="cls-1" x="155.8" y="81.45" width="1.17" height="7.5"/><rect class="cls-1" x="159.64" y="81.45" width="1.17" height="7.5"/><rect class="cls-1" x="163.48" y="81.45" width="1.17" height="7.5"/><rect class="cls-1" x="167.31" y="81.45" width="1.17" height="7.5"/><rect class="cls-1" x="171.15" y="81.45" width="1.17" height="7.5"/><rect class="cls-1" x="144.29" y="95.1" width="1.17" height="7.5"/><rect class="cls-1" x="148.13" y="95.1" width="1.17" height="7.5"/><rect class="cls-1" x="151.97" y="95.1" width="1.17" height="7.5"/><rect class="cls-1" x="155.8" y="95.1" width="1.17" height="7.5"/><rect class="cls-1" x="159.64" y="95.1" width="1.17" height="7.5"/><rect class="cls-1" x="163.48" y="95.1" width="1.17" height="7.5"/><rect class="cls-1" x="167.31" y="95.1" width="1.17" height="7.5"/><rect class="cls-1" x="171.15" y="95.1" width="1.17" height="7.5"/><rect class="cls-1" x="144.29" y="108.62" width="1.17" height="7.5"/><rect class="cls-1" x="148.13" y="108.62" width="1.17" height="7.5"/><rect class="cls-1" x="151.97" y="108.62" width="1.17" height="7.5"/><rect class="cls-1" x="155.8" y="108.62" width="1.17" height="7.5"/><rect class="cls-1" x="159.64" y="108.62" width="1.17" height="7.5"/><rect class="cls-1" x="163.48" y="108.62" width="1.17" height="7.5"/><rect class="cls-1" x="189.13" y="95.1" width="1.17" height="7.5"/><rect class="cls-1" x="192.97" y="95.1" width="1.17" height="7.5"/><rect class="cls-1" x="196.81" y="95.1" width="1.17" height="7.5"/><rect class="cls-1" x="200.64" y="95.1" width="1.17" height="7.5"/><rect class="cls-1" x="204.48" y="95.1" width="1.17" height="7.5"/><rect class="cls-1" x="208.31" y="95.1" width="1.17" height="7.5"/><rect class="cls-1" x="212.15" y="95.1" width="1.17" height="7.5"/><rect class="cls-1" x="215.99" y="95.1" width="1.17" height="7.5"/><rect class="cls-1" x="189.13" y="108.62" width="1.17" height="7.5"/><rect class="cls-1" x="192.97" y="108.62" width="1.17" height="7.5"/><rect class="cls-1" x="189.13" y="54.4" width="1.17" height="7.5"/><rect class="cls-1" x="192.97" y="54.4" width="1.17" height="7.5"/><rect class="cls-1" x="196.81" y="54.4" width="1.17" height="7.5"/><rect class="cls-1" x="200.64" y="54.4" width="1.17" height="7.5"/><rect class="cls-1" x="204.48" y="54.4" width="1.17" height="7.5"/><rect class="cls-1" x="208.31" y="54.4" width="1.17" height="7.5"/><rect class="cls-1" x="212.15" y="54.4" width="1.17" height="7.5"/><rect class="cls-1" x="215.99" y="54.4" width="1.17" height="7.5"/><rect class="cls-1" x="189.13" y="67.93" width="1.17" height="7.5"/><rect class="cls-1" x="192.97" y="67.93" width="1.17" height="7.5"/><rect class="cls-1" x="196.81" y="67.93" width="1.17" height="7.5"/><rect class="cls-1" x="200.64" y="67.93" width="1.17" height="7.5"/><rect class="cls-1" x="204.48" y="67.93" width="1.17" height="7.5"/><rect class="cls-1" x="208.31" y="67.93" width="1.17" height="7.5"/><rect class="cls-1" x="212.15" y="67.93" width="1.17" height="7.5"/><rect class="cls-1" x="215.99" y="67.93" width="1.17" height="7.5"/><rect class="cls-1" x="189.13" y="81.45" width="1.17" height="7.5"/><rect class="cls-1" x="192.97" y="81.45" width="1.17" height="7.5"/><rect class="cls-1" x="196.81" y="81.45" width="1.17" height="7.5"/><rect class="cls-1" x="200.64" y="81.45" width="1.17" height="7.5"/><rect class="cls-1" x="204.48" y="81.45" width="1.17" height="7.5"/><rect class="cls-1" x="208.31" y="81.45" width="1.17" height="7.5"/><rect class="cls-1" x="212.15" y="81.45" width="1.17" height="7.5"/><rect class="cls-1" x="215.99" y="81.45" width="1.17" height="7.5"/><rect class="cls-1" x="174.03" y="32.6" width="1.17" height="7.5"/><rect class="cls-1" x="177.87" y="32.6" width="1.17" height="7.5"/><rect class="cls-1" x="181.71" y="32.6" width="1.17" height="7.5"/><rect class="cls-1" x="185.54" y="32.6" width="1.17" height="7.5"/><rect class="cls-1" x="189.38" y="32.6" width="1.17" height="7.5"/><rect class="cls-1" x="193.22" y="32.6" width="1.17" height="7.5"/><rect class="cls-1" x="197.05" y="32.6" width="1.17" height="7.5"/><rect class="cls-1" x="200.89" y="32.6" width="1.17" height="7.5"/><rect class="cls-1" x="204.72" y="32.6" width="1.17" height="7.5"/><rect class="cls-1" x="6.69" y="5.55" width="1.17" height="7.5"/><rect class="cls-1" x="10.53" y="5.55" width="1.17" height="7.5"/><rect class="cls-1" x="14.37" y="5.55" width="1.17" height="7.5"/><rect class="cls-1" x="18.2" y="5.55" width="1.17" height="7.5"/><rect class="cls-1" x="22.04" y="5.55" width="1.17" height="7.5"/><rect class="cls-1" x="25.88" y="5.55" width="1.17" height="7.5"/><rect class="cls-1" x="29.71" y="5.55" width="1.17" height="7.5"/><rect class="cls-1" x="33.55" y="5.55" width="1.17" height="7.5"/><rect class="cls-1" x="37.38" y="5.55" width="1.17" height="7.5"/><rect class="cls-1" x="41.22" y="5.55" width="1.17" height="7.5"/><rect class="cls-1" x="45.06" y="5.55" width="1.17" height="7.5"/><rect class="cls-1" x="48.89" y="5.55" width="1.17" height="7.5"/><rect class="cls-1" x="52.73" y="5.55" width="1.17" height="7.5"/><rect class="cls-1" x="56.57" y="5.55" width="1.17" height="7.5"/><rect class="cls-1" x="60.4" y="5.55" width="1.17" height="7.5"/><rect class="cls-1" x="64.24" y="5.55" width="1.17" height="7.5"/><rect class="cls-1" x="68.07" y="5.55" width="1.17" height="7.5"/><rect class="cls-1" x="71.91" y="5.55" width="1.17" height="7.5"/><rect class="cls-1" x="75.75" y="5.55" width="1.17" height="7.5"/><rect class="cls-1" x="79.58" y="5.55" width="1.17" height="7.5"/><rect class="cls-1" x="6.69" y="22.72" width="1.17" height="7.5"/><rect class="cls-1" x="10.53" y="22.72" width="1.17" height="7.5"/><rect class="cls-1" x="14.37" y="22.72" width="1.17" height="7.5"/><rect class="cls-1" x="18.2" y="22.72" width="1.17" height="7.5"/><rect class="cls-1" x="22.04" y="22.72" width="1.17" height="7.5"/><rect class="cls-1" x="25.88" y="22.72" width="1.17" height="7.5"/><rect class="cls-1" x="29.71" y="22.72" width="1.17" height="7.5"/><rect class="cls-1" x="33.55" y="22.72" width="1.17" height="7.5"/><rect class="cls-1" x="37.38" y="22.72" width="1.17" height="7.5"/><rect class="cls-1" x="41.22" y="22.72" width="1.17" height="7.5"/><rect class="cls-1" x="45.06" y="22.72" width="1.17" height="7.5"/><rect class="cls-1" x="48.89" y="22.72" width="1.17" height="7.5"/><rect class="cls-1" x="52.73" y="22.72" width="1.17" height="7.5"/><rect class="cls-1" x="56.57" y="22.72" width="1.17" height="7.5"/><rect class="cls-1" x="60.4" y="22.72" width="1.17" height="7.5"/><rect class="cls-1" x="64.24" y="22.72" width="1.17" height="7.5"/><rect class="cls-1" x="68.07" y="22.72" width="1.17" height="7.5"/><rect class="cls-1" x="71.91" y="22.72" width="1.17" height="7.5"/><rect class="cls-1" x="75.75" y="22.72" width="1.17" height="7.5"/><rect class="cls-1" x="79.58" y="22.72" width="1.17" height="7.5"/><rect class="cls-1" x="6.69" y="39.9" width="1.17" height="7.5"/><rect class="cls-1" x="10.53" y="39.9" width="1.17" height="7.5"/><rect class="cls-1" x="14.37" y="39.9" width="1.17" height="7.5"/><rect class="cls-1" x="18.2" y="39.9" width="1.17" height="7.5"/><rect class="cls-1" x="22.04" y="39.9" width="1.17" height="7.5"/><rect class="cls-1" x="25.88" y="39.9" width="1.17" height="7.5"/><rect class="cls-1" x="29.71" y="39.9" width="1.17" height="7.5"/><rect class="cls-1" x="33.55" y="39.9" width="1.17" height="7.5"/><rect class="cls-1" x="37.38" y="39.9" width="1.17" height="7.5"/><rect class="cls-1" x="41.22" y="39.9" width="1.17" height="7.5"/><rect class="cls-1" x="45.06" y="39.9" width="1.17" height="7.5"/><rect class="cls-1" x="48.89" y="39.9" width="1.17" height="7.5"/><rect class="cls-1" x="52.73" y="39.9" width="1.17" height="7.5"/><rect class="cls-1" x="56.57" y="39.9" width="1.17" height="7.5"/><rect class="cls-1" x="60.4" y="39.9" width="1.17" height="7.5"/><rect class="cls-1" x="64.24" y="39.9" width="1.17" height="7.5"/><rect class="cls-1" x="68.07" y="39.9" width="1.17" height="7.5"/><rect class="cls-1" x="6.69" y="57.09" width="1.17" height="7.5"/><rect class="cls-1" x="10.53" y="57.09" width="1.17" height="7.5"/><rect class="cls-1" x="14.37" y="57.09" width="1.17" height="7.5"/><rect class="cls-1" x="18.2" y="57.09" width="1.17" height="7.5"/><rect class="cls-1" x="22.04" y="57.09" width="1.17" height="7.5"/><rect class="cls-1" x="25.88" y="57.09" width="1.17" height="7.5"/><rect class="cls-1" x="29.71" y="57.09" width="1.17" height="7.5"/><rect class="cls-1" x="33.55" y="57.09" width="1.17" height="7.5"/><rect class="cls-1" x="37.38" y="57.09" width="1.17" height="7.5"/><rect class="cls-1" x="41.22" y="57.09" width="1.17" height="7.5"/><rect class="cls-1" x="45.06" y="57.09" width="1.17" height="7.5"/><rect class="cls-1" x="48.89" y="57.09" width="1.17" height="7.5"/><rect class="cls-1" x="52.73" y="57.09" width="1.17" height="7.5"/><rect class="cls-1" x="56.57" y="57.09" width="1.17" height="7.5"/><rect class="cls-1" x="60.4" y="57.09" width="1.17" height="7.5"/><rect class="cls-1" x="64.24" y="57.09" width="1.17" height="7.5"/><rect class="cls-1" x="68.07" y="57.09" width="1.17" height="7.5"/><rect class="cls-1" x="71.91" y="57.09" width="1.17" height="7.5"/><rect class="cls-1" x="75.75" y="57.09" width="1.17" height="7.5"/><rect class="cls-1" x="79.58" y="57.09" width="1.17" height="7.5"/><rect class="cls-1" x="6.69" y="74.26" width="1.17" height="7.5"/><rect class="cls-1" x="10.53" y="74.26" width="1.17" height="7.5"/><rect class="cls-1" x="14.37" y="74.26" width="1.17" height="7.5"/><rect class="cls-1" x="18.2" y="74.26" width="1.17" height="7.5"/><rect class="cls-1" x="22.04" y="74.26" width="1.17" height="7.5"/><rect class="cls-1" x="25.88" y="74.26" width="1.17" height="7.5"/><rect class="cls-1" x="29.71" y="74.26" width="1.17" height="7.5"/><rect class="cls-1" x="33.55" y="74.26" width="1.17" height="7.5"/><rect class="cls-1" x="37.38" y="74.26" width="1.17" height="7.5"/><rect class="cls-1" x="41.22" y="74.26" width="1.17" height="7.5"/><rect class="cls-1" x="6.69" y="91.44" width="1.17" height="7.5"/><rect class="cls-1" x="10.53" y="91.44" width="1.17" height="7.5"/><rect class="cls-1" x="14.37" y="91.44" width="1.17" height="7.5"/><rect class="cls-1" x="18.2" y="91.44" width="1.17" height="7.5"/><rect class="cls-1" x="22.04" y="91.44" width="1.17" height="7.5"/><rect class="cls-1" x="25.88" y="91.44" width="1.17" height="7.5"/><rect class="cls-1" x="29.71" y="91.44" width="1.17" height="7.5"/><rect class="cls-1" x="33.55" y="91.44" width="1.17" height="7.5"/><rect class="cls-1" x="37.38" y="91.44" width="1.17" height="7.5"/><rect class="cls-1" x="41.22" y="91.44" width="1.17" height="7.5"/><rect class="cls-1" x="45.06" y="91.44" width="1.17" height="7.5"/><rect class="cls-1" x="48.89" y="91.44" width="1.17" height="7.5"/><rect class="cls-1" x="52.73" y="91.44" width="1.17" height="7.5"/><rect class="cls-1" x="56.57" y="91.44" width="1.17" height="7.5"/><rect class="cls-1" x="60.4" y="91.44" width="1.17" height="7.5"/><rect class="cls-1" x="64.24" y="91.44" width="1.17" height="7.5"/><rect class="cls-1" x="68.07" y="91.44" width="1.17" height="7.5"/><rect class="cls-1" x="71.91" y="91.44" width="1.17" height="7.5"/><rect class="cls-1" x="75.75" y="91.44" width="1.17" height="7.5"/><rect class="cls-1" x="79.58" y="91.44" width="1.17" height="7.5"/><rect class="cls-1" x="6.69" y="108.62" width="1.17" height="7.5"/><rect class="cls-1" x="10.53" y="108.62" width="1.17" height="7.5"/><rect class="cls-1" x="14.37" y="108.62" width="1.17" height="7.5"/><rect class="cls-1" x="18.2" y="108.62" width="1.17" height="7.5"/><rect class="cls-1" x="22.04" y="108.62" width="1.17" height="7.5"/><rect class="cls-1" x="25.88" y="108.62" width="1.17" height="7.5"/><rect class="cls-3" x="98.81" y="60.31" width="15.5" height="5.87"/><polygon class="cls-3" points="112.09 70.85 125.26 63.25 112.09 55.64 112.09 70.85"/></svg>