<svg id="レイヤー_1" data-name="レイヤー 1" xmlns="http://www.w3.org/2000/svg" xmlns:xlink="http://www.w3.org/1999/xlink" viewBox="0 0 224.07 121.99"><defs><style>.cls-1{fill:none;}.cls-2{fill:#f0efef;}.cls-3{fill:#4db4bc;}.cls-4{fill:#fff;}.cls-5{fill:#4fbec6;}.cls-6{fill:#898989;}.cls-7{clip-path:url(#clip-path);}.cls-10,.cls-11,.cls-12,.cls-13,.cls-14,.cls-15,.cls-16,.cls-18,.cls-19,.cls-20,.cls-21,.cls-22,.cls-23,.cls-8,.cls-9{isolation:isolate;}.cls-10,.cls-11,.cls-12,.cls-13,.cls-14,.cls-15,.cls-16,.cls-18,.cls-19,.cls-20,.cls-21,.cls-22,.cls-23,.cls-9{font-size:11.74px;fill:#231815;font-family:YuGo-Medium-83pv-RKSJ-H, YuGothic;}.cls-9{letter-spacing:0.1em;}.cls-10{letter-spacing:0.04em;}.cls-11{letter-spacing:-0.04em;}.cls-12{letter-spacing:0.07em;}.cls-14{letter-spacing:-0.05em;}.cls-15{letter-spacing:-0.06em;}.cls-16{letter-spacing:-0.01em;}.cls-17{letter-spacing:-0.5em;}.cls-18{letter-spacing:0.16em;}.cls-19{letter-spacing:0.07em;}.cls-20{letter-spacing:-0.05em;}.cls-21{letter-spacing:-0.08em;}.cls-22{letter-spacing:-0.05em;}.cls-23{letter-spacing:0.02em;}</style><clipPath id="clip-path"><circle class="cls-1" cx="37.34" cy="44.31" r="34.42"/></clipPath></defs><title>アートボード 3</title><rect class="cls-2" x="136.62" width="87.45" height="121.98"/><rect class="cls-3" x="142.48" y="5.93" width="75.74" height="25.28"/><rect class="cls-4" x="142.48" y="35.21" width="22.82" height="25.28"/><rect class="cls-4" x="195.39" y="35.21" width="22.82" height="25.28"/><rect class="cls-4" x="168.93" y="35.21" width="22.82" height="25.28"/><rect class="cls-4" x="142.48" y="64.5" width="75.74" height="51.56"/><rect class="cls-5" x="147.99" y="87.78" width="30.71" height="22.33"/><rect class="cls-5" x="181.59" y="87.78" width="31.1" height="22.33"/><rect class="cls-6" x="56.11" y="72.4" width="5.87" height="11.94" transform="translate(-32.87 44.03) rotate(-32.52)"/><g class="cls-7"><g class="cls-8"><text class="cls-9" transform="translate(2.91 23.19)">全</text><text class="cls-10" transform="translate(15.85 23.19)">体</text><text class="cls-11" transform="translate(27.57 23.19)">を</text><text class="cls-12" transform="translate(39.82 23.19)">見</text><text class="cls-12" transform="translate(52.32 23.19)">渡</text><text class="cls-13" transform="translate(64.9 23.19)">す</text><text class="cls-14" transform="translate(2.19 43.73)">こ</text><text class="cls-15" transform="translate(14.1 43.73)">と</text><text class="cls-16" transform="translate(26.76 43.73)">で<tspan class="cls-17" x="11.65" y="0">、</tspan></text><text class="cls-18" transform="translate(50.56 43.73)">情</text><text class="cls-13" transform="translate(64.18 43.73)">報</text><text class="cls-19" transform="translate(2.87 64.28)">の</text><text class="cls-20" transform="translate(14.64 64.28)">ま</text><text class="cls-15" transform="translate(26.76 64.28)">と</text><text class="cls-21" transform="translate(38.91 64.28)">ま</text><text class="cls-22" transform="translate(50.37 64.28)">り</text><text class="cls-23" transform="translate(63.93 64.28)">や</text></g></g><path class="cls-5" d="M37.4,81.65A37.35,37.35,0,1,1,68.83,24.22h0A37.34,37.34,0,0,1,37.4,81.65Zm-.12-68.78A31.15,31.15,0,0,0,20.41,17.8a31.52,31.52,0,1,0,16.87-4.93Z"/><path class="cls-5" d="M78.46,117a8.21,8.21,0,0,1-6.94-3.8L56.68,89.92a8.22,8.22,0,0,1,13.85-8.84l14.85,23.28A8.21,8.21,0,0,1,78.46,117Z"/><rect class="cls-5" x="98.81" y="60.31" width="15.5" height="5.87"/><polygon class="cls-5" points="112.09 70.85 125.26 63.25 112.09 55.64 112.09 70.85"/></svg>