<svg width="48" height="48" viewBox="0 0 48 48" fill="none" xmlns="http://www.w3.org/2000/svg">
<path d="M11.5 6C8.48023 6 6 8.48023 6 11.5V36.5C6 39.5198 8.48023 42 11.5 42H36.5C39.5198 42 42 39.5198 42 36.5V11.5C42 8.48023 39.5198 6 36.5 6H11.5ZM11.5 9H36.5C37.8982 9 39 10.1018 39 11.5V36.5C39 37.8982 37.8982 39 36.5 39H11.5C10.1018 39 9 37.8982 9 36.5V11.5C9 10.1018 10.1018 9 11.5 9ZM25.7539 14.9785C25.4079 14.9744 25.0712 15.0899 24.8007 15.3056C24.5302 15.5213 24.3425 15.8239 24.2695 16.1621L20.8066 31.1621C20.7623 31.3541 20.7561 31.5529 20.7886 31.7473C20.8211 31.9416 20.8915 32.1277 20.9959 32.2948C21.1003 32.4619 21.2365 32.6069 21.3969 32.7213C21.5573 32.8358 21.7387 32.9175 21.9307 32.9619C22.1226 33.0063 22.3215 33.0124 22.5158 32.9799C22.7102 32.9475 22.8962 32.877 23.0634 32.7727C23.4009 32.5619 23.6409 32.2256 23.7305 31.8379L27.1934 16.8379C27.2475 16.6183 27.2514 16.3894 27.2046 16.1681C27.1578 15.9469 27.0615 15.7391 26.9231 15.5602C26.7847 15.3814 26.6076 15.2362 26.4051 15.1355C26.2027 15.0347 25.98 14.9811 25.7539 14.9785ZM17.5312 17.9844C17.3129 17.9819 17.0967 18.0271 16.8977 18.1168C16.6987 18.2066 16.5216 18.3387 16.3789 18.5039L12.3789 23.0039C12.1351 23.2784 12.0005 23.6328 12.0005 24C12.0005 24.3672 12.1351 24.7216 12.3789 24.9961L16.3789 29.4961C16.5081 29.649 16.6665 29.7745 16.8449 29.8652C17.0234 29.9559 17.2181 30.01 17.4178 30.0242C17.6174 30.0385 17.8179 30.0127 18.0074 29.9483C18.1969 29.884 18.3716 29.7823 18.5212 29.6494C18.6708 29.5164 18.7923 29.3549 18.8786 29.1743C18.9648 28.9937 19.014 28.7976 19.0233 28.5977C19.0326 28.3978 19.0018 28.198 18.9328 28.0101C18.8637 27.8223 18.7577 27.6502 18.6211 27.5039L15.5078 24L18.6211 20.4961C18.8163 20.2824 18.9455 20.0168 18.9931 19.7314C19.0407 19.4459 19.0048 19.1528 18.8896 18.8873C18.7744 18.6218 18.5849 18.3953 18.3439 18.2351C18.1028 18.0749 17.8206 17.9878 17.5312 17.9844ZM30.4238 17.9844C30.1383 17.9961 29.862 18.0892 29.6276 18.2527C29.3931 18.4161 29.2102 18.6432 29.1005 18.907C28.9907 19.1709 28.9586 19.4607 29.0079 19.7422C29.0572 20.0237 29.1859 20.2853 29.3789 20.4961L32.4922 24L29.3789 27.5039C29.2423 27.6502 29.1363 27.8223 29.0672 28.0101C28.9982 28.198 28.9674 28.3978 28.9767 28.5977C28.986 28.7976 29.0352 28.9937 29.1214 29.1743C29.2077 29.3549 29.3292 29.5164 29.4788 29.6494C29.6284 29.7823 29.8031 29.884 29.9926 29.9483C30.1821 30.0127 30.3826 30.0385 30.5822 30.0242C30.7819 30.01 30.9766 29.9559 31.1551 29.8652C31.3335 29.7745 31.4919 29.649 31.6211 29.4961L35.6211 24.9961C35.8649 24.7216 35.9995 24.3672 35.9995 24C35.9995 23.6328 35.8649 23.2784 35.6211 23.0039L31.6211 18.5039C31.4736 18.3327 31.2892 18.1971 31.0819 18.1071C30.8746 18.0172 30.6496 17.9752 30.4238 17.9844Z" fill="black"/>
</svg>
