<svg width="24" height="25" viewBox="0 0 24 25" fill="none" xmlns="http://www.w3.org/2000/svg">
<path d="M22.3594 5.81852C22.2119 5.66602 21.9849 5.62252 21.7914 5.71152L21.7094 5.74902C21.6399 5.78102 21.5704 5.81302 21.5004 5.84452C21.7039 5.52002 21.8654 5.17302 21.9769 4.81402C22.0389 4.61602 21.9714 4.39952 21.8074 4.27152C21.6434 4.14352 21.4174 4.13002 21.2399 4.23852C20.6694 4.58502 20.1214 4.83452 19.5549 5.00852C18.6999 4.17902 17.5354 3.66602 16.2499 3.66602C13.6264 3.66602 11.4999 5.79252 11.4999 8.41602C11.4999 8.41852 11.4999 8.51752 11.4999 8.66602L11.0004 8.62602C6.13892 8.05102 4.75491 4.78102 4.69741 4.64002C4.60441 4.40502 4.39941 4.23352 4.15191 4.18202C3.90491 4.12952 3.64841 4.20702 3.46941 4.38552C3.37041 4.48502 2.49991 5.40602 2.49991 7.16602C2.49991 8.42002 3.05891 9.43702 3.78241 10.228C3.44541 10.0225 3.24891 9.85602 3.24391 9.85152C3.01341 9.65052 2.68341 9.60852 2.40941 9.74752C2.13641 9.88702 1.97541 10.1785 2.00291 10.484C2.01241 10.5895 2.22541 12.5905 4.53691 14.1015L4.11541 14.178C3.85991 14.2245 3.64641 14.4 3.55141 14.642C3.45691 14.8845 3.49391 15.158 3.64991 15.366C3.70241 15.4365 4.67891 16.706 6.79941 17.436C5.66691 17.8135 4.11091 18.166 2.24991 18.166C1.95591 18.166 1.68841 18.338 1.56691 18.606C1.44491 18.874 1.49141 19.1885 1.68541 19.4095C1.76591 19.502 3.71741 21.666 8.74991 21.666C17.1064 21.666 20.9999 13.9085 20.9999 8.66602V8.41602C20.9999 8.34202 20.9919 8.26952 20.9889 8.19652C22.0349 7.18552 22.4284 6.42702 22.4474 6.38952C22.5419 6.19952 22.5069 5.97052 22.3594 5.81852Z" fill="black"/>
</svg>
