<svg width="48" height="48" viewBox="0 0 48 48" fill="none" xmlns="http://www.w3.org/2000/svg">
<path d="M8.5 7C6.019 7 4 9.019 4 11.5V30.5C4 32.981 6.019 35 8.5 35H14.3535C14.0915 34.453 13.9618 33.8495 14.0098 33.2285C14.0438 32.7945 14.1628 32.382 14.3438 32H8.5C7.673 32 7 31.327 7 30.5V11.5C7 10.673 7.673 10 8.5 10H39.5C40.327 10 41 10.673 41 11.5V30.5C41 31.327 40.327 32 39.5 32H39V35H39.5C41.981 35 44 32.981 44 30.5V11.5C44 9.019 41.981 7 39.5 7H8.5ZM23.5 12C17.1664 12 12 17.1664 12 23.5C11.9972 23.6988 12.0339 23.8961 12.108 24.0806C12.1822 24.265 12.2922 24.4329 12.4318 24.5745C12.5713 24.716 12.7376 24.8284 12.921 24.9051C13.1044 24.9819 13.3012 25.0214 13.5 25.0214C13.6988 25.0214 13.8956 24.9819 14.079 24.9051C14.2624 24.8284 14.4287 24.716 14.5682 24.5745C14.7078 24.4329 14.8178 24.265 14.892 24.0806C14.9661 23.8961 15.0028 23.6988 15 23.5C15 18.7876 18.7876 15 23.5 15C28.2124 15 32 18.7876 32 23.5C31.9972 23.6988 32.0339 23.8961 32.108 24.0806C32.1822 24.265 32.2922 24.4329 32.4318 24.5745C32.5713 24.716 32.7376 24.8284 32.921 24.9051C33.1044 24.9819 33.3012 25.0214 33.5 25.0214C33.6988 25.0214 33.8956 24.9819 34.079 24.9051C34.2624 24.8284 34.4287 24.716 34.5682 24.5745C34.7078 24.4329 34.8178 24.265 34.892 24.0806C34.9661 23.8961 35.0028 23.6988 35 23.5C35 17.1664 29.8336 12 23.5 12ZM23.5 17C19.9281 17 17 19.9281 17 23.5C16.9972 23.6988 17.0339 23.8961 17.108 24.0806C17.1822 24.265 17.2922 24.4329 17.4318 24.5745C17.5713 24.716 17.7376 24.8284 17.921 24.9051C18.1044 24.9819 18.3012 25.0214 18.5 25.0214C18.6988 25.0214 18.8956 24.9819 19.079 24.9051C19.2624 24.8284 19.4287 24.716 19.5682 24.5745C19.7078 24.4329 19.8178 24.265 19.892 24.0806C19.9661 23.8961 20.0028 23.6988 20 23.5C20 21.5499 21.5499 20 23.5 20C25.4501 20 27 21.5499 27 23.5C26.9972 23.6988 27.0339 23.8961 27.108 24.0806C27.1822 24.265 27.2922 24.4329 27.4318 24.5745C27.5713 24.716 27.7376 24.8284 27.921 24.9051C28.1044 24.9819 28.3012 25.0214 28.5 25.0214C28.6988 25.0214 28.8956 24.9819 29.079 24.9051C29.2624 24.8284 29.4287 24.716 29.5682 24.5745C29.7078 24.4329 29.8178 24.265 29.892 24.0806C29.9661 23.8961 30.0028 23.6988 30 23.5C30 19.9281 27.0719 17 23.5 17ZM23.4766 21.9785C23.0791 21.9847 22.7003 22.1485 22.4235 22.4337C22.1466 22.719 21.9943 23.1025 22 23.5V31V31.5V35.418L18.6406 32.5254C18.1026 31.8934 17.1554 31.8184 16.5254 32.3594C15.8954 32.8974 15.8223 33.8456 16.3613 34.4746L22.8613 42.0742C22.8721 42.0869 22.8854 42.0952 22.8965 42.1074C23.7333 43.25 25.0744 44 26.5996 44H31C34.314 44 37 41.314 37 38V31.5V31V30.5C37.0029 30.2992 36.9654 30.0999 36.8899 29.9139C36.8143 29.7279 36.7022 29.5589 36.5601 29.417C36.418 29.2752 36.2489 29.1632 36.0628 29.0879C35.8767 29.0126 35.6773 28.9754 35.4766 28.9785C35.0791 28.9847 34.7003 29.1485 34.4235 29.4337C34.1466 29.719 33.9943 30.1025 34 30.5V31H33V30C33.0029 29.7992 32.9654 29.5999 32.8899 29.4139C32.8143 29.2279 32.7022 29.0589 32.5601 28.917C32.418 28.7752 32.2489 28.6632 32.0628 28.5879C31.8767 28.5126 31.6773 28.4754 31.4766 28.4785C31.0791 28.4847 30.7003 28.6485 30.4235 28.9337C30.1466 29.219 29.9943 29.6025 30 30V31H29V29.5C29.0029 29.2992 28.9654 29.0999 28.8899 28.9139C28.8143 28.7279 28.7022 28.5589 28.5601 28.417C28.418 28.2752 28.2489 28.1632 28.0628 28.0879C27.8767 28.0126 27.6773 27.9754 27.4766 27.9785C27.0791 27.9847 26.7003 28.1485 26.4235 28.4337C26.1466 28.719 25.9943 29.1025 26 29.5V31H25V23.5C25.0029 23.2992 24.9654 23.0999 24.8899 22.9139C24.8143 22.7279 24.7022 22.5589 24.5601 22.417C24.418 22.2752 24.2489 22.1632 24.0628 22.0879C23.8767 22.0126 23.6773 21.9754 23.4766 21.9785Z" fill="black"/>
</svg>
