<svg id="レイヤー_1" data-name="レイヤー 1" xmlns="http://www.w3.org/2000/svg" viewBox="0 0 24.1 15.87"><title>wantedly</title><path d="M24,4.7,17.11,19.54a.7.7,0,0,1-.63.39H15.39a.68.68,0,0,1-.62-.38l-2.37-5a.45.45,0,0,0-.81,0l-2.3,5a.67.67,0,0,1-.62.39H7.57A.66.66,0,0,1,7,19.55L-.06,4.7a.44.44,0,0,1,.4-.63H1.78a.45.45,0,0,1,.4.25L8.11,16.86l2.58-5.57a.5.5,0,0,0,0-.38L7.75,4.7a.44.44,0,0,1,.41-.63H9.59a.46.46,0,0,1,.41.25L12,8.5,13.9,4.33a.46.46,0,0,1,.41-.26h1.42a.44.44,0,0,1,.4.63l-2.85,6.19a.42.42,0,0,0,0,.38L15.52,16a.45.45,0,0,0,.81,0L21.72,4.33a.44.44,0,0,1,.4-.26h1.43A.44.44,0,0,1,24,4.7Z" transform="translate(0.1 -4.07)"/></svg>