<svg width="48" height="48" viewBox="0 0 48 48" fill="none" xmlns="http://www.w3.org/2000/svg">
<path d="M10.5 6C10.3105 6 10.1241 6.01048 9.93945 6.0293C9.57148 6.0668 9.21419 6.14133 8.87109 6.24805C7.14722 6.78425 5.78425 8.14722 5.24805 9.87109C5.14133 10.2142 5.0668 10.5715 5.0293 10.9395C5.02923 10.9401 5.02936 10.9408 5.0293 10.9414C5.01061 11.1254 5 11.3112 5 11.5V13.5V36.5C5 39.5198 7.48023 42 10.5 42H37.5C40.5198 42 43 39.5198 43 36.5V13.5V11.5C43 11.3106 42.9897 11.1241 42.9707 10.9395C42.9332 10.5715 42.8587 10.2142 42.752 9.87109C42.2158 8.14722 40.8528 6.78425 39.1289 6.24805C38.7858 6.14133 38.4285 6.0668 38.0605 6.0293C38.0599 6.02923 38.0592 6.02936 38.0586 6.0293C37.8745 6.01039 37.6887 6 37.5 6H10.5ZM10.5 9C11.328 9 12 9.672 12 10.5C12 11.328 11.328 12 10.5 12C9.672 12 9 11.328 9 10.5C9 9.672 9.672 9 10.5 9ZM15.5 9C16.328 9 17 9.672 17 10.5C17 11.328 16.328 12 15.5 12C14.672 12 14 11.328 14 10.5C14 9.672 14.672 9 15.5 9ZM21.5 9H37.5C38.328 9 39 9.672 39 10.5C39 11.328 38.328 12 37.5 12H21.5C20.672 12 20 11.328 20 10.5C20 9.672 20.672 9 21.5 9ZM8 15H40V36.5C40 37.8982 38.8982 39 37.5 39H10.5C9.10177 39 8 37.8982 8 36.5V15ZM12.5 19C12.1022 19 11.7207 19.1581 11.4394 19.4394C11.1581 19.7207 11 20.1022 11 20.5V28.5C11 28.8978 11.1581 29.2793 11.4394 29.5606C11.7207 29.8419 12.1022 30 12.5 30H22.5C22.8978 30 23.2793 29.8419 23.5606 29.5606C23.8419 29.2793 24 28.8978 24 28.5V20.5C24 20.1022 23.8419 19.7207 23.5606 19.4394C23.2793 19.1581 22.8978 19 22.5 19H12.5ZM28.5 19C28.1022 19 27.7207 19.1581 27.4394 19.4394C27.1581 19.7207 27 20.1022 27 20.5V34.5C27 34.8978 27.1581 35.2793 27.4394 35.5606C27.7207 35.8419 28.1022 36 28.5 36H35.5C35.8978 36 36.2793 35.8419 36.5606 35.5606C36.8419 35.2793 37 34.8978 37 34.5V20.5C37 20.1022 36.8419 19.7207 36.5606 19.4394C36.2793 19.1581 35.8978 19 35.5 19H28.5ZM14 22H21V27H14V22ZM30 22H34V33H30V22ZM12.5 33C12.3012 32.9972 12.1039 33.0339 11.9194 33.108C11.735 33.1822 11.5671 33.2922 11.4255 33.4318C11.284 33.5713 11.1716 33.7376 11.0949 33.921C11.0181 34.1044 10.9786 34.3012 10.9786 34.5C10.9786 34.6988 11.0181 34.8956 11.0949 35.079C11.1716 35.2624 11.284 35.4287 11.4255 35.5682C11.5671 35.7078 11.735 35.8178 11.9194 35.892C12.1039 35.9661 12.3012 36.0028 12.5 36H22.5C22.6988 36.0028 22.8961 35.9661 23.0806 35.892C23.265 35.8178 23.4329 35.7078 23.5745 35.5682C23.716 35.4287 23.8284 35.2624 23.9051 35.079C23.9819 34.8956 24.0214 34.6988 24.0214 34.5C24.0214 34.3012 23.9819 34.1044 23.9051 33.921C23.8284 33.7376 23.716 33.5713 23.5745 33.4318C23.4329 33.2922 23.265 33.1822 23.0806 33.108C22.8961 33.0339 22.6988 32.9972 22.5 33H12.5Z" fill="black"/>
</svg>
