<svg id="レイヤー_1" data-name="レイヤー 1" xmlns="http://www.w3.org/2000/svg" viewBox="0 0 918 506"><defs><style>.cls-1{fill:#f0efef;}.cls-2{fill:#30304a;}.cls-3{fill:#fff;}.cls-4{fill:#ecbe55;}.cls-5{fill:#9fa0a0;}</style></defs><title>アートボード 20</title><path class="cls-1" d="M918,0H0V506H918Z"/><path d="M539.53,354.52v1h-1.28C538.69,355.17,539.12,354.84,539.53,354.52Z"/><path d="M565.66,328.09v1.28h-.95Z"/><path class="cls-2" d="M459.26,112.82a136.31,136.31,0,1,0,0,272.62H515V358.57h25.57c.44-.32.88-.65,1.31-1V331.7h25.9c.33-.42.64-.87,1-1.31V304.84h26.89V249.13A136.36,136.36,0,0,0,459.26,112.82ZM586.07,295.28H559.19v26.87H532.31V349h-26.9v26.87H459.24A126.81,126.81,0,1,1,586.07,249.13Z"/><path class="cls-3" d="M576.12,199.79a126.89,126.89,0,1,0-116.86,176.1h46.16V349h26.9V322.15h26.89V295.28h26.88V249.13A126.42,126.42,0,0,0,576.12,199.79ZM459.26,274.94a25.82,25.82,0,1,1,25.82-25.81A25.82,25.82,0,0,1,459.26,274.94Z"/><path class="cls-4" d="M595.65,342.46v43h-43Z"/><path class="cls-4" d="M485.08,249.13a25.84,25.84,0,1,1-25.82-25.83A25.81,25.81,0,0,1,485.08,249.13Z"/><path class="cls-2" d="M796.48,28.4H768.61V56.25h27.87Z"/><path class="cls-4" d="M838.77,28.4H810.9V56.25h27.87Z"/><path class="cls-3" d="M880.32,28.83h-27v27h27Z"/><path class="cls-5" d="M879.89,29.25V55.4H853.72V29.25Zm.85-.85H852.87V56.25h27.87Z"/></svg>