<svg id="レイヤー_1" data-name="レイヤー 1" xmlns="http://www.w3.org/2000/svg" viewBox="0 0 119.06 107.72"><defs><style>.cls-1{fill:#f5df3e;}.cls-2{fill:#b5d153;}.cls-3{fill:#f18b15;}.cls-4{fill:#cf5a4e;}.cls-5{fill:#55afcd;}.cls-6{fill:#9758a0;}</style></defs><title>アートボード 2</title><path class="cls-1" d="M51.33,67.7,33.41,98A51.12,51.12,0,0,1,8.05,53.44l35.53.29a4.86,4.86,0,0,0,0,.54A15.52,15.52,0,0,0,51.33,67.7Z"/><path class="cls-2" d="M84.91,98.42A51.66,51.66,0,0,1,33.43,98L51.35,67.7a15.71,15.71,0,0,0,16-.19Z"/><path class="cls-3" d="M51.94,40.52a15.52,15.52,0,0,0-8.36,13.21L8.05,53.44A51.15,51.15,0,0,1,34.14,9.29Z"/><path class="cls-4" d="M85.62,9.71,67.14,41a15.5,15.5,0,0,0-8-2.19,15.85,15.85,0,0,0-7.23,1.76L34.14,9.29A51.71,51.71,0,0,1,85.62,9.71Z"/><path class="cls-5" d="M111,54.27A51.06,51.06,0,0,1,84.91,98.42L67.31,67.51a15.49,15.49,0,0,0,7.48-13.24V54Z"/><path class="cls-6" d="M111,54.27,74.79,54a15.49,15.49,0,0,0-7.6-13L85.66,9.74A51.16,51.16,0,0,1,111,54.27Z"/><path class="cls-5" d="M111,79.85V98.4H95.92A57.12,57.12,0,0,0,111,79.85Z"/></svg>