<svg id="レイヤー_1" data-name="レイヤー 1" xmlns="http://www.w3.org/2000/svg" viewBox="0 0 954.44 201.91"><defs><style>.cls-1{fill:#30304a;}.cls-2{fill:#fff;}.cls-3{fill:#ecbe55;}.cls-4{fill:#f6f082;}.cls-5{fill:#72c7d2;}.cls-6{fill:#f5df3e;}.cls-7{fill:#55afcd;}.cls-8{fill:#0b909a;}.cls-9{fill:none;stroke:#000;stroke-miterlimit:10;stroke-width:2px;}</style></defs><title>アートボード 28</title><path d="M843,128.44v.42h-.56Z"/><path d="M854.48,116.79v.56h-.42Z"/><path class="cls-1" d="M807.63,21.86a60.12,60.12,0,0,0,0,120.24h24.54V130.25h11.27c.2-.13.38-.28.59-.44v-11.4h11.39c.15-.19.29-.39.44-.59V106.54h11.83V82A60.09,60.09,0,0,0,807.63,21.86Zm55.83,80.45H851.63v11.84H839.8V126H828v11.85H807.63A55.95,55.95,0,1,1,863.48,82v20.35Z"/><path class="cls-2" d="M859.08,60.2a55.89,55.89,0,1,0-51.46,77.65h20.32V126h11.84V114.15h11.83V102.31h11.84V82A55.46,55.46,0,0,0,859.08,60.2ZM807.63,93.35A11.39,11.39,0,1,1,819,82,11.38,11.38,0,0,1,807.63,93.35Z"/><path class="cls-3" d="M867.68,123.13v19H848.74Z"/><path class="cls-3" d="M819,82a11.38,11.38,0,1,1-11.37-11.39A11.38,11.38,0,0,1,819,82Z"/><path class="cls-4" d="M118.65,21.86A61.52,61.52,0,0,0,58.24,82.3c-.61,34.54,27.81,62.64,62.33,62.64h15.89l3.39-.34s.05,0,.05,0l.32-3.13.91-9.15a0,0,0,0,1,.05-.05L153.47,131a.05.05,0,0,0,.05-.05l1.24-12.33h.08l12.22-1.23s.05,0,.05,0l1.23-12.28s0,0,0,0l9.22-.93,3.49-.35a.05.05,0,0,0,.05,0V84.26C181.2,49.71,153.17,21.27,118.65,21.86Zm.42,71.26h0Z"/><path class="cls-5" d="M181.2,118.71v18.61a7.58,7.58,0,0,1-7.59,7.6H155s-.08-.07,0-.1L168,131.73l13.06-13.07S181.2,118.66,181.2,118.71Z"/><path class="cls-5" d="M119.73,93.15A9.76,9.76,0,1,0,110,83.39,9.76,9.76,0,0,0,119.73,93.15Z"/><path class="cls-6" d="M293.2,17.27a63.84,63.84,0,0,0,0,127.67h17.4l3.57-.36.34-3.29,1-9.56,12.84-1.29,1.3-12.86h.1l12.74-1.28,1.29-12.83,9.6-1,3.68-.37v-21A63.88,63.88,0,0,0,293.2,17.27ZM303.27,91.2h-9.43c-.21,0-.42,0-.63,0s-.42,0-.62,0h0a10.12,10.12,0,1,1,10.78-10.1c0,.32,0,.62-.05.94Z"/><path class="cls-7" d="M357,117.6v27.32H329.66l13.66-13.68Z"/><path class="cls-8" d="M674.05,131v.43h-.57Z"/><path class="cls-8" d="M685.81,119v.57h-.43C685.53,119.41,685.68,119.23,685.81,119Z"/><path class="cls-8" d="M637.86,21.86a61.53,61.53,0,0,0,0,123.06H663V132.79h11.54l.58-.44V120.67h11.67c.15-.2.3-.38.44-.58V108.54h12.12V83.39A61.49,61.49,0,0,0,637.86,21.86ZM695,104.22H682.91v12.14H670.79v12.13H658.67v12.13H637.86a56.9,56.9,0,0,1-40.41-16.77,57.27,57.27,0,0,1,18.16-93.16A57.08,57.08,0,0,1,678.28,43,57,57,0,0,1,695,83.4v20.82Z"/><path class="cls-8" d="M690.53,61.12A57.37,57.37,0,0,0,660.1,30.68,57.21,57.21,0,0,0,615.61,136.1a56.61,56.61,0,0,0,22.25,4.5h20.81V128.47h12.12V116.34h12.12V104.21H695V83.37A56.64,56.64,0,0,0,690.53,61.12ZM637.86,95.05A11.66,11.66,0,1,1,649.5,83.39,11.66,11.66,0,0,1,637.86,95.05Z"/><path class="cls-8" d="M699.34,122.29v22.63H676.72Z"/><path class="cls-2" d="M637.85,95.05a11.66,11.66,0,1,0-11.64-11.66A11.65,11.65,0,0,0,637.85,95.05Z"/><path d="M503.92,132.35v.44h-.59Z"/><path d="M516,120.09v.58h-.44A6.31,6.31,0,0,1,516,120.09Z"/><path d="M466.67,27.89a55.38,55.38,0,0,1,55.44,55.5v19.12H510v12.13H497.89v12.13H485.77V138.9h-19.1A55.52,55.52,0,0,1,445.08,32.26,54.85,54.85,0,0,1,466.67,27.89Zm0-6a61.53,61.53,0,0,0,0,123.06H491.8V132.79h11.53l.59-.44V120.67h11.66c.15-.2.31-.38.44-.58V108.54h12.12V83.39A61.48,61.48,0,0,0,466.67,21.86Z"/><path d="M528.16,122.29v22.63H505.53Z"/><path class="cls-8" d="M478.32,83.39V95.05H466.67a11.66,11.66,0,1,1,11.65-11.66Z"/><path class="cls-9" d="M930.49,164l22.56,20.65H1.38"/></svg>