<svg id="レイヤー_1" data-name="レイヤー 1" xmlns="http://www.w3.org/2000/svg" viewBox="0 0 119.06 107.72"><defs><style>.cls-1{fill:#f6f082;}.cls-2{fill:#72c7d2;}</style></defs><title>アートボード 3</title><path class="cls-1" d="M58.64,2.61A51.36,51.36,0,0,0,8.05,52.92c-.49,28.75,23.29,52.19,52.2,52.19H73.56l2.89-.29.26-2.61.75-7.62,10.29-1,1-10.26h.07l10.24-1,1-10.22h0l7.73-.77,2.93-.29V54.57C111,25.8,87.53,2.11,58.64,2.61Z"/><path class="cls-2" d="M111,83.23v15.5a6.34,6.34,0,0,1-6.36,6.32H89.08s-.06,0,0-.09L100,94.11l10.93-10.88a0,0,0,0,1,.07,0Z"/><path class="cls-2" d="M59.53,62a8.12,8.12,0,1,0-8.16-8.12A8.13,8.13,0,0,0,59.53,62Z"/></svg>