<svg id="レイヤー_1" data-name="レイヤー 1" xmlns="http://www.w3.org/2000/svg" viewBox="0 0 119.06 107.72"><defs><style>.cls-1{fill:#e5c782;}.cls-2{fill:#f18b15;}.cls-3{fill:#67b7e7;}.cls-4{fill:#f7e53e;}</style></defs><title>アートボード 4</title><path class="cls-1" d="M59.55,2.64C30.16,2.64,6.33,29.38,6.33,62.36A64.86,64.86,0,0,0,14.44,94c.28.49.56,1,.83,1.49.79,1.34,1.64,2.61,2.52,3.85l.06.07a17.57,17.57,0,0,0,24.83,1,17.26,17.26,0,0,0,3.17-3.9.09.09,0,0,1,0-.07,7.85,7.85,0,0,1,.51-1,.76.76,0,0,0,.09-.18c0-.06.06-.09.08-.14a15,15,0,0,1,25.84.32h.16a17.57,17.57,0,0,0,29.58,2.69.42.42,0,0,1,.09-.14c.48-.75,1-1.53,1.43-2.29a.75.75,0,0,0,.07-.12.37.37,0,0,0,.07-.14,64.59,64.59,0,0,0,9-33.14C112.74,29.38,88.91,2.64,59.55,2.64Zm0,76.84A10.34,10.34,0,1,1,69.93,69.13,10.34,10.34,0,0,1,59.55,79.48h0Z"/><path class="cls-2" d="M32,53.86a10.35,10.35,0,1,0-10.4-10.35A10.35,10.35,0,0,0,32,53.86Z"/><path class="cls-3" d="M59.53,36.64A10.35,10.35,0,1,0,49.14,26.3,10.35,10.35,0,0,0,59.53,36.64Z"/><path class="cls-4" d="M88,53.86A10.35,10.35,0,1,0,77.64,43.51,10.35,10.35,0,0,0,88,53.86Z"/></svg>