<svg id="レイヤー_1" data-name="レイヤー 1" xmlns="http://www.w3.org/2000/svg" viewBox="0 0 119.06 107.72"><defs><style>.cls-1{fill:#cf5a4e;}.cls-2{fill:#b5d153;}.cls-3{fill:#55afcd;}</style></defs><title>アートボード 1</title><path class="cls-1" d="M90.71,51.34l-17.33,10L59.53,37.44,45.68,61.3l-17.33-10L55.18,5.12A5,5,0,0,1,62,3.26a4.89,4.89,0,0,1,1.86,1.86Z"/><path class="cls-2" d="M117.53,97.59a5,5,0,0,1-1.84,6.82,5,5,0,0,1-2.51.67H65a2.41,2.41,0,0,0,0-.38V83.92H86.49L73.36,61.3l17.34-10Z"/><path class="cls-3" d="M53.93,105.12H5.86a5,5,0,0,1-5-5,5.07,5.07,0,0,1,.66-2.49L28.35,51.34l17.33,10L32.56,83.92H53.9v20.76A1.6,1.6,0,0,1,53.93,105.12Z"/></svg>