<svg width="268" height="66" viewBox="0 0 268 66" fill="none" xmlns="http://www.w3.org/2000/svg">
<circle cx="33" cy="33" r="30.5" fill="white" stroke="#87FEB0" stroke-width="5"/>
<path d="M32.168 33.672V31.784H26.008V29.736H31.016V27.848H26.008V25.464H23.976V27.848H19.112V29.736H23.976V31.784H17.912V33.672H23.096C21.688 35.448 19.512 37.144 17.384 38.056C17.832 38.456 18.456 39.224 18.776 39.704C20.648 38.728 22.52 37.176 23.976 35.416V40.408H26.008V35.32C27.464 37.144 29.32 38.744 31.208 39.72C31.528 39.224 32.136 38.456 32.584 38.072C30.456 37.144 28.28 35.448 26.888 33.672H32.168ZM39.992 29.016V32.392H37.224L38.744 31.8C38.536 31.016 37.944 29.88 37.384 29.016H39.992ZM44.712 29.016C44.392 29.944 43.816 31.144 43.352 31.928L44.696 32.392H42.008V29.016H44.712ZM48.152 34.216V32.392H45.048C45.56 31.672 46.168 30.6 46.728 29.56L44.888 29.016H47.544V27.192H42.008V25.448H39.992V27.192H34.6V29.016H37.32L35.672 29.64C36.184 30.504 36.696 31.624 36.872 32.392H33.848V34.216H38.872C37.48 35.864 35.416 37.384 33.4 38.216C33.848 38.6 34.44 39.352 34.744 39.816C36.664 38.856 38.536 37.288 39.992 35.496V40.376H42.008V35.464C43.448 37.288 45.32 38.888 47.24 39.848C47.528 39.384 48.136 38.632 48.568 38.248C46.568 37.416 44.52 35.88 43.144 34.216H48.152Z" fill="black"/>
<circle cx="134" cy="33" r="30.5" fill="white" stroke="#87FEB0" stroke-width="5"/>
<path d="M126.24 27.32H129.776V28.312H127.2V30.808H126.24V27.32ZM129.776 30.808H128.528V29.496H129.776V30.808ZM128.672 35.224H127.232V34.12H128.672V35.224ZM125.056 32.248H130.928V36.136C130.928 36.296 130.88 36.344 130.704 36.344C130.608 36.344 130.352 36.344 130.048 36.344V32.92H125.872V36.92H127.232V36.44H129.648C129.824 36.84 129.984 37.4 130.032 37.816C130.912 37.816 131.552 37.8 132.032 37.56C132.528 37.304 132.656 36.888 132.656 36.152V30.808H131.488V25.912H124.592V30.808H123.408V37.768H125.056V32.248ZM122.688 28.392C122.176 27.624 121.072 26.568 120.176 25.848L118.72 26.936C119.616 27.704 120.672 28.808 121.12 29.592L122.688 28.392ZM122.256 31.656H118.656V33.4H120.448V36.888C119.808 37.432 119.088 37.96 118.464 38.36L119.36 40.248C120.176 39.56 120.832 38.952 121.472 38.328C122.432 39.56 123.712 40.024 125.616 40.104C127.568 40.184 130.96 40.152 132.944 40.056C133.04 39.528 133.312 38.648 133.536 38.2C131.328 38.376 127.552 38.424 125.632 38.344C124 38.28 122.88 37.832 122.256 36.76V31.656ZM149.296 33.656V31.736H142.928V29.464H148.144V27.56H142.928V25.448H140.928V27.56H135.984V29.464H140.928V31.736H134.768V33.656H139.312C138.88 35.016 138.256 36.568 137.648 37.784L135.36 37.88L135.632 39.896C138.528 39.752 142.704 39.512 146.672 39.24C146.944 39.72 147.184 40.168 147.344 40.552L149.248 39.56C148.56 38.12 147.12 36.04 145.744 34.472L143.936 35.272C144.448 35.912 144.992 36.632 145.504 37.384C143.584 37.48 141.632 37.592 139.84 37.672C140.48 36.472 141.168 35.016 141.744 33.656H149.296Z" fill="black"/>
<circle cx="235" cy="33" r="30.5" fill="white" stroke="#87FEB0" stroke-width="5"/>
<path d="M225.368 34.776C224.744 34.952 224.088 35.128 223.464 35.304V32.568H225.128V30.824H223.464V28.04H225.304V26.28H219.704V28.04H221.624V30.824H219.848V32.568H221.624V35.784C220.76 36.008 219.976 36.216 219.32 36.36L219.816 38.152C221.464 37.672 223.608 37.048 225.624 36.456L225.368 34.776ZM227.704 32.472H231.88V33.464H227.704V32.472ZM227.704 30.04H231.88V31.032H227.704V30.04ZM227.704 27.608H231.88V28.6H227.704V27.608ZM232.072 38.68C231.8 38.68 231.768 38.616 231.768 38.152V35.016H233.736V26.056H225.928V35.016H227.096C226.888 36.888 226.376 38.2 223.48 38.92C223.864 39.288 224.344 40.024 224.536 40.488C227.944 39.48 228.68 37.624 228.968 35.016H229.944V38.152C229.944 39.768 230.264 40.312 231.736 40.312H232.936C234.12 40.312 234.536 39.72 234.696 37.528C234.216 37.416 233.48 37.112 233.112 36.824C233.08 38.424 233 38.68 232.728 38.68H232.072ZM246.28 34.584H249.448V32.824H246.28V30.168H244.36V32.824H241.112V34.584H244.36V38.232H240.488V39.992H250.072V38.232H246.28V34.584ZM242.328 27.656C242.552 27.08 242.76 26.504 242.936 25.912L240.936 25.432C240.744 26.168 240.504 26.904 240.232 27.656H235.912V29.48H239.384C238.424 31.32 237.08 33 235.4 34.088C235.704 34.552 236.136 35.416 236.344 35.928C236.856 35.576 237.304 35.224 237.752 34.808V40.376H239.688V32.632C240.424 31.656 241.032 30.584 241.56 29.48H250.12V27.656H242.328Z" fill="black"/>
<line x1="74" y1="32" x2="93" y2="32" stroke="black" stroke-width="2"/>
<line x1="175" y1="29" x2="194" y2="29" stroke="black" stroke-width="2"/>
<line x1="175" y1="35" x2="194" y2="35" stroke="black" stroke-width="2"/>
</svg>
