<svg width="268" height="66" viewBox="0 0 268 66" fill="none" xmlns="http://www.w3.org/2000/svg">
<circle cx="33" cy="33" r="30.5" fill="white" stroke="#87FEB0" stroke-width="5"/>
<path d="M25.24 27.32H28.776V28.312H26.2V30.808H25.24V27.32ZM28.776 30.808H27.528V29.496H28.776V30.808ZM27.672 35.224H26.232V34.12H27.672V35.224ZM24.056 32.248H29.928V36.136C29.928 36.296 29.88 36.344 29.704 36.344C29.608 36.344 29.352 36.344 29.048 36.344V32.92H24.872V36.92H26.232V36.44H28.648C28.824 36.84 28.984 37.4 29.032 37.816C29.912 37.816 30.552 37.8 31.032 37.56C31.528 37.304 31.656 36.888 31.656 36.152V30.808H30.488V25.912H23.592V30.808H22.408V37.768H24.056V32.248ZM21.688 28.392C21.176 27.624 20.072 26.568 19.176 25.848L17.72 26.936C18.616 27.704 19.672 28.808 20.12 29.592L21.688 28.392ZM21.256 31.656H17.656V33.4H19.448V36.888C18.808 37.432 18.088 37.96 17.464 38.36L18.36 40.248C19.176 39.56 19.832 38.952 20.472 38.328C21.432 39.56 22.712 40.024 24.616 40.104C26.568 40.184 29.96 40.152 31.944 40.056C32.04 39.528 32.312 38.648 32.536 38.2C30.328 38.376 26.552 38.424 24.632 38.344C23 38.28 21.88 37.832 21.256 36.76V31.656ZM48.296 33.656V31.736H41.928V29.464H47.144V27.56H41.928V25.448H39.928V27.56H34.984V29.464H39.928V31.736H33.768V33.656H38.312C37.88 35.016 37.256 36.568 36.648 37.784L34.36 37.88L34.632 39.896C37.528 39.752 41.704 39.512 45.672 39.24C45.944 39.72 46.184 40.168 46.344 40.552L48.248 39.56C47.56 38.12 46.12 36.04 44.744 34.472L42.936 35.272C43.448 35.912 43.992 36.632 44.504 37.384C42.584 37.48 40.632 37.592 38.84 37.672C39.48 36.472 40.168 35.016 40.744 33.656H48.296Z" fill="black"/>
<circle cx="235" cy="33" r="30.5" fill="white" stroke="#87FEB0" stroke-width="5"/>
<path d="M234.168 33.672V31.784H228.008V29.736H233.016V27.848H228.008V25.464H225.976V27.848H221.112V29.736H225.976V31.784H219.912V33.672H225.096C223.688 35.448 221.512 37.144 219.384 38.056C219.832 38.456 220.456 39.224 220.776 39.704C222.648 38.728 224.52 37.176 225.976 35.416V40.408H228.008V35.32C229.464 37.144 231.32 38.744 233.208 39.72C233.528 39.224 234.136 38.456 234.584 38.072C232.456 37.144 230.28 35.448 228.888 33.672H234.168ZM241.992 29.016V32.392H239.224L240.744 31.8C240.536 31.016 239.944 29.88 239.384 29.016H241.992ZM246.712 29.016C246.392 29.944 245.816 31.144 245.352 31.928L246.696 32.392H244.008V29.016H246.712ZM250.152 34.216V32.392H247.048C247.56 31.672 248.168 30.6 248.728 29.56L246.888 29.016H249.544V27.192H244.008V25.448H241.992V27.192H236.6V29.016H239.32L237.672 29.64C238.184 30.504 238.696 31.624 238.872 32.392H235.848V34.216H240.872C239.48 35.864 237.416 37.384 235.4 38.216C235.848 38.6 236.44 39.352 236.744 39.816C238.664 38.856 240.536 37.288 241.992 35.496V40.376H244.008V35.464C245.448 37.288 247.32 38.888 249.24 39.848C249.528 39.384 250.136 38.632 250.568 38.248C248.568 37.416 246.52 35.88 245.144 34.216H250.152Z" fill="black"/>
<path d="M194.707 33.7071C195.098 33.3166 195.098 32.6834 194.707 32.2929L188.343 25.9289C187.953 25.5384 187.319 25.5384 186.929 25.9289C186.538 26.3195 186.538 26.9526 186.929 27.3431L192.586 33L186.929 38.6569C186.538 39.0474 186.538 39.6805 186.929 40.0711C187.319 40.4616 187.953 40.4616 188.343 40.0711L194.707 33.7071ZM74 34L194 34V32L74 32V34Z" fill="black"/>
</svg>
