<svg id="レイヤー_1" data-name="レイヤー 1" xmlns="http://www.w3.org/2000/svg" viewBox="0 0 283.46 283.46"><defs><style>.cls-1{fill:#328fab;}</style></defs><title>アートボード 42</title><path class="cls-1" d="M117.07,226.06c0-16.25,0-32.5,0-48.74a9.86,9.86,0,0,0-2.71-7.13c-15.21-16.9-30.28-33.86-45.46-50.75-1.79-2-2.68-4.15-1.89-6.75,1.14-3.85,5.07-4.7,7.85-1.62,6.41,7,12.72,14.17,19.06,21.27,1.83,2,3.63,4.12,5.49,6.13,2.49,2.69,4.94,2.37,7.46-.35,3.5-3.76,4.38-7.59,3.2-12.84-5.95-27-11.38-54.16-17-81.26a16.25,16.25,0,0,1-.45-3.8,4.93,4.93,0,0,1,4.18-5c2.13-.23,4.19,1.42,4.78,4.08,1,4.44,1.86,8.92,2.77,13.36q5.2,25,10.47,50c.85,4,3.37,5.13,7.13,3.44a69.3,69.3,0,0,1,7.68-3c3.67-1.17,4.55-2.18,4.55-6.07q0-35.83,0-71.72c0-1.53,0-3.31.82-4.45s2.71-2.69,4-2.56c1.43.16,3.07,1.75,3.92,3.12.69,1.1.49,2.82.49,4.28,0,23.44,0,46.92,0,70.36,0,4.67.79,5.55,5.5,6.52,2,.39,3.92.94,5.85,1.49,4,1.13,5.92.1,7-3.83Q166,84.15,170.14,68c2.06-7.94,4.09-15.86,6.15-23.8,1-3.83,3-5.55,5.72-4.87s4.25,3.83,3.34,7.4q-5.49,21.3-11,42.54c-1.51,5.81-3,11.61-4.55,17.45a5.81,5.81,0,0,0,2.13,6.55,47.1,47.1,0,0,1,5.59,6c2.81,3.34,6,3.11,8-.78,5.43-10.44,10.79-20.92,16.19-31.36.16-.32.32-.65.52-1,1.63-3,3.56-4.09,5.85-3.21s3.76,4.12,2.88,6.94a20.57,20.57,0,0,1-1.37,3q-20.65,40-41.24,80.06a14.16,14.16,0,0,0-1.47,6.23q0,48.44.36,96.92c0,2-.3,3.21-2.72,3.4-4,.3-8,1.2-12,1.33-11,.42-22,.59-32.86-1.39-2-.36-2.49-1.1-2.49-3Z"/><path class="cls-1" d="M283,154.17A135.13,135.13,0,0,1,273.55,195c-2.82-2-5.47-3.7-8-5.61-10.27-7.69-21.78-9.63-34.21-7.49a36.71,36.71,0,0,0-14.36,6c-3,2-6,4.21-9,6.29-10.6,7.23-22,7.88-34,4.11-1.93-.61-2.74-1.59-2.68-3.69.16-5.74-1-11.74.3-17.19s5.26-10.15,7.42-15.47,4.94-7.39,10.92-7c7.82.55,14.88-2.66,21.32-7.07,4.38-3,8.6-6.45,13.38-8.59,12.29-5.54,24.46-4.7,35.94,2.66,1.24.78,2.42,1.65,3.59,2.53C269.88,148.62,275.67,152.61,283,154.17Z"/><path class="cls-1" d="M.1,145.64H2.88c26.84,0,53.72,0,80.57.06a5.85,5.85,0,0,1,4,1.63q11.78,12.84,23.22,26a6.73,6.73,0,0,1,1.47,3.86c.2,4.38.07,8.72.07,13.52h-3.08q-49,0-98,.07c-2.22,0-3.2-.62-3.89-2.73a148.69,148.69,0,0,1-7.2-37.19C0,149.24.1,147.62.1,145.64Z"/><path class="cls-1" d="M129.23,39.54c-7.29,0-14.29,0-21.28,0a2.06,2.06,0,0,1-1.61-1c-1.47-4.89-4.35-8.1-9.84-7.78-5.23.33-7.52,4-8.76,8.69H45.81C68.57,19.08,94.57,7,124.43,3.45c38-4.47,72.43,5,103.79,28-8.73,2.5-14.85,8.14-21.71,12.55a31.85,31.85,0,0,1-16.39,5.16,40.91,40.91,0,0,0-.06-6.65,9.18,9.18,0,0,0-8.28-7.91c-4.61-.26-8.11,2.3-9.61,7-.42,1.3-.75,2.59-1.24,4.38-3.14-2.11-6-4.15-9-6-4.12-2.57-8.34-4.9-12.46-7.46a3.05,3.05,0,0,1-1.27-2c-.17-2.08-.07-4.18-.07-6.29,0-6.06-3.82-10.6-9-10.83s-9.48,4.6-9.65,10.63c-.13,4.58,0,9.12,0,13.69C129.37,38.18,129.3,38.7,129.23,39.54Z"/><path class="cls-1" d="M171.55,203.94c6.28.52,12.33,1.33,18.41,1.46,7.78.16,14.72-2.72,21.09-7,4.38-3,8.57-6.48,13.38-8.62,12.49-5.64,24.78-4.86,36.43,2.76,2.84,1.84,5.49,4,8.37,5.77,1.86,1.13,2.12,2.14,1.17,4.12a154.86,154.86,0,0,1-17.33,27.85c-1.44,1.85-2.78,2.27-5.1,1.91-10.69-1.68-20.89-.45-30.15,5.58-3.37,2.2-6.6,4.64-9.94,6.91-10.63,7.16-22.07,7.81-33.94,3.89a3.53,3.53,0,0,1-2.06-2.57c-.23-13.78-.27-27.56-.33-41.31A1.34,1.34,0,0,1,171.55,203.94Z"/><path class="cls-1" d="M112.13,196.22V241.1h-3c-22.11,0-44.18,0-66.29,0a5.58,5.58,0,0,1-4.54-1.88A142.94,142.94,0,0,1,11.61,199c-.36-.81-.69-1.65-1.14-2.76Z"/><path class="cls-1" d="M283.29,149.56c-4.22-2.23-7.88-4-11.38-6.13-5-3-9.61-6.87-14.91-9.2-13.74-6-27.21-4.87-39.93,3.21-3.17,2-6.18,4.28-9.25,6.45-6.15,4.34-13,6.13-20.51,6.19-.52,0-1-.06-1.83-.13.56-1.2,1-2.17,1.47-3.14,7.75-15,15.57-30,23.16-45a24.48,24.48,0,0,1,8.1-9.28c10.4-7.33,21.62-8.72,33.56-5.22a40.36,40.36,0,0,1,9,4.48c5.27,3.14,10.37,6.55,15.51,9.89a3.72,3.72,0,0,1,1.47,1.78A135.34,135.34,0,0,1,283.29,149.56Z"/><path class="cls-1" d="M0,140.09A132.9,132.9,0,0,1,4.15,108.9c1-4,2.39-7.85,3.5-11.77a2.22,2.22,0,0,1,2.52-1.88q43.76,0,87.48,0a8.21,8.21,0,0,1,1.27.2c1.47,7,2.94,14,4.38,21,.66,3.21,1.15,6.49,2.06,9.6,1,3.57.79,6.61-2.52,9.11-4.41-4.9-8.92-9.92-13.4-14.92L79,108.64c-4.06-4.57-9-5.38-13.08-2.2a10.52,10.52,0,0,0-1.9,14.49c1.7,2.27,3.7,4.28,5.59,6.42,3.7,4.15,7.43,8.3,11.42,12.81C53.89,140.09,27.14,140.09,0,140.09Z"/><path class="cls-1" d="M10.5,89.74A135.76,135.76,0,0,1,29.59,57c2.85-3.6,5.86-7,9-10.37a6,6,0,0,1,3.72-1.69c14.65-.13,29.27-.06,43.92-.1,1.47,0,2.36.26,2.68,1.92,2.88,14.27,5.86,28.53,8.83,43C68.67,89.74,39.73,89.74,10.5,89.74Z"/><path class="cls-1" d="M216.06,87.44c-.23-.78-.43-1.56-.66-2.37a9.3,9.3,0,0,0-8.24-7,9,9,0,0,0-8.76,5.09c-2.49,4.67-5,9.34-7.23,14.14-.95,2-2.13,2.72-4.25,2.46-3.27-.38-6.54-.68-10.2-1,1.5-5.84,2.94-11.25,4.34-16.67,2.23-8.56,4.52-17.09,6.64-25.65a2.31,2.31,0,0,1,2.62-2.07c7.88-.2,14.81-3,21.26-7.43a134.44,134.44,0,0,1,14.16-8.95c6.37-3.31,7.19-2.92,12.42,1.88a141.84,141.84,0,0,1,35.78,52c.36.91.59,1.82,1.11,3.4-3.34-2.3-6.12-4.21-8.86-6.12q-24.13-17-49.48-1.79C216.51,87.34,216.32,87.34,216.06,87.44Z"/><path class="cls-1" d="M45.85,246.55H112.1V280.5A142.71,142.71,0,0,1,45.85,246.55Z"/><path class="cls-1" d="M247.06,237.21c-20.87,22.34-45.65,36.61-75.18,43.23v-26c6.05.48,12,1.29,18,1.42,7.88.13,14.87-2.75,21.32-7.13,4.54-3.08,9-6.36,13.86-8.89C231.75,236.3,239,236.11,247.06,237.21Z"/><path class="cls-1" d="M107.68,45H129.2V89.9c-3.69,0-7.45.06-11.18-.07-.46,0-1.21-.81-1.34-1.36C113.64,74.08,110.69,59.65,107.68,45Z"/><path class="cls-1" d="M160,88.28c-3.86-2-7.42-3.7-10.95-5.61A2.28,2.28,0,0,1,148.1,81c-.06-14.3,0-28.6,0-43.55,2.42,1.36,4.51,2.43,6.44,3.67,4.68,3,9.36,6.12,13.93,9.3a2.39,2.39,0,0,1,.72,2.14C166.19,64.41,163.08,76.31,160,88.28Z"/><path class="cls-1" d="M175.11,103.68l11.94,1.39c-1.93,3.7-3.79,7.37-5.33,10.28-2.29-1.91-5.1-3.56-6.83-5.93C174,108.19,175,105.63,175.11,103.68Z"/><path class="cls-1" d="M156.9,99.66c-2.58-.58-4.84-1-7-1.65-.69-.2-1.67-1-1.7-1.56-.2-2.69-.07-5.38-.07-8.92,3.63,2.3,6.74,4.19,9.65,6.26.46.32.26,1.78.13,2.69A32,32,0,0,1,156.9,99.66Z"/><path class="cls-1" d="M119.49,101.86c-.46-2.17-.88-4.18-1.34-6.42h10.92c.79,1.92.39,3-1.86,3.67A77.37,77.37,0,0,0,119.49,101.86Z"/></svg>