<svg id="レイヤー_1" data-name="レイヤー 1" xmlns="http://www.w3.org/2000/svg" viewBox="0 0 283.46 283.46"><defs><style>.cls-1{fill:#009fb7;}</style></defs><title>アートボード 44</title><path class="cls-1" d="M111.18,253.08c-.14-16.52-.53-31.23-2.36-45.87a31.27,31.27,0,0,0-4.93-14c-4.54-6.71-6.37-14.22-8.1-22-3.11-13.74-4.15-28-9.38-41.25-4.12-10.46-11-19.11-19.18-26.59C62.1,98.74,57.16,93.92,52.33,89c-2.58-2.62-5.13-6.22-3.3-9.65s6-2.11,9.34-1.56a20.3,20.3,0,0,1,13.86,8.94c7.58,10.86,17.54,19.6,26.69,29.06,2.62,2.72,7.13,2.34,8.2-1.68.66-2.46-.36-6.06-1.2-8.46-4.68-13.31-8.11-27-14-40a59,59,0,0,1-4.9-23c-.1-3.7.23-7.88,4.28-9.21,4.28-1.42,6.53,2.37,8,5.41a136.37,136.37,0,0,1,7.12,19c2,6.7,8.4,28,14.32,44.06,1.56,4.24,4.7,6.31,8.2,5.83,3.33-.45,6-3.82,6.27-8.36.56-9.75-.23-19.47-1.11-29.16-1-10.82-2.71-21.54-3.86-32.33a38,38,0,0,1,2.88-19.08c2.29-5.31,6.5-5.74,10.13-1.2,3.2,4,4.34,8.71,4.9,13.57a133,133,0,0,1,1,16.07c-.13,14.36-.33,28.74,1.47,43a80.89,80.89,0,0,0,2.38,11.37c.75,2.62,2.32,4.4,5.2,4.76a6.27,6.27,0,0,0,6.66-3.21,69.12,69.12,0,0,0,8.86-23.78c2.48-14,7.32-27.24,11.86-40.62a10.09,10.09,0,0,1,1.83-3.24c1.86-2.3,4.12-4.44,7.32-3.76s3.1,3.82,3.59,6.38c1.21,6.58-.23,13-1.76,19.25-3.66,14.8-8.56,29.28-11.86,44.15a256.29,256.29,0,0,0-4.41,25.47,27.67,27.67,0,0,0,1.73,14c2,4.86,4.31,5.48,8.69,2.53,7.64-5.12,13.36-12.08,19.38-18.82a25.47,25.47,0,0,1,11.72-7.88c4.25-1.29,9.87.07,11.41,2.3s-.43,4.83-2.55,6.29c-9.21,7.48-13,13.28-18.89,22.55a145.22,145.22,0,0,1-26,30.55c-8.89,8-12.55,17.91-13.34,29.58-1.47,21.57-1.5,43.18-1.3,64.79,0,3.89-1.11,5.51-5,6.16a147.42,147.42,0,0,1-48.88-.1c-3.57-.62-5.3-1.59-5.53-5.8C111.18,265.78,111.44,258.56,111.18,253.08Z"/><path class="cls-1" d="M57.36,197.78c-13.23,0-26.43-.1-39.67.06-3.43,0-5.22-1.16-6.43-4.34A155.63,155.63,0,0,1,2.57,161c-.39-2.66.42-3.69,3.1-3.69q40.24,0,80.48,0c2.45,0,3.69,1,4.15,3.33.85,4.54,2,9,2.78,13.58a49.56,49.56,0,0,0,7,19.21,7.77,7.77,0,0,1,1.24,3.6c-.26,1.13-2.32.74-3.53.74C84.32,197.81,70.86,197.78,57.36,197.78Z"/><path class="cls-1" d="M44.91,153.72c-13,0-25.94-.1-38.88.06-3.5,0-4.61-1.23-4.64-4.56-.1-10.37,0-20.7,1.76-31,.56-3.24,1.77-4.6,5.36-4.57,20,.16,40,.13,60.06,0a7.28,7.28,0,0,1,6.37,3.08c7.81,10,11.73,21.38,13.3,33.76.39,3.17-1.51,3.17-3.66,3.17Z"/><path class="cls-1" d="M59.49,200.86c13.33,0,26.69.1,40-.07,3.43,0,5,1.23,5.65,4.51,2,11.11,2.13,22.32,2.42,33.53.07,2.52-1.76,2.36-3.36,2.4-5,.06-10.07,0-15.1,0H47.2c-2.22,0-4.18-.26-5.82-2C31.91,229,23.28,218.16,17,205.62c-2.25-4.54-2.15-4.76,2.81-4.76Z"/><path class="cls-1" d="M178.48,197.39c-.75-.39.89-7.25,6.08-12.83,7.19-7.51,15.19-14.29,21.37-22.71,2.06-2.82,2.55-2.95,4.38-5.93,1.63-2.69,2.45-3.92,6.3-2.14A35.53,35.53,0,0,1,227,161c8.82,8.29,25.61,9.94,38-.55,3.92-3.66,7.61-7.68,12.48-10.24,1.18-.61,2.45-1.91,3.79-1s.59,2.52.49,3.85a143.18,143.18,0,0,1-7.58,35.09c-1,2.78-1.92,6-4.34,7.87s-4.61,3-6.83,4.86c-11.83,9.69-25.16,9.17-36.4-1.33-3.66-3.43-7.19-7-11.86-9.17-11.21-5.08-21.76-4-31.63,3.37C181.49,194.9,179.23,197.78,178.48,197.39Z"/><path class="cls-1" d="M200.77,16.32c1.83-.25,3.85.68,5.88,1.75a144.61,144.61,0,0,1,53.88,49.18c1.76,2.69,1.18,4.08-1.28,5.7-9.21,6.13-22,5.06-30.81-2.68-3.2-2.82-6.37-5.67-9.7-8.33a25,25,0,0,0-13.14-5.22c-5.36-.58-5.39-.74-4.54-5.89a42.67,42.67,0,0,0,0-16c-1.28-5.93-5.85-8.16-11.44-5.6a13.28,13.28,0,0,0-7.25,8.23c-3.5,10.3-7.38,20.47-9.8,31.07a8.22,8.22,0,0,1-6.18,6.73c-.49.13-1,.33-1.44.46-10.09,3-12.61,1.39-12.87-8.81-.23-9-.06-18-.13-27,0-2,.49-3.56,2.91-3.34,11.82,1.14,20.39-4.82,28.23-12.6A25.21,25.21,0,0,1,200.77,16.32Z"/><path class="cls-1" d="M202,100.36a25.84,25.84,0,0,0-11.14,1.52c-2,.85-3.3.69-2.58-1.94,3.43-12.54,6.86-25,10.29-37.58.59-2.14,2.12-2.56,4-2.49a24.93,24.93,0,0,1,16.05,6.57c2,1.85,4.15,3.63,6.2,5.48,11,9.81,24.12,11.14,36.8,3.56,2.28-1.36,3.23-.78,4.34,1.3a152,152,0,0,1,9.7,23.13c.66,1.94.62,3.08-1.24,4.21-4.08,2.53-5.85,6.45-10.91,9.65-6.57,4.18-16.37,8.88-25.88,5.64-1-.32.1-2-4.64-4.92-2.94-1.82-7.28-1.27-9.11-3.6C216.58,103.86,210.9,100.72,202,100.36Z"/><path class="cls-1" d="M267.59,203.06c.22.58-9.81,17.37-15.82,25.08-4.93,6.35-10.91,11.76-16.6,17.43-1.93,1.91-3.59,1.91-5.52.22-3.2-2.82-6.34-5.73-9.64-8.42a29.65,29.65,0,0,0-38.29.71c-1.6,1.43-3,3-4.64,4.41-.65.55-1.24,1.42-2.19,1.2-.69-.17-.75-2.14-.72-3.08.29-8.49,1.08-15.29,1-26.47s6.31-14.84,13.1-19.53c7-4.86,14.9-4.9,22.78-2.08,4.73,1.72,8.33,5.09,11.86,8.52,4.93,4.8,10.42,8.62,17.51,9.69,8.95,1.33,17-.39,24-6.25a16.06,16.06,0,0,1,1.83-1.3C266.41,203.06,267.36,202.48,267.59,203.06Z"/><path class="cls-1" d="M55.79,66.73H27.46c-1,0-2.28.39-2.84-.48-.78-1.17.46-2.08,1.05-3a141.92,141.92,0,0,1,34.4-34.92,10.66,10.66,0,0,1,6.67-2.14c18.53.06,37,0,55.54,0,4.71,0,4.91.16,4.78,4.92-.33,10.18,1.4,20.16,2.77,30.17.69,4.89.3,5.37-4.74,5.37-3.26,0-6.56-.06-9.83,0-2.12.07-3.17-.87-3.72-2.85-1.18-4-2.91-8.74-4.71-14.38s-2-8-6.34-14.74c-2.65-4-6.8-5.83-10.62-4.5S84.38,35,84.06,38.74A61.06,61.06,0,0,0,87,62.39c1.34,4.31,1.4,4.34-3.21,4.34Z"/><path class="cls-1" d="M55.79,70.3c10.07,0,20.16.13,30.23-.07,3.17-.06,4.9,1,5.85,4,3.56,11,7.22,21.83,10.78,32.75.32,1,1,2.4-.46,2.91-1.83.65-3.76.62-5.23-1C89.61,101,81.38,93.92,75.23,85c-5.68-8.26-13.62-11.43-23.42-10.75-4.61.32-6.6,2.43-6.47,7a15.72,15.72,0,0,0,5.32,11.21c5.26,5,10.56,10,15.82,15,.59.59,1.63,1.11,1.24,2.11s-1.54.62-2.35.62c-18.89,0-37.81,0-56.69,0-2.75,0-3.6-1-2.88-3.66A145.7,145.7,0,0,1,19.72,72.6c1.18-2.11,3-2.33,5.13-2.33C35.11,70.33,45.44,70.3,55.79,70.3Z"/><path class="cls-1" d="M242.33,123.88c9.34,1.62,20.78-5.12,28-11.76,2-1.84,4.05-5.12,6.57-4.37,2.75.78,1.73,2.3,3,9.72a122.48,122.48,0,0,1,2.15,23.19c0,2.6-.75,4.15-3.36,5-6.05,2-10.2,6.77-14.8,10.75-11.86,10.24-24.48,11.28-36.66.13a41.25,41.25,0,0,0-11.05-6.7c-1.89-.81-.49-2.05,1.44-4.9,5.46-8.13,9.12-12.79,16.8-19.18C237,123.69,236.19,122.81,242.33,123.88Z"/><path class="cls-1" d="M193.16,12.57a.4.4,0,0,1,0,.74c-7.94,2.76-13.23,8.88-19.24,14C168.26,32,161.72,33.56,154.5,33c-2.42-.2-3.14-1.49-3.4-3.63-.62-5.15-2-10-5.42-14.16-5.29-6.32-13-5.44-15.59,2.3-1.69,5-4.44,5.86-9.14,5.77-15.62-.26-31.24-.1-46.86-.13-1.34,0-4.51.19-4.08-.39,8.07-7.71,38.62-18.53,60.61-20A139.48,139.48,0,0,1,193.16,12.57Z"/><path class="cls-1" d="M173.55,259.72c-.33-7.64,2.42-12.08,9.41-17.75,12-9.72,24.24-10.4,36.17-.62,2.61,2.14,5,4.6,7.68,6.65,2.29,1.71,2.19,2.85-.07,4.5a138.9,138.9,0,0,1-38.06,20.34c-3.56,1.2-7.22,2.17-10.82,3.34-2.9.94-4-.29-4-3.05C173.91,269.67,173.88,267.37,173.55,259.72Z"/><path class="cls-1" d="M77.75,244.37c8.69,0,17.35.06,26,0,3,0,4.35,1.1,4.31,4.17q-.09,12.35.07,24.69c0,2.79-1,3.5-3.69,2.76A140,140,0,0,1,50.3,247.38c-.72-.62-2-1.2-1.63-2.3s1.73-.71,2.68-.71C60.14,244.34,69,244.37,77.75,244.37Z"/><path class="cls-1" d="M201.52,103.38a27.22,27.22,0,0,1,17.71,7.06c1.8,1.59,2.55,2.72-.49,3.79-6.14,2.2-10.42,6.8-14.54,11.6a92.88,92.88,0,0,1-14.87,14.32c-2.38,1.78-3.85,1.36-4.7-1.43-1.11-3.73-1.87-7.48-1.18-11.4.88-5,1.7-10.08,2.29-15.17a7.13,7.13,0,0,1,4.7-6.18A29.35,29.35,0,0,1,201.52,103.38Z"/><path class="cls-1" d="M122.28,70.3c9.09,0,9.06,0,9.28,8.94.13,5.25.5,10.46.69,15.71a16.36,16.36,0,0,1-1.05,6.64c-1.27,3.34-4.18,3.76-6.3.88a15.46,15.46,0,0,1-1.9-4c-2.77-7.78-5.52-15.55-8.17-23.36-1.5-4.44-1.27-4.7,3.31-4.73C119.51,70.3,120.91,70.3,122.28,70.3Z"/><path class="cls-1" d="M169.89,80.89a66.08,66.08,0,0,1-8,20.25c-1.83,2.92-4.38,2.69-5.59-.45-2.32-5.87-2.81-12.12-3.37-18.34-.13-1.62.95-2.17,2.42-2.17A37.59,37.59,0,0,0,168,78.59C170,77.94,170.12,79.24,169.89,80.89Z"/></svg>