<svg id="レイヤー_1" data-name="レイヤー 1" xmlns="http://www.w3.org/2000/svg" xmlns:xlink="http://www.w3.org/1999/xlink" viewBox="0 0 283.46 283.46"><defs><style>.cls-1{fill:none;}.cls-2{clip-path:url(#clip-path);}.cls-3{fill:#328fab;}</style><clipPath id="clip-path"><circle class="cls-1" cx="141.67" cy="141.67" r="140.92"/></clipPath></defs><title>アートボード 45</title><g class="cls-2"><path class="cls-3" d="M137.8,285.32c-9,0-17.91,0-26.86,0-1.89,0-2.58-.43-2.55-2.44.13-7.8,0-15.61.14-23.41a74.06,74.06,0,0,1,.91-13.09c1-5.24.82-10.63,2-15.72,1.14-4.9.91-9.81,1.51-14.69a25.79,25.79,0,0,0-.86-9.43,56,56,0,0,0-3.94-9.55c-2.1-4.37-4.48-8.61-6.57-13a114.92,114.92,0,0,1-4.7-10.89,85,85,0,0,1-2.22-9c-.41-1.75-.83-3.5-1.17-5.27-.88-4.62-1.69-9.26-2.59-13.87-.65-3.33-1-6.76-2.2-9.91-1.47-4-2.11-8.46-4.9-12a8.24,8.24,0,0,0-1-1.1c-6-5.22-12.22-10.25-18-15.68S53.24,95,47.58,89.22c-1.95-2-2.19-4.56-1.61-7.13.47-2.1,4.29-3.27,6.33-1.74,2.9,2.15,5.53,4.66,8.27,7,2.34,2,4.82,3.92,7,6.15,3.89,4,8.75,6.67,13.4,9.57,2.93,1.83,6.21,3.08,9.21,4.81,2.74,1.59,5.65,1.25,8.51,1,5.33-.37,8.43-6.57,6.07-11.37a72,72,0,0,1-3.15-8.85c-.93-2.74-1.84-5.48-2.67-8.24-.4-1.33-.61-2.72-.89-4.08-.75-3.58-1.44-7.19-2.26-10.76-.57-2.48-1.38-4.91-2-7.39-.4-1.65-.54-3.37-1-5-.94-3.56-2.17-7.06-2.92-10.66a49.35,49.35,0,0,1-.9-8.84c0-2,2.2-4.3,4.25-4.84,2.43-.64,5.46.27,6.64,2.14a9.78,9.78,0,0,1,.67,2.36,61.42,61.42,0,0,1,2.49,11,57.79,57.79,0,0,0,2.64,10.77c1.24,3.92,2.76,7.75,4.25,11.58s3.31,7.63,4.65,11.55c1.22,3.58,1.91,7.33,3,11a10,10,0,0,0,5.55,6.81c2.18,1,6.18-1.37,7.58-3.51,1.84-2.82,2.11-5.82,2.13-9,0-2.28.68-4.55,1-6.83s.48-4.66.71-7c0-.32.11-.64.11-1-.06-3.77,1.11-7.31,2-10.91.5-2,.73-4.11,1.12-6.15s.83-4.09,1.27-6.13c.57-2.64,1.24-5.25,1.72-7.9.4-2.24.27-4.61.94-6.75,1.36-4.29,1.23-8.73,1.93-13.08a16.86,16.86,0,0,1,2-5.26c1.12-2,3.95-2.81,6.64-2.14a5.48,5.48,0,0,1,4.3,4.75,116.76,116.76,0,0,1-.08,12.27c-.17,2.4-1.27,4.72-1.65,7.12-.48,3.06-.38,6.23-1,9.26-1.3,6.28-.73,12.63-1.16,18.93-.32,4.65-1.22,9.26-1.89,13.88q-.9,6.18-1.87,12.36a3.34,3.34,0,0,0,2.39,4c1.73.63,3-.13,4.19-1.46a56.05,56.05,0,0,0,9.63-16.09c1.6-3.92,4-7.53,5.95-11.29q2.28-4.29,4.48-8.62c1.24-2.45,2.57-4.88,3.62-7.43,1.29-3.14,2.28-6.39,3.48-9.57a21.25,21.25,0,0,1,1.87-3.94c1.8-2.79,3.27-6,6.66-7.25a3.57,3.57,0,0,1,2.9.27c3.81,2.68,4.73,6.34,3.15,10.82-.85,2.41-1.29,5-2.19,7.38-1,2.74-2.46,5.34-3.55,8.06-1,2.49-1.84,5-2.63,7.61s-1.37,5.06-2.11,7.57c-.82,2.76-1.63,5.53-2.6,8.24-.72,2-1.79,3.89-2.51,5.89-.91,2.53-1.6,5.14-2.43,7.71-.91,2.83-1.9,5.64-2.77,8.48a34.76,34.76,0,0,0-.75,3.51c-.48,2.33-.94,4.67-1.44,7s-1.13,4.85-1.65,7.29a11.61,11.61,0,0,0-.24,2.28c0,4.67-.27,9.36.07,14a31.8,31.8,0,0,0,2.11,8.08c.62,1.74,3.64,2.19,6,1.21,4.34-1.81,8.08-4.57,11.87-7.31a68.77,68.77,0,0,1,10.35-6.36,28.31,28.31,0,0,1,15.58-2.32,60.86,60.86,0,0,1,9.21,1.95c3.24.9,5.06,4.59,3.57,7.1a5.46,5.46,0,0,1-2.45,1.92,29,29,0,0,1-3.67.94,38.3,38.3,0,0,0-5.72,1.77c-4.68,2.13-9.25,4.43-13.1,8-3,2.79-6.52,5.06-9.47,7.91-1.76,1.7-2.9,4.06-4.24,6.17-3.44,5.4-8,9.85-12.51,14.28-4.27,4.17-8.47,8.41-12.53,12.78a31.34,31.34,0,0,0-4.3,6.2,25.84,25.84,0,0,0-1.56,5c-.18.59-.39,1.18-.52,1.78-.17.79-.59,1.69-.36,2.37,2.36,7.12,1.53,14.47,1.79,21.75.21,5.83.22,11.76,1.35,17.44.71,3.57.54,7,.86,10.54.35,3.79.19,7.67,1,11.35,1.22,5.68,1.21,11.41,1.74,17.11.17,1.73-.48,2.2-2.15,2.19C156.1,285.29,147,285.32,137.8,285.32Z"/><path class="cls-3" d="M218.23,200.77h49.29c.51,0,1,0,1.53,0,1.06.06,1.35.55.85,1.52-1.6,3.06-3.12,6.17-4.78,9.19a57.79,57.79,0,0,1-3.8,6.08,5.41,5.41,0,0,1-2.35,1.29,3.68,3.68,0,0,1-1.33,0H170.77c-2.74,0-2.58,0-2.89-2.62-.35-3-1.13-5.91-1.53-8.89a31.21,31.21,0,0,1-.13-5.72c0-.32,1-.84,1.58-.85,3-.09,6,0,9,0Z"/><path class="cls-3" d="M278.6,177.41c-.91,3.22-1.69,6.31-2.68,9.32-.89,2.74-2,5.41-3.07,8.08a1.58,1.58,0,0,1-1,.67,6.49,6.49,0,0,1-1.53,0H172.48c-.79,0-1.59-.09-2.38-.14l-.29-.5c1.39-1.57,2.71-3.2,4.19-4.69,3.9-3.92,7.82-7.81,11.83-11.61a4.43,4.43,0,0,1,2.79-1.12q30.88-.09,61.77-.05H278.6Z"/><path class="cls-3" d="M229.67,108h45.46c3.87,0,3.9,0,4.62,3.71s1.3,7.18,1.92,10.77c.1.56,0,1.15.07,1.72.19,1.53-.48,2-2,2-15.09,0-30.18,0-45.27-.07a7,7,0,0,1-3.59-1c-3.15-2-6.72-2.52-10.27-2.79-3.75-.28-7.54-.07-11.31-.07-3.5,0-6.57,1.42-9.71,2.72a13,13,0,0,1-4.54,1.16c-5.17.15-10.35.06-15.53.06-2.69,0-3.23-.74-2.61-3.34a18.12,18.12,0,0,0,.64-4.11c0-3.47,1.31-6.63,2.31-9.85.14-.45,1.31-.83,2-.84,6.58-.06,13.17,0,19.75,0Z"/><path class="cls-3" d="M277.39,103.75H183.14c-2.6,0-2.54,0-1.67-2.38.48-1.3.61-2.72,1-4,.92-2.87,1.94-5.7,2.9-8.56a6.45,6.45,0,0,0,.25-1.31,1.82,1.82,0,0,1,2-1.83h1.92c25.7,0,51.39.08,77.09-.1,3.31,0,5,.94,6,4,.91,2.8,2.21,5.48,3.17,8.27C276.5,99.65,276.86,101.63,277.39,103.75Z"/><path class="cls-3" d="M14.58,202a23.79,23.79,0,0,1,3.28,0c3.31.49,6.05-.9,8.78-2.43a5.09,5.09,0,0,1,5.89.18c3.7,2.76,7.92,2.49,12.09,2,1.48-.17,2.89-1.23,4.25-2,2.06-1.19,4.07-1.39,6.07,0,3.65,2.56,7.79,2.61,11.91,2.06,1.65-.22,3.17-1.46,4.73-2.28a5.19,5.19,0,0,1,5.58,0c3.78,2.64,8,2.86,12.22,2.26,1.72-.24,3.22-1.83,5-2.27a11.78,11.78,0,0,1,5,0c1.31.26,2.43,1.37,3.73,1.83,2.44.88,2.92,3.11,3.54,5.09a31.19,31.19,0,0,1,1.18,11.62c0,.65-.22,1.71-.56,1.82a2.64,2.64,0,0,1-2.06-.43c-3.53-2.69-7.58-2.86-11.66-2.33a11.93,11.93,0,0,0-4.29,2c-2.94,1.79-5.64,1.26-8.32-.51-3.44-2.29-9.67-2.33-13-.06-2.81,1.92-5.62,2.31-8.68.47-4.79-2.89-9.69-3.12-14.53-.08-3,1.89-5.85,1.6-8.68-.3-3.53-2.38-7.36-2-11.16-1-1.57.43-2.43,0-3.12-1.26q-3.59-6.77-7.17-13.54A3.42,3.42,0,0,1,14.58,202Z"/><path class="cls-3" d="M97.42,193.66c-3.62-.14-6.37,1.49-9.11,3.05a4.91,4.91,0,0,1-5.07.08c-1.51-.8-3-1.63-4.56-2.33-4.07-1.86-8.08-.81-11.38,1.46-3.73,2.58-6.63,1.1-9.64-.71a9.47,9.47,0,0,0-8.71-1,51.52,51.52,0,0,0-5.69,2.52,5,5,0,0,1-5.07,0c-1.45-.79-2.89-1.6-4.39-2.26a11.09,11.09,0,0,0-11.38,1.35c-3.7,2.71-6.6,1-9.83-.61-2.58-1.33-3-3.84-3.83-6.15-1-2.81-2-5.64-2.88-8.5a11.7,11.7,0,0,1-.6-4.09c0-.34,1.72-1,2.45-.8a18,18,0,0,1,4.13,2,11.81,11.81,0,0,0,12.62,0A16.9,16.9,0,0,1,28,175.82a4.62,4.62,0,0,1,2.89.16c1.51.62,2.81,1.77,4.34,2.34,3.95,1.46,7.89,1.83,11.67-.69a14.24,14.24,0,0,1,3.74-1.87,4.72,4.72,0,0,1,2.92.2c1.44.6,2.68,1.72,4.13,2.3,4,1.62,8,1.76,11.84-.66a18.35,18.35,0,0,1,3.76-1.88,3.91,3.91,0,0,1,2.56.2c1.39.59,2.61,1.57,4,2.19,3.92,1.78,7.88,2,11.69-.27,1-.61,1.3-.47,1.78.58,2.13,4.59,4.38,9.13,6.58,13.69.44.93.21,1.5-.87,1.54C98.42,193.68,97.78,193.66,97.42,193.66Z"/><path class="cls-3" d="M74.55,171.06c-2.87-.73-5.15.7-7.46,2a7.06,7.06,0,0,1-7.76,0,13.78,13.78,0,0,0-7.87-2.2,11.36,11.36,0,0,0-6.24,1.82c-3,2-6.14,2.09-9.09,0-3.2-2.28-6.75-1.87-10.25-1.57a7.31,7.31,0,0,0-3.18,1.57c-2.91,2.06-5.84,1.92-8.75.16a11.69,11.69,0,0,0-6.79-1.95c-3.46.16-3.61,0-4.14-3.32-.57-3.67-.83-7.39-1.23-11.08a2.35,2.35,0,0,1,1.44-2.63,7.44,7.44,0,0,1,7.27,0,14.1,14.1,0,0,0,15.13.11,7.29,7.29,0,0,1,7.59,0c5.23,3,10.21,2.72,15.49-.21,1.64-.92,4.79-1,6.28,0,3.85,2.57,7.88,2.27,12,2,1.15-.08,2.25-1.08,3.36-1.69a7.48,7.48,0,0,1,7.94,0A11.77,11.77,0,0,0,85.48,156c2.5-.13,2.55.2,2.82,2.71a64.29,64.29,0,0,0,1.43,7.52c.38,1.63,1,3.19,1.47,4.82a1.68,1.68,0,0,1-.57,1.25,7.48,7.48,0,0,1-8.67,1C79.66,171.92,77.44,170.32,74.55,171.06Z"/><path class="cls-3" d="M257.29,223.57c-2.41,3.19-4.48,6.12-6.76,8.88s-4.56,5.06-6.82,7.61a4.19,4.19,0,0,1-3.46,1.54q-34.35-.07-68.7,0c-1.5,0-2.12-.27-2.69-2-1.64-4.9-.5-9.85-.86-14.75,0-.43.82-1,1.36-1.35.26-.18.74,0,1.13,0h84.44C255.54,223.46,256.16,223.51,257.29,223.57Z"/><path class="cls-3" d="M191.31,172.9c.84-1.17,1.39-1.91,1.91-2.68,2-2.9,3.66-6,6-8.64,2.78-3.13,5.24-6.69,10.43-6.66,23.46.18,46.93.08,70.39.09.91,0,1.81.12,2.28.16-.2,2.31-.27,4.29-.58,6.23-.57,3.59-1.26,7.17-2,10.75-.06.29-.6.6-1,.7a6,6,0,0,1-1.53.05H191.31Z"/><path class="cls-3" d="M86.84,151.2c-1.85.71-3.36-.28-4.93-1.08-2.29-1.17-4.5-2.44-7.21-2.59-3-.16-5.41,1.2-7.78,2.61-2.83,1.67-4.84,1.64-7.75-.15-2.7-1.65-5.64-3.11-8.93-2.32a21.18,21.18,0,0,0-5.7,2.4c-3,1.79-4.58,1.7-7.74-.07a24.92,24.92,0,0,0-6.69-2.37c-3-.65-5.58,1-8,2.39-3,1.77-4.84,1.83-7.9,0-2.71-1.65-5.61-3-9-2.34A38.09,38.09,0,0,0,1,149.06c0-5.31,0-10.41,0-15.52a2.24,2.24,0,0,1,.82-1.6c1.37-.91,2.82-2.17,4.31-2.29s3.14,1,4.72,1.53a69.43,69.43,0,0,0,6.73,2.31c2.34.57,4.41-.77,6.48-1.64,1.46-.61,2.77-1.59,4.25-2.13a3.52,3.52,0,0,1,2.48.25c3.09,1.54,6.08,3.6,9.64,3.48a21.44,21.44,0,0,0,6.31-1.66c1.35-.48,2.5-1.55,3.86-2a4.25,4.25,0,0,1,2.83.21c3.14,1.45,6,3.77,9.66,3.47a25.59,25.59,0,0,0,6.44-1.81c1.3-.48,2.42-1.44,3.7-2,2.18-.91,3.8.59,5.5,1.57.6.35,1.16,1.08,1.74,1.08,2,0,2.38,1.44,2.78,2.82,1,3.44,2.06,6.89,2.89,10.38A44.84,44.84,0,0,1,86.84,151.2Z"/><path class="cls-3" d="M228.15,80.11H190.94c-2.66,0-2.48,0-1.73-2.32,1.5-4.75,2.77-9.58,4.2-14.35a2.1,2.1,0,0,1,1.17-1.13,4.85,4.85,0,0,1,1.71-.06c19.5,0,39,.1,58.51-.1,2.86,0,4.16,1.32,5.34,3.26,2.23,3.67,4.35,7.4,6.44,11.15a21.23,21.23,0,0,1,1.15,3.1,22.28,22.28,0,0,1-3.12.43Q246.39,80.14,228.15,80.11Z"/><path class="cls-3" d="M105,242.28a54.25,54.25,0,0,0-5.83-2.46,7.38,7.38,0,0,0-4.1-.18c-2.47.84-4.72,2.34-7.19,3.19a6.55,6.55,0,0,1-4.26,0c-2.94-1.24-5.66-3.14-8.91-3.39-3.42-.25-6.21,1.79-9.08,3.28a4.85,4.85,0,0,1-5,0c-2.86-1.51-5.64-3.6-9.07-3.27a14,14,0,0,0-5.44,1.79c-2.56,1.47-3.4,1.66-5.38-.59-3.17-3.59-6.19-7.3-9.25-11-1.49-1.8-2.89-3.67-4.4-5.43-.89-1-1-1.47.47-2.19,2-1,3.59-.26,5.15.7,3.18,1.94,6.55,3.2,10.28,2.46A13.81,13.81,0,0,0,48.14,223c2.7-1.93,5.15-1.61,7.7,0,2.87,1.83,6,2.92,9.36,2.21A15.8,15.8,0,0,0,70.58,223a6.23,6.23,0,0,1,7.72.05,12.29,12.29,0,0,0,9.4,2.17,14.83,14.83,0,0,0,5.19-2.12,6.6,6.6,0,0,1,8.22.06,34.07,34.07,0,0,0,4.78,2.19c.34.16.82.57.82.87,0,1.72,0,3.44-.19,5.15-.09,1.06-.44,2.09-.58,3.15C105.61,237,105.33,239.5,105,242.28Z"/><path class="cls-3" d="M29.73,60.51c2.05,1,4.06,2.05,6.16,2.9a13.11,13.11,0,0,0,9.45.05c2.49-.88,4.53-3.28,7.51-2.39a51.2,51.2,0,0,1,4.79,2c4.74,2,9.1,1.45,13.55-1.24,1.58-1,4.63-1.22,6.07-.31a15.64,15.64,0,0,0,9.67,2.65c2.93-.17,4,1.15,4.42,4.08s1.24,5.89,1.72,8.86a2.75,2.75,0,0,1-.69,2.27c-2.25,1.53-4.61,3.12-7.53,2.55a24.29,24.29,0,0,1-4.15-1.56,4.73,4.73,0,0,1-.62-.44c-2.18-1.43-10-.91-12.13.61s-4.86,2.34-7.06-.29a18.11,18.11,0,0,0-9.17-5.81c-4.14-1.13-8,.7-10.15,4.82-1.54,3-2.81,3.58-5.36,1.53a7.7,7.7,0,0,0-5.49-1.63,12.08,12.08,0,0,1-2.69,0c-2.75-.57-4.61,1.41-6.89,2.21a13.08,13.08,0,0,1-4.46.54c-1.49,0-1.29-1.26-.91-2.14A44.56,44.56,0,0,1,18.6,74C21,70,23.77,66.31,26.06,62.33,27,60.65,28.27,61.26,29.73,60.51Z"/><path class="cls-3" d="M78.64,125.24a42.89,42.89,0,0,1-5.37,0c-2.71-.37-4.66,1.29-6.88,2.25a8.13,8.13,0,0,1-7.52-.48,13.29,13.29,0,0,0-13.81,0,8.42,8.42,0,0,1-8.9-.06c-3.68-2.24-10-2.33-13.49,0A7.55,7.55,0,0,1,14,127c-3.9-2.64-7.93-1.39-12.32-1.6.24-.9.53-1.95.81-3a7.13,7.13,0,0,0,.32-1.09c.33-2.7.56-5.41,1-8.09A31.56,31.56,0,0,1,5,108.29c.47-1.44,3.41-1.85,5.26-.58a13.59,13.59,0,0,0,8.79,2.54,11,11,0,0,0,5.72-1.8,7.72,7.72,0,0,1,9.36.11c3,2.32,10.47,2.27,13.7-.39,1.89-1.56,5.78-1.49,7.91-.23,1.51.89,3.29,1.36,4.74,2.33a65.89,65.89,0,0,1,5.61,4.41C70.19,118.07,74.22,121.5,78.64,125.24Z"/><path class="cls-3" d="M139.08,15.69c-.63,3.6-1.22,6.86-1.74,10.14-.19,1.26-.15,2.55-.28,3.81-.25,2.58-.73,5-3.6,6.1a7.48,7.48,0,0,1-6.12-.46c-1.83-1.26-3.75-2.43-6.15-2.15a4.83,4.83,0,0,1-1.14,0,12.11,12.11,0,0,0-8.93,2.39,7.46,7.46,0,0,1-3,.69c-1.71.26-1.43-1.19-1.78-2.12-.68-1.8-1.38-3.59-2.14-5.35-1.63-3.85-8-6.26-11.92-4.81-2.61,1-5.14,1.91-6.47,4.54a22.26,22.26,0,0,0-1.36,3.85c-.34,1.18-.54,2.4-.92,4.12-3.82-4.25-8.43-3.47-12.78-3.13-1.66.13-3.23,1.55-4.83,2.42s-4.55.48-6.13-.41c-2-1.11-4.13-1.88-6.46-2.91,5.42-3.56,11-7.33,16.69-10.94,2.56-1.63,5.28-3,8-4.41a2.75,2.75,0,0,1,1.94,0c4.23,1.51,8.42,2,12.44-.56,3.22-2.06,6.47-1.64,9.56,0,4.33,2.35,8.62,2.52,12.81,0a9,9,0,0,1,9.41-.14c4.68,2.54,9.17,2.55,13.71-.15C138.11,16.1,138.41,16,139.08,15.69Z"/><path class="cls-3" d="M236.56,247.31c-4,3.07-8,6.16-12,9.22-2.72,2.07-5.3,4.4-8.26,6-1.94,1.07-3.8,2.5-6.41,2.47-12.14-.15-24.28-.1-36.42,0-1.72,0-2.1-.51-2.64-2.23-1.25-4-.62-7.94-1-11.89a6.54,6.54,0,0,0-.13-.75c-.89-3.31-.89-3.31,2.42-3.31h64.2Z"/><path class="cls-3" d="M213.92,148.8c3.36-1.5,6.67-3.11,10.09-4.45,3-1.19,6.26-1.81,9.15-3.2,1.35-.65,2.2-2.49,3.08-3.91a6.62,6.62,0,0,0,.85-2.84,8.75,8.75,0,0,0-.62-2.48,13.18,13.18,0,0,1,1.9-.28c14.12,0,28.25,0,42.38,0,1.53,0,2.15.41,2.12,2.06-.08,4.66-.05,9.33,0,14,0,1.28-.34,1.85-1.72,1.85q-33.27-.06-66.55,0a2.74,2.74,0,0,1-.37-.08Z"/><path class="cls-3" d="M88.81,58.46c-.76.32-1.79,1.15-2.71,1A11.6,11.6,0,0,1,81.77,58c-2.54-1.47-5.16-2.6-8.12-2.13a26.49,26.49,0,0,0-5.42,1.52c-1.28.49-2.37,1.45-3.63,2-2,.93-3.73-.26-5.25-1.3a12.06,12.06,0,0,0-9.59-2.16c-2.53.56-4.79,2.2-7.27,3.11a5.38,5.38,0,0,1-3.54.09c-2.5-1-4.85-2.43-7.55-3.83a31.87,31.87,0,0,1,2.11-2.94C36.62,48.86,39.66,45.29,43,42c1.44-1.41,3.57-2.09,5.31-3.21,2.78-1.79,5.31-1.3,7.92.44,2.18,1.46,4.63,2.67,7.33,2.16a17.89,17.89,0,0,0,6.37-2.17,7.31,7.31,0,0,1,8.92,0,11.71,11.71,0,0,0,3.09,1.42c2,.63,2.93,2,3.39,4,.73,3.18,1.81,6.27,2.66,9.41C88.35,55.52,88.52,56.94,88.81,58.46Z"/><path class="cls-3" d="M195.7,57.55c1.86-4.45,3.72-8.77,5.46-13.13.47-1.15.49-2.48,1-3.63a2.19,2.19,0,0,1,1.57-1.15q16.78-.09,33.56,0a3.8,3.8,0,0,1,2.43,1.2q6.34,6.66,12.52,13.5a20.12,20.12,0,0,1,2,3.2Z"/><path class="cls-3" d="M231.74,34.34H218.17c-4.35,0-8.7,0-13,0-1.23,0-1.78-.33-1.93-1.69-.49-4.46-3-7.67-6.78-9.89-2.27-1.34-8.78-.35-10.71,1.85-2.33,2.65-4.21,5.7-6.36,8.52a2.87,2.87,0,0,1-1.82,1.14c-5.18.1-10.36,0-15.54.06-1.5,0-2.09-.48-1.25-2a2.16,2.16,0,0,0,.28-.91c.39-4.35.9-8.69,1.1-13,.09-1.8.64-2.26,2.36-2.25,13,.06,26.08-.06,39.12.14,2,0,4,1.24,5.87,2.23,3.06,1.64,6,3.51,9,5.34,1.06.65,2,1.45,3,2.19,3.16,2.31,6.33,4.62,9.47,7C231.22,33.24,231.34,33.66,231.74,34.34Z"/><path class="cls-3" d="M104,264.45c-5.08-1.79-9.73-2.47-14.5.7a7.28,7.28,0,0,1-8.16-.36c-3.29-2.32-6.86-2-10.27-1.51-2.32.35-3.34-1.09-4.78-1.9a66.65,66.65,0,0,1-8.1-5.29c-3.35-2.58-6.53-5.4-9.69-8.22-1-.9-.9-1.8.6-2.41a6.64,6.64,0,0,1,6.73.56,12.08,12.08,0,0,0,7,2.45,14.66,14.66,0,0,0,7.07-2.13c3.13-1.77,6-1.92,9,0a12.19,12.19,0,0,0,8.33,1.86c2.69-.32,4.69-1.73,7-2.74a7.25,7.25,0,0,1,6.42.38c.56.26,1,.77,1.59,1,1.81.72,2.35,1.56,2,3.84-.58,4-.21,8.16-.24,12.25Z"/><path class="cls-3" d="M51.38,100.94c-3,1.39-5.86,2.67-8.67,4.12a4.23,4.23,0,0,1-4.08,0c-3.22-1.4-6.06-4.34-10-3.42a48.9,48.9,0,0,0-6.73,2.6c-1.21.48-2.49,1.46-3.62,1.32a20.33,20.33,0,0,1-5.24-1.88c-1.91-.84-3.77-1.8-6-2.88,1.53-4.1,3.18-8.62,4.94-13.1.54-1.37,1.64-1.6,3-.89a6.63,6.63,0,0,0,6.5,0A37.58,37.58,0,0,1,27.39,84a6,6,0,0,1,4.07.09c3,1.42,5.77,3.26,9.21,3.51a.77.77,0,0,1,.58.41c1.54,5.63,6.47,8.59,10,12.69Z"/><path class="cls-3" d="M194.43,11.66h-1.85c-9.66,0-19.32-.09-29,.06-2.24,0-3.2-1.19-4.49-2.57a20.37,20.37,0,0,0-4.47-3.22,7.45,7.45,0,0,0-3-1c-3.78-.32-6.9,1.19-9.61,3.75a7.69,7.69,0,0,1-2.08,1.12,48.23,48.23,0,0,0-5.55,2.56c-1.68,1.05-5.87,1.27-7.47-.09-3-2.51-6.45-3-10-2.32a15,15,0,0,0-5.07,2.39c-2.1,1.35-5.78,1-7.9-.39a18.38,18.38,0,0,0-5.38-2.1c-1-.29-2.23-.05-3.37-.39,4.2-1.3,8.37-2.68,12.6-3.86,1.88-.53,3.87-.62,5.79-1,2.94-.62,5.85-1.35,8.78-2a5,5,0,0,1,.94-.13c6.55-.29,13.09-.6,19.64-.82,2.81-.1,5.63-.09,8.44,0a78.24,78.24,0,0,1,9.45.84c4.21.73,8.36,1.8,12.52,2.79s8.61,2.08,12.87,3.26c1.93.53,3.77,1.41,5.66,2.11.83.3,1.68.53,2.52.79Z"/><path class="cls-3" d="M108.29,42.24a85.77,85.77,0,0,0,8-3.67c2.76-1.61,5.06-.85,7.41.65,3.76,2.41,6.77,2.86,11.28,1.48-.55,2.15-1.07,4.09-1.53,6-.31,1.29-.52,2.6-.77,3.91-.47,2.46-1,4.92-1.36,7.4-.21,1.66-.75,1.79-2.1,1.09-1.85-.95-3.76-1.79-5.67-2.62-3.54-1.53-7-.93-10.28.72-1.37.7-1.82.6-2.11-1s-1.2-3-1.6-4.58a48.92,48.92,0,0,1-1-5.78C108.33,44.55,108.34,43.2,108.29,42.24Z"/><path class="cls-3" d="M67.28,86.91c1.84-1.06,3.09-1.87,4.42-2.54,2.68-1.35,4.92-.37,7.38,1,3,1.71,6.29,3.35,10,1.29a28.77,28.77,0,0,1,4.68-2,1.54,1.54,0,0,1,1.37.62c1.7,4.45,3.3,8.93,4.94,13.39.67,1.83,0,2.71-1.89,2.87-1.74.15-3.45.74-5.19.84a8.2,8.2,0,0,1-3.52-.66,31.17,31.17,0,0,1-4.88-2.58c-4-2.63-8-5.34-11.89-8.09C70.89,89.86,69.23,88.44,67.28,86.91Z"/><path class="cls-3" d="M177.18,39.59c-1.25,2.9-2.3,5.5-3.49,8-1.38,2.93-2.8,5.83-4.38,8.65a3.2,3.2,0,0,1-2.21,1.35c-2.35.18-4.72,0-7.08.08-1.22,0-1.74-.42-1.72-1.67.06-3.7,0-7.41.12-11.11a18.44,18.44,0,0,1,.86-4.45,1.78,1.78,0,0,1,1.4-.85C166,39.57,171.4,39.59,177.18,39.59Z"/><path class="cls-3" d="M129.8,64.76l-1.91,16.86a25.83,25.83,0,0,0-2.62-1.47,9.87,9.87,0,0,0-3-.92c-2.71-.2-2.47-.29-3.12-2.79-.89-3.37-2.38-6.58-3.57-9.87-.42-1.14-1.33-2.58-1-3.41A4.06,4.06,0,0,1,118.3,61a10.9,10.9,0,0,1,6.26,1.68A34.27,34.27,0,0,0,129.8,64.76Z"/><path class="cls-3" d="M203.12,269.62c-2.52,1.13-4.65,2.2-6.87,3.05-3.67,1.4-7.37,2.75-11.11,4S177.39,279,173.47,280c-.39.1-1.41-.74-1.5-1.26a35.51,35.51,0,0,1-.13-4c-.09-1.56-.27-3.12-.42-4.8C172.4,269.32,195.64,269,203.12,269.62Z"/><path class="cls-3" d="M85.31,271.73c3.13.2,5.44-1.56,7.93-2.71,1-.47,2-1.53,2.93-1.53a11.44,11.44,0,0,1,4,1.17c2,.8,3.19,2.18,2.8,4.56a24.72,24.72,0,0,0,0,2.86c-.07,1.53-.84,1.91-2.27,1.38-3.4-1.25-6.85-2.38-10.25-3.62C88.68,273.21,87,272.43,85.31,271.73Z"/><path class="cls-3" d="M166,62.26c-2.14,4.4-4.2,8.62-6.25,12.85-.69,1.42-1.31,2.89-2.09,4.25a1.63,1.63,0,0,1-1.38.62c-.37-.08-.69-.71-.92-1.16a1.58,1.58,0,0,1,0-.94c.54-3,1.18-6,1.63-9a34.07,34.07,0,0,0,.26-4.95c0-1.08.3-1.68,1.52-1.66C161.18,62.29,163.6,62.26,166,62.26Z"/><path class="cls-3" d="M188.83,131.74c-3.28,2.19-6.07,4.12-8.93,5.94-.92.59-2.13-.41-2.23-1.84s0-2.66,0-4.1Z"/><path class="cls-3" d="M121.24,83.81c1,.63,1.82,1.14,2.64,1.6a9.63,9.63,0,0,0,2.05,1c1.66.44,2.08,1.35.93,2.62a6.46,6.46,0,0,1-2.27,1.62,13.37,13.37,0,0,1-2.53-3.35A15.85,15.85,0,0,1,121.24,83.81Z"/></g></svg>