<svg id="レイヤー_1" data-name="レイヤー 1" xmlns="http://www.w3.org/2000/svg" viewBox="0 0 918 506"><defs><style>.cls-1{fill:#f0efef;}.cls-2{fill:#009fb7;}.cls-3{fill:#fff;}.cls-4{fill:#9fa0a0;}</style></defs><title>アートボード 43</title><path class="cls-1" d="M918,0H0V506H918Z"/><path class="cls-2" d="M838.77,28.4H810.9V56.26h27.87Z"/><path class="cls-3" d="M880.32,28.82h-27v27h27Z"/><path class="cls-4" d="M879.89,29.25V55.41H853.72V29.25Zm.85-.85H852.87V56.26h27.87Z"/><path class="cls-2" d="M429.94,330.46c-.14-15.82-.51-29.91-2.25-43.93A30.17,30.17,0,0,0,423,273.08c-4.31-6.42-6.05-13.62-7.71-21-2.94-13.17-4-26.77-8.91-39.48-3.92-10-10.4-18.29-18.25-25.47-4.87-4.45-9.55-9.07-14.16-13.77-2.45-2.5-4.86-6-3.14-9.26s5.71-2,8.87-1.5a19.29,19.29,0,0,1,13.17,8.55c7.22,10.39,16.67,18.78,25.37,27.82,2.49,2.61,6.76,2.23,7.79-1.6.63-2.35-.36-5.78-1.15-8.09-4.45-12.76-7.69-25.93-13.3-38.29a56.6,56.6,0,0,1-4.65-22c-.1-3.52.22-7.52,4.07-8.83,4.08-1.38,6.21,2.25,7.61,5.2a133.11,133.11,0,0,1,6.79,18.14c1.91,6.42,8,26.77,13.6,42.19,1.48,4.07,4.49,6,7.81,5.59,3.16-.43,5.71-3.65,5.95-8,.53-9.34-.22-18.66-1.05-27.94-.93-10.35-2.59-20.64-3.68-31A36.51,36.51,0,0,1,450.76,106c2.18-5.1,6.19-5.49,9.63-1.15,3,3.81,4.13,8.33,4.67,13a125.56,125.56,0,0,1,.89,15.38c-.12,13.74-.3,27.51,1.38,41.21a77.57,77.57,0,0,0,2.27,10.88c.7,2.51,2.2,4.22,4.95,4.54a6,6,0,0,0,6.34-3.08,67.3,67.3,0,0,0,8.45-22.77c2.37-13.38,7-26.1,11.29-38.91a10.38,10.38,0,0,1,1.73-3.12c1.78-2.19,3.94-4.27,7-3.61s3,3.65,3.41,6.1c1.14,6.29-.2,12.4-1.69,18.44-3.48,14.17-8.12,28-11.28,42.29a243,243,0,0,0-4.2,24.38A26.72,26.72,0,0,0,497.2,223c1.94,4.66,4.1,5.23,8.27,2.43,7.26-4.9,12.71-11.57,18.41-18A24.26,24.26,0,0,1,535,199.87c4-1.24,9.39.06,10.85,2.21s-.39,4.62-2.43,6c-8.76,7.17-12.4,12.74-18,21.58a138.35,138.35,0,0,1-24.74,29.26c-8.46,7.63-11.92,17.18-12.67,28.32-1.4,20.67-1.44,41.34-1.23,62,0,3.72-1,5.28-4.78,5.89a139.08,139.08,0,0,1-46.46-.1c-3.38-.57-5-1.54-5.24-5.55C429.94,342.62,430.18,335.69,429.94,330.46Z"/><path class="cls-2" d="M378.78,277.5c-12.58,0-25.15-.07-37.71.06-3.26,0-5-1.1-6.13-4.16a151.73,151.73,0,0,1-8.28-31.14c-.38-2.55.41-3.53,2.95-3.53q38.25,0,76.51,0c2.31,0,3.52.9,3.93,3.2.81,4.34,1.9,8.64,2.63,13a48.15,48.15,0,0,0,6.73,18.4,7.15,7.15,0,0,1,1.18,3.45c-.26,1.09-2.19.71-3.36.71Q398,277.51,378.78,277.5Z"/><path class="cls-2" d="M367,235.31c-12.33,0-24.65-.1-37,.06-3.32,0-4.39-1.16-4.41-4.36-.08-9.93,0-19.83,1.68-29.66.54-3.12,1.68-4.4,5.08-4.38,19,.16,38.06.12,57.1,0a6.89,6.89,0,0,1,6.07,3c7.42,9.55,11.15,20.45,12.66,32.32.37,3-1.43,3-3.48,3Z"/><path class="cls-2" d="M380.79,280.45c12.7,0,25.37.08,38.06-.06,3.26,0,4.79,1.18,5.36,4.32,1.92,10.62,2,21.38,2.31,32.12.06,2.41-1.68,2.28-3.2,2.3-4.78.05-9.57,0-14.35,0q-19.94,0-39.86,0c-2.1,0-4-.23-5.52-1.93-9-9.81-17.2-20.2-23.15-32.2-2.16-4.35-2-4.56,2.67-4.56Q361.94,280.44,380.79,280.45Z"/><path class="cls-2" d="M493.92,277.13c-.73-.38.85-7,5.8-12.28,6.84-7.21,14.45-13.66,20.32-21.76a59.74,59.74,0,0,0,4.17-5.69c1.56-2.56,2.34-3.73,6-2.05a33.16,33.16,0,0,1,9.87,6.91c8.38,8,24.34,9.52,36.1-.51,3.72-3.52,7.24-7.37,11.88-9.8,1.13-.59,2.34-1.83,3.6-1s.55,2.41.46,3.69a137.4,137.4,0,0,1-7.22,33.58c-.93,2.69-1.82,5.77-4.13,7.53s-4.37,2.9-6.49,4.64c-11.23,9.28-23.92,8.78-34.6-1.29-3.48-3.27-6.84-6.75-11.29-8.78-10.63-4.88-20.7-3.89-30.07,3.22C496.81,274.72,494.65,277.5,493.92,277.13Z"/><path class="cls-2" d="M515.14,103.73c1.72-.23,3.67.66,5.59,1.68A138,138,0,0,1,572,152.5c1.68,2.59,1.13,3.91-1.21,5.47-8.76,5.85-20.9,4.84-29.28-2.56-3-2.69-6-5.43-9.21-8a23.73,23.73,0,0,0-12.5-5c-5.08-.55-5.12-.71-4.33-5.64a40.69,40.69,0,0,0,0-15.32c-1.22-5.67-5.55-7.8-10.87-5.37a12.79,12.79,0,0,0-6.92,7.85c-3.32,9.86-7,19.61-9.33,29.78-.79,3.47-2.61,5.49-5.87,6.45-.46.14-.91.32-1.37.46-9.61,2.86-12,1.32-12.24-8.45-.21-8.61-.06-17.22-.12-25.83,0-1.93.48-3.41,2.79-3.2,11.25,1.07,19.4-4.64,26.83-12.06A23.68,23.68,0,0,1,515.14,103.73Z"/><path class="cls-2" d="M516.34,184.21a24,24,0,0,0-10.59,1.46c-1.9.79-3.15.66-2.46-1.87q4.88-18,9.79-36c.55-2,2-2.46,3.86-2.38a23.47,23.47,0,0,1,15.26,6.31l5.89,5.26c10.46,9.39,22.92,10.68,35,3.41,2.17-1.3,3.08-.75,4.13,1.24a146.53,146.53,0,0,1,9.23,22.16c.62,1.87.58,2.94-1.16,4.05-3.88,2.42-5.56,6.16-10.38,9.26-6.25,4-15.58,8.49-24.62,5.41-.93-.32.08-1.94-4.41-4.72-2.81-1.74-6.92-1.23-8.68-3.46C530.16,187.57,524.77,184.55,516.34,184.21Z"/><path class="cls-2" d="M578.66,282.54c.24.55-9.33,16.62-15,24-4.71,6.08-10.36,11.25-15.78,16.68-1.82,1.84-3.42,1.84-5.26.22-3.05-2.71-6-5.49-9.16-8.06a28.07,28.07,0,0,0-36.41.69c-1.51,1.37-2.87,2.91-4.43,4.23-.62.53-1.19,1.38-2.1,1.14-.65-.15-.71-2-.69-3,.28-8.11,1-14.65.95-25.33s6-14.19,12.44-18.72c6.64-4.64,14.15-4.7,21.66-2,4.49,1.64,7.91,4.88,11.27,8.15,4.71,4.6,9.91,8.26,16.65,9.28,8.5,1.29,16.17-.37,22.86-6a16.18,16.18,0,0,1,1.74-1.24C577.53,282.54,578.44,282,578.66,282.54Z"/><path class="cls-2" d="M377.27,152H350.32c-.92,0-2.17.36-2.7-.45-.74-1.11.43-2,1-2.83a135.84,135.84,0,0,1,32.71-33.44,10.17,10.17,0,0,1,6.32-2.06c17.62.06,35.22,0,52.83,0,4.49,0,4.67.16,4.53,4.7-.32,9.74,1.32,19.29,2.65,28.89.65,4.68.29,5.13-4.51,5.17-3.12,0-6.23-.06-9.35,0-2,0-3-.83-3.56-2.74-1.11-3.85-2.75-8.4-4.47-13.79s-1.86-7.68-6-14.09c-2.51-3.87-6.46-5.57-10.08-4.31s-5.2,4.5-5.52,8.12A58.79,58.79,0,0,0,407,147.86c1.28,4.13,1.32,4.15-3.07,4.15Q390.58,152,377.27,152Z"/><path class="cls-2" d="M377.27,155.41c9.59,0,19.16.11,28.75-.06,3-.06,4.65,1,5.56,3.79,3.38,10.46,6.86,20.91,10.26,31.37.31,1,1,2.31-.44,2.8a4.34,4.34,0,0,1-5-.94c-7-7.53-14.81-14.34-20.66-22.91-5.4-7.89-12.95-11-22.28-10.3-4.37.29-6.27,2.33-6.15,6.65a15,15,0,0,0,5.06,10.74c5,4.82,10,9.6,15,14.4.57.55,1.56,1.06,1.16,2s-1.46.61-2.25.61q-27,0-53.9,0c-2.61,0-3.4-1-2.73-3.51a140.81,140.81,0,0,1,13.23-32.48c1.13-2,2.87-2.23,4.86-2.23Q362.54,155.46,377.27,155.41Z"/><path class="cls-2" d="M554.64,206.72c8.88,1.56,19.77-4.92,26.65-11.27,1.9-1.76,3.84-4.9,6.27-4.21,2.59.75,1.64,2.21,2.86,9.32a116,116,0,0,1,2,22.21c0,2.47-.71,4-3.2,4.82-5.75,1.94-9.69,6.5-14.08,10.31-11.27,9.79-23.27,10.78-34.84.12a39,39,0,0,0-10.49-6.42c-1.8-.77-.48-2,1.36-4.7,5.18-7.8,8.68-12.26,16-18.36C549.54,206.54,548.79,205.69,554.64,206.72Z"/><path class="cls-2" d="M507.88,100.14a.38.38,0,0,1,0,.71c-7.55,2.65-12.57,8.51-18.29,13.39-5.34,4.54-11.54,6-18.42,5.45-2.3-.2-3-1.44-3.25-3.5-.59-4.91-1.89-9.63-5.18-13.54-5-6-12.31-5.21-14.8,2.19-1.63,4.82-4.24,5.61-8.72,5.53-14.85-.26-29.7-.08-44.55-.12-1.28,0-4.27.18-3.87-.36,7.67-7.38,36.71-17.73,57.63-19.17A131.38,131.38,0,0,1,507.88,100.14Z"/><path class="cls-2" d="M489.26,336.82c-.32-7.31,2.29-11.59,8.93-17,11.43-9.32,23.06-10,34.38-.6,2.5,2.06,4.75,4.41,7.3,6.36,2.18,1.64,2.08,2.73-.06,4.31a132.51,132.51,0,0,1-36.2,19.48c-3.4,1.17-6.86,2.1-10.28,3.2-2.75.89-3.8-.27-3.78-2.9C489.59,346.33,489.55,344.14,489.26,336.82Z"/><path class="cls-2" d="M398.17,322.09c8.25,0,16.51.06,24.75,0,2.89,0,4.14,1.06,4.1,4q-.09,11.81.06,23.63c0,2.66-1,3.34-3.52,2.65A133,133,0,0,1,372.05,325c-.69-.59-1.87-1.15-1.54-2.19s1.66-.67,2.55-.69C381.42,322.09,389.81,322.09,398.17,322.09Z"/><path class="cls-2" d="M515.85,187.08a25.77,25.77,0,0,1,16.82,6.77c1.7,1.5,2.42,2.6-.47,3.63-5.85,2.11-9.93,6.54-13.82,11.1a88.55,88.55,0,0,1-14.14,13.7c-2.25,1.7-3.67,1.3-4.46-1.36A23.59,23.59,0,0,1,498.67,210c.83-4.82,1.6-9.66,2.17-14.53a6.86,6.86,0,0,1,4.47-5.93A28.62,28.62,0,0,1,515.85,187.08Z"/><path class="cls-2" d="M440.5,155.41c8.66,0,8.6,0,8.82,8.55.12,5,.47,10,.65,15a16.22,16.22,0,0,1-1,6.36c-1.22,3.18-4,3.59-6,.83a15.09,15.09,0,0,1-1.82-3.87c-2.63-7.45-5.24-14.89-7.77-22.37-1.44-4.27-1.22-4.5,3.15-4.54Z"/><path class="cls-2" d="M485.78,165.57A63.66,63.66,0,0,1,478.17,185c-1.76,2.79-4.16,2.57-5.32-.45-2.2-5.63-2.67-11.61-3.19-17.57-.13-1.56.91-2.1,2.3-2.08a34.83,34.83,0,0,0,12-1.52C485.84,162.73,486,164,485.78,165.57Z"/><path class="cls-2" d="M382.47,397.11v10.05a1.21,1.21,0,1,1-2.41,0v-9.55c0-3-.87-5-4.53-5s-5,2.25-5,5.28v9.29a1.21,1.21,0,1,1-2.41,0V391.88a1.21,1.21,0,0,1,2.41,0v1.21a5.48,5.48,0,0,1,5-2.65C381.35,390.44,382.47,393.9,382.47,397.11Z"/><path class="cls-2" d="M390.06,394.63a1.22,1.22,0,0,1-1,.53,1.08,1.08,0,0,1-1.09-1.09,1.1,1.1,0,0,1,.2-.63c1-1.66,3.08-3,6.26-3,4.37,0,6.78,2.57,6.78,6.4v10.36a1.17,1.17,0,1,1-2.33,0v-1.36c-.95,1.78-3.12,2.71-5.4,2.71-4,0-6.52-1.92-6.52-5.39s2.53-5.31,6.6-5.31h5.32v-1c0-2.57-1.7-4.15-4.45-4.15A5.15,5.15,0,0,0,390.06,394.63Zm8.82,6.93V400h-5.32c-2.45,0-4.15,1-4.15,3.2,0,1.95,1.37,3.19,4.29,3.19C396.35,406.37,398.88,404.76,398.88,401.56Z"/><path class="cls-2" d="M417.21,391.39a3.39,3.39,0,0,1,3.36-2,1.09,1.09,0,1,1,0,2.17,1.79,1.79,0,0,0-1.82,1.16,6.28,6.28,0,0,1,1.37,4.07c0,3.85-2.57,6.32-6.94,6.32a8.18,8.18,0,0,1-4.08-.95,1.66,1.66,0,0,0-.67,1.36c0,.79.54,1.58,2.79,1.58h3.88c3.65,0,6.6,1.58,6.6,5.12,0,3.9-3.54,5.43-8.11,5.43-3.87,0-8-1.13-8-5.28a4.11,4.11,0,0,1,2.86-3.81,3.16,3.16,0,0,1-2.33-3,3.08,3.08,0,0,1,1.5-2.62,6.32,6.32,0,0,1-1.36-4.11c0-3.85,2.57-6.34,6.94-6.34A8.42,8.42,0,0,1,417.21,391.39Zm-2.09,15.95H411.2c-2.19.38-3.16,1.5-3.16,3,0,2.29,2.63,3.16,5.61,3.16s5.62-.87,5.62-3.31C419.25,408.13,417.57,407.34,415.12,407.34Zm2.55-10.56c0-2.49-1.59-4.15-4.49-4.15s-4.49,1.66-4.49,4.15,1.58,4.15,4.49,4.15S417.67,399.25,417.67,396.78Z"/><path class="cls-2" d="M427.59,394.63a1.24,1.24,0,0,1-1,.53,1.09,1.09,0,0,1-1.09-1.09,1.1,1.1,0,0,1,.2-.63c1.05-1.66,3.09-3,6.27-3,4.37,0,6.78,2.57,6.78,6.4v10.36a1.17,1.17,0,1,1-2.33,0v-1.36c-.95,1.78-3.13,2.71-5.4,2.71-4,0-6.52-1.92-6.52-5.39s2.53-5.31,6.6-5.31h5.32v-1c0-2.57-1.7-4.15-4.45-4.15A5.14,5.14,0,0,0,427.59,394.63Zm8.82,6.93V400h-5.32c-2.45,0-4.15,1-4.15,3.2,0,1.95,1.36,3.19,4.29,3.19C433.9,406.37,436.41,404.76,436.41,401.56Z"/><path class="cls-2" d="M446.81,393.52a5.43,5.43,0,0,1,5.24-3,1.17,1.17,0,0,1,0,2.33c-3.46,0-5.24,2.41-5.24,5.88v8.43a1.21,1.21,0,1,1-2.41,0V391.86a1.21,1.21,0,0,1,2.41,0Z"/><path class="cls-2" d="M463.55,390.44c6,0,7.2,4.78,7.2,7.35,0,1.08,0,2.4-1.5,2.4h-11c0,3.74,2.15,6.15,5.69,6.15a7,7,0,0,0,4.53-1.62,1,1,0,0,1,.67-.22,1.1,1.1,0,0,1,1.09,1.09,1.15,1.15,0,0,1-.42.86,8.35,8.35,0,0,1-5.89,2.12c-5,0-8.15-2.75-8.15-9.09C455.78,393.68,458.65,390.44,463.55,390.44Zm0,2.19c-3.28,0-5.1,2.12-5.31,5.47h10.14C468.38,395.38,467.45,392.63,463.55,392.63Z"/><path class="cls-2" d="M474.65,406.59a1.78,1.78,0,1,1,3.55,0,1.78,1.78,0,1,1-3.55,0Z"/><path class="cls-2" d="M509.36,397.11v10.05a1.21,1.21,0,1,1-2.41,0v-9.55c0-3-1.05-5-4.7-5-3.25,0-4.71,1.74-4.71,4.52v10.05a1.21,1.21,0,1,1-2.41,0v-9.55c0-3-.95-5-4.65-5-3.5,0-4.64,2.12-4.64,5.28v9.29a1.21,1.21,0,0,1-2.42,0V391.88a1.21,1.21,0,0,1,2.42,0v1.21a5.26,5.26,0,0,1,4.9-2.65c3.08,0,5.08,1.13,6,2.65.95-1.46,2.61-2.65,5.52-2.65C508,390.44,509.36,393.9,509.36,397.11Z"/><path class="cls-2" d="M530,399.48c0,6.18-3,9.09-7.93,9.09s-7.91-2.91-7.91-9.09,3-9,7.91-9S530,393.3,530,399.48Zm-2.46,0c0-4.73-2-6.85-5.47-6.85s-5.48,2.12-5.48,6.85,2,6.89,5.48,6.89S527.49,404.3,527.49,399.48Z"/><path class="cls-2" d="M539.38,407.62,533,392.4a1.34,1.34,0,0,1-.12-.54,1.2,1.2,0,0,1,1.21-1.2,1.11,1.11,0,0,1,1.12.79l5.32,13,5.32-13a1.15,1.15,0,0,1,1.13-.79,1.19,1.19,0,0,1,1.2,1.2,1.47,1.47,0,0,1-.11.54l-6.41,15.22a1.22,1.22,0,0,1-2.25,0Z"/></svg>